<?xml version="1.0" encoding="utf-8"?>
<!-- Generator: Adobe Illustrator 21.1.0, SVG Export Plug-In . SVG Version: 6.00 Build 0)  -->
<svg version="1.1" id="Layer_1" xmlns="http://www.w3.org/2000/svg" xmlns:xlink="http://www.w3.org/1999/xlink" x="0px" y="0px"
	 viewBox="0 0 140 72" style="enable-background:new 0 0 140 72;" xml:space="preserve">
<style type="text/css">
	.st0{fill:#5CB473;}
	.st1{fill:#D3B07F;}
	.st2{fill:#29AAE1;}
	.st3{fill:#333333;}
</style>
<path class="st0" d="M116.2,62.1H23.8c-2.1,0-3.8-1.7-3.8-3.8V14.7c0-2.1,1.7-3.8,3.8-3.8h92.4c2.1,0,3.8,1.7,3.8,3.8v43.7
	C120,60.4,118.3,62.1,116.2,62.1z"/>
<path class="st1" d="M91.8,65.8c-1.9,0.1-3.7,0.3-5.6,0.4c-4.6,0.2-9.2,0.3-13.8,0.4c-4.8,0.1-9.7,0.2-14.5,0.2
	c-0.9,0-1.9-0.1-2.8-0.3c-1-0.2-1.2-0.7-0.4-1.5c2.2-2.2,4.9-3.9,7.8-5c1-0.4,2-0.5,2.9-1c0.9-0.5,1.8-1.2,2.6-1.8
	c0.7-0.5,1.2-1.2,1.9-1.5c1.3-0.5,1.8-1.4,2-2.7c0.3-2.3,0.7-4.5,1.1-6.8c0.4-2.3-0.6-3.4-2.9-3.3c-0.4,0-0.8,0.1-1.2,0.1
	c-1.6,0.2-3.1-0.1-4.3-1.3c-1.2-1.1-2.6-1.6-4.2-1.6c-1.2,0-2.4,0.1-3.6,0.1c-2.5,0-3.5-0.6-3.8-2.9c-0.2-1.3-0.4-2.7-0.4-4
	c-0.1-1.8-0.3-2.1-2-2.3c-1.2-0.1-2.4-0.2-3.6-0.3c-1.6-0.3-1.8-0.9-0.9-2.2c2.4-3.2,5.2-5.9,9-7.5c0.2-0.1,0.4-0.2,0.6-0.3
	c2.1-0.8,3.3-2.1,3.4-4.5c0.1-1.2,0.8-2.5,1.5-3.5c0.9-1.2,2.1-2.3,3.3-3.3c1-0.8,1.7-0.5,2.4,0.6c0.7,1,1.3,2.1,2,3.1
	c1.3,2.1,3.3,2.7,5.3,1.2c2.3-1.6,4.8-2.6,7.5-3.1c0.4-0.1,0.7-0.1,1.1-0.1c2-0.1,2.2,0.1,2,2c-0.1,1.1,0.4,1.7,1.4,2
	c1.9,0.7,3.7,1.4,5.6,2.1c0.3,0.1,0.5,0.3,0.7,0.5c0.7,0.6,0.5,1.4-0.3,1.7c-0.7,0.2-1.4,0.4-2.1,0.7c-1.7,0.6-1.9,2.1-0.5,3.3
	c1.3,1.1,2.6,2.2,3.8,3.4c0.8,0.9,1.5,2,2,3.1c0.6,1.3,0.1,2.1-1.3,2.3c-1,0.1-2,0.1-3,0.3c-1.2,0.2-1.7,0.7-1.6,1.9
	c0.3,3.7-0.4,3.2-3.1,3.4c-0.9,0.1-1.7,0.2-2.6,0.4c-0.8,0.1-1.2,0.6-1.2,1.3c0,0.7,0,1.4,0.1,2.2c0.3,3.8,0.6,7.7,0.9,11.5
	c0.2,1.8,1.2,3.3,2.3,4.7c1.6,2,3.5,3.7,5.6,5.3C91.9,63.8,92,64.2,91.8,65.8z"/>
<g>
	<path class="st2" d="M49.6,64.2H31.7c-3.3,0-6-2.7-6-6V40.2c0-3.3,2.7-6,6-6h17.9c3.3,0,6,2.7,6,6v17.9
		C55.7,61.5,53,64.2,49.6,64.2z"/>
	<g>
		<g>
			<g>
				<path class="st3" d="M54.5,49.6l-3.6,3.6v-1l3-3l-3-3v-1l3.6,3.6V49.6z"/>
			</g>
		</g>
		<g>
			<g>
				<path class="st3" d="M27.5,48.7l3.6-3.6v1l-3,3l3,3v1l-3.6-3.6V48.7z"/>
			</g>
		</g>
	</g>
	<g>
		<g>
			<path class="st3" d="M40.6,62.7L36.9,59h1l3,3l3-3h1l-3.6,3.6H40.6z"/>
		</g>
	</g>
	<g>
		<g>
			<path class="st3" d="M41.4,35.7l3.6,3.6h-1l-3-3l-3,3h-1l3.6-3.6H41.4z"/>
		</g>
	</g>
	<g>
		<g>
			<path class="st3" d="M51.9,60.7l-5.1,0l0.7-0.7l4.3,0l0-4.3l0.7-0.7l0,5.1L51.9,60.7z"/>
		</g>
	</g>
	<g>
		<g>
			<path class="st3" d="M30.1,37.7l5.1,0l-0.7,0.7l-4.3,0l0,4.3l-0.7,0.7l0-5.1L30.1,37.7z"/>
		</g>
	</g>
	<g>
		<g>
			<path class="st3" d="M29.5,60.1l0-5.1l0.7,0.7l0,4.3l4.3,0l0.7,0.7l-5.1,0L29.5,60.1z"/>
		</g>
	</g>
	<g>
		<g>
			<path class="st3" d="M52.5,38.3l0,5.1l-0.7-0.7l0-4.3l-4.3,0l-0.7-0.7l5.1,0L52.5,38.3z"/>
		</g>
	</g>
</g>
</svg>
