<?xml version="1.0" encoding="utf-8"?>
<!-- Generator: Adobe Illustrator 21.1.0, SVG Export Plug-In . SVG Version: 6.00 Build 0)  -->
<svg version="1.1" id="Layer_1" xmlns="http://www.w3.org/2000/svg" xmlns:xlink="http://www.w3.org/1999/xlink" x="0px" y="0px"
	 viewBox="0 0 140 72" style="enable-background:new 0 0 140 72;" xml:space="preserve">
<style type="text/css">
	.st0{fill:#D9D9D9;}
	.st1{fill:#D3B07F;}
	.st2{fill:#29AAE1;}
</style>
<path class="st0" d="M116.2,61.6H23.8c-2.1,0-3.8-1.7-3.8-3.8V14.2c0-2.1,1.7-3.8,3.8-3.8h92.4c2.1,0,3.8,1.7,3.8,3.8v43.7
	C120,59.9,118.3,61.6,116.2,61.6z"/>
<path class="st1" d="M77.8,63.5c-1.9,0.1-3.7,0.3-5.6,0.4c-4.6,0.2-9.2,0.3-13.8,0.4c-4.8,0.1-9.7,0.2-14.5,0.2
	c-0.9,0-1.9-0.1-2.8-0.3c-1-0.2-1.2-0.7-0.4-1.5c2.2-2.2,4.9-3.9,7.8-5c1-0.4,2-0.5,2.9-1s1.8-1.2,2.6-1.8c0.7-0.5,1.2-1.2,1.9-1.5
	c1.3-0.5,1.8-1.4,2-2.7c0.3-2.3,0.7-4.5,1.1-6.8s-0.6-3.4-2.9-3.3c-0.4,0-0.8,0.1-1.2,0.1c-1.6,0.2-3.1-0.1-4.3-1.3
	c-1.2-1.1-2.6-1.6-4.2-1.6c-1.2,0-2.4,0.1-3.6,0.1c-2.5,0-3.5-0.6-3.8-2.9c-0.2-1.3-0.4-2.7-0.4-4c-0.1-1.8-0.3-2.1-2-2.3
	c-1.2-0.1-2.4-0.2-3.6-0.3c-1.6-0.3-1.8-0.9-0.9-2.2c2.4-3.2,5.2-5.9,9-7.5c0.2-0.1,0.4-0.2,0.6-0.3c2.1-0.8,3.3-2.1,3.4-4.5
	c0.1-1.2,0.8-2.5,1.5-3.5C47.5,9,48.7,7.9,49.9,7c1-0.8,1.7-0.5,2.4,0.6c0.7,1,1.3,2.1,2,3.1c1.3,2.1,3.3,2.7,5.3,1.2
	c2.3-1.6,4.8-2.6,7.5-3.1c0.4-0.1,0.7-0.1,1.1-0.1c2-0.1,2.2,0.1,2,2c-0.1,1.1,0.4,1.7,1.4,2c1.9,0.7,3.7,1.4,5.6,2.1
	c0.3,0.1,0.5,0.3,0.7,0.5c0.7,0.6,0.5,1.4-0.3,1.7c-0.7,0.2-1.4,0.4-2.1,0.7c-1.7,0.6-1.9,2.1-0.5,3.3c1.3,1.1,2.6,2.2,3.8,3.4
	c0.8,0.9,1.5,2,2,3.1c0.6,1.3,0.1,2.1-1.3,2.3c-1,0.1-2,0.1-3,0.3c-1.2,0.2-1.7,0.7-1.6,1.9c0.3,3.7-0.4,3.2-3.1,3.4
	c-0.9,0.1-1.7,0.2-2.6,0.4c-0.8,0.1-1.2,0.6-1.2,1.3s0,1.4,0.1,2.2c0.3,3.8,0.6,7.7,0.9,11.5c0.2,1.8,1.2,3.3,2.3,4.7
	c1.6,2,3.5,3.7,5.6,5.3C77.9,61.5,78,61.8,77.8,63.5z"/>
<g>
	<path class="st2" d="M83.9,45.7c0.3-0.8,0.8-1.2,1.6-1.2c1-0.1,1.6-1,2.2-2c1-1.9,1.7-1.9,2.7,0c0.9,1.8,2.2,2.4,3.4,1.6
		c0.6-0.4,1.1-1.1,1.5-1.8c0.9-1.6,1.7-1.7,2.6,0c0.9,1.8,2.1,2.6,3.3,1.9c0.6-0.4,1.3-1.1,1.7-1.9c1-1.7,1.8-1.7,2.6,0
		c0.9,1.9,2.3,2.6,3.5,1.8c0.6-0.4,1.1-1.1,1.5-1.9c0.9-1.5,1.7-1.6,2.5,0c0.6,1.3,1.4,2.1,2.7,2.3c0.4,0.1,0.8,0.7,1.2,1.1
		c0,0.3,0,0.7,0,1c-0.5,1-1.2,1.3-2,1c-0.6-0.2-1.1-0.4-1.6-0.7c-0.5-0.3-0.9-0.9-1.4-1.3c-2.4,3-5.4,2.8-7.6,0
		c-2.3,2.9-5.3,2.9-7.6,0c-2.3,2.8-5.2,2.9-7.6,0c-0.9,1.1-1.8,1.8-3,2.1c-0.9,0.2-1.6,0-2-1.1C83.9,46.4,83.9,46,83.9,45.7z"/>
	<path class="st2" d="M83.9,55.5c0.3-0.8,0.8-1.2,1.5-1.3c1.1-0.1,1.8-1,2.3-2.2c0.8-1.6,1.7-1.6,2.5,0c0.9,1.8,2,2.5,3.2,2.1
		c0.9-0.3,1.4-1.1,1.9-2.1c0.8-1.5,1.7-1.5,2.5,0c0.9,1.8,2,2.6,3.1,2.1c0.5-0.2,1-0.7,1.5-1.2c0.6-0.7,0.8-2,1.8-2
		c1,0,1.2,1.3,1.7,2c1,1.4,2.3,1.8,3.4,0.8c0.5-0.4,0.9-1,1.2-1.6c0.8-1.5,1.7-1.5,2.5,0c0.6,1.3,1.5,2.2,2.7,2.3
		c0.6,0,0.9,0.6,1.1,1.2c0,0.3,0,0.6,0,0.9c-0.3,1-1,1.4-1.8,1.2c-0.6-0.2-1.3-0.4-1.9-0.8c-0.5-0.3-0.9-0.9-1.4-1.3
		c-3.2,2.9-4.3,2.9-7.6,0c-1,1.3-2.3,2.2-3.8,2.2c-1.5,0-2.7-0.9-3.8-2.2c-2.6,3-5.1,2.9-7.5,0.2c-1,0.7-1.9,1.4-2.9,1.8
		c-0.9,0.4-1.7,0.3-2.3-0.9C83.9,56.2,83.9,55.8,83.9,55.5z"/>
	<path class="st2" d="M116.8,36.9c-0.5,1.1-1.2,1.3-2.1,1.1c-1.2-0.3-2.1-1-3-2.1c-1.1,1.4-2.3,2.2-3.8,2.2c-1.5,0-2.7-0.8-3.8-2.2
		c-1.1,1.4-2.3,2.2-3.8,2.2c-1.5,0-2.7-0.8-3.8-2.2c-1.1,1.4-2.3,2.2-3.8,2.2c-1.5,0-2.7-0.8-3.8-2.2c-0.4,0.4-0.7,0.8-1.1,1.1
		c-0.6,0.4-1.3,0.7-1.9,1c-0.9,0.4-1.6,0-2.1-1.1c0-0.3,0-0.6,0-0.9c0.3-0.9,0.8-1.3,1.5-1.4c0.5-0.1,1-0.3,1.3-0.7
		c0.4-0.4,0.8-1,1.1-1.6c0.7-1.3,1.6-1.3,2.3,0c0.2,0.5,0.5,0.9,0.8,1.3c1.1,1.4,2.5,1.4,3.7,0c0.3-0.4,0.6-0.9,0.8-1.3
		c0.7-1.3,1.7-1.3,2.3,0c0.1,0.2,0.2,0.5,0.4,0.7c1.3,2.2,3.2,2.2,4.5,0c0.1-0.2,0.3-0.5,0.4-0.8c0.7-1.3,1.6-1.3,2.3,0
		c0.3,0.6,0.7,1.2,1.1,1.7c0.9,1,2.2,1,3.1,0c0.4-0.5,0.8-1.1,1.1-1.7c0.6-1.1,1.6-1.1,2.2-0.1c0.2,0.3,0.3,0.6,0.4,0.8
		c0.5,0.9,1.1,1.6,2,1.7c0.7,0.1,1.2,0.5,1.6,1.2C116.8,36.2,116.8,36.5,116.8,36.9z"/>
</g>
</svg>
