<?xml version="1.0" encoding="utf-8"?>
<!-- Generator: Adobe Illustrator 21.1.0, SVG Export Plug-In . SVG Version: 6.00 Build 0)  -->
<svg version="1.1" id="Layer_1" xmlns="http://www.w3.org/2000/svg" xmlns:xlink="http://www.w3.org/1999/xlink" x="0px" y="0px"
	 viewBox="0 0 140 70" style="enable-background:new 0 0 140 70;" xml:space="preserve">
<style type="text/css">
	.st0{fill:#D9D9D9;}
	.st1{fill:#C6B198;}
	.st2{fill:#736357;}
	.st3{fill:#C6455F;}
</style>
<g>
	<path class="st0" d="M116.2,60.6H23.8c-2.1,0-3.8-1.7-3.8-3.8V13.2c0-2.1,1.7-3.8,3.8-3.8h92.4c2.1,0,3.8,1.7,3.8,3.8v43.7
		C120,58.9,118.3,60.6,116.2,60.6z"/>
	<g>
		<path class="st1" d="M95.3,41.4L76.4,60.3c-3.5,3.5-9.3,3.5-12.8,0L44.7,41.4c-3.5-3.5-3.5-9.3,0-12.8L63.6,9.7
			c3.5-3.5,9.3-3.5,12.8,0l18.9,18.9C98.8,32.1,98.8,37.9,95.3,41.4z"/>
	</g>
	<path class="st2" d="M90.4,47.8c-0.1-1-1.8-8.5-2.3-11.4c-0.3-1.9-0.7-3.7-2.1-5.2c-4.4-4.5-9-8.8-14.9-11.2
		c-0.3-0.1-0.7-0.2-1.1-0.3c-0.4,0-0.8,0.1-1.1,0.3c-6,2.4-10.5,6.7-14.9,11.2c-1.4,1.4-1.8,3.3-2.1,5.2c-0.4,2.8-2.1,10.4-2.3,11.4
		c-0.2,1.1,1,2.4,2.3,2.4c2.2,0,4.3,0,6.5,0c1.3,0,2.6-0.2,3.5-1.3c0.3-0.4,7.4-8.4,8.2-9.3c0.8,0.9,7.9,8.9,8.2,9.3
		c0.9,1.1,2.1,1.3,3.5,1.3c2.2,0,4.3,0,6.5,0C89.4,50.2,90.6,49,90.4,47.8z"/>
	<path class="st3" d="M45.5,48.2c-2.1-2.1-5.6-2.1-7.7,0L26.5,59.5c-0.3,0.3-0.6,0.7-0.8,1.1h31.9c-0.2-0.4-0.5-0.7-0.8-1.1
		L45.5,48.2z"/>
	<path class="st3" d="M94.2,22.2c2.1,2.1,5.6,2.1,7.7,0l11.3-11.3c0.4-0.4,0.7-0.9,1-1.4H81.8c0.3,0.5,0.6,1,1,1.4L94.2,22.2z"/>
	<path class="st3" d="M38,22c2.1,2.1,5.6,2.1,7.7,0L57,10.7c0.4-0.4,0.7-0.8,0.9-1.3H25.8c0.2,0.5,0.5,0.9,0.9,1.3L38,22z"/>
	<path class="st3" d="M101.7,47.7c-2.1-2.1-5.6-2.1-7.7,0L82.7,59c-0.5,0.5-0.8,1-1.1,1.6h32.5c-0.3-0.6-0.6-1.1-1.1-1.6L101.7,47.7
		z"/>
</g>
</svg>
