<?xml version="1.0" encoding="utf-8"?>
<!-- Generator: Adobe Illustrator 21.0.0, SVG Export Plug-In . SVG Version: 6.00 Build 0)  -->
<svg version="1.1" id="Layer_1" xmlns="http://www.w3.org/2000/svg" xmlns:xlink="http://www.w3.org/1999/xlink" x="0px" y="0px"
	 viewBox="0 0 140 72" style="enable-background:new 0 0 140 72;" xml:space="preserve">
<style type="text/css">
	.st0{fill:#D9D9D9;}
</style>
<path class="st0" d="M116.2,61.6H23.8c-2.1,0-3.8-1.7-3.8-3.8V14.2c0-2.1,1.7-3.8,3.8-3.8h92.4c2.1,0,3.8,1.7,3.8,3.8v43.7
	C120,59.9,118.3,61.6,116.2,61.6z"/>
<g>
	<path d="M38,42.9V29h-3.6l-0.8,4.6h-1.6l0.4-6h13.9l0.4,6H45L44.1,29h-3.5v13.9l3.1,0.3v1.2h-8.6v-1.2L38,42.9z"/>
	<path d="M48.7,31.6c0.7-1.3,1.6-2.3,2.7-3s2.4-1,3.9-1c1.6,0,2.9,0.3,4,1c1.1,0.7,1.9,1.6,2.4,2.8c0.5,1.2,0.8,2.7,0.8,4.3
		c0,1.7-0.3,3.2-1,4.5c-0.7,1.3-1.6,2.3-2.7,3c-1.2,0.7-2.5,1.1-3.9,1.1c-1.5,0-2.8-0.3-3.9-1s-1.9-1.7-2.4-2.9
		c-0.5-1.2-0.8-2.7-0.8-4.3C47.8,34.4,48.1,32.9,48.7,31.6z M51.1,39.8c0.4,1,0.9,1.9,1.6,2.4c0.7,0.6,1.5,0.9,2.4,0.9
		c0.9,0,1.7-0.3,2.4-0.8c0.7-0.5,1.2-1.3,1.6-2.4c0.4-1.1,0.6-2.4,0.6-4c0-1.4-0.2-2.6-0.5-3.7c-0.4-1-0.9-1.8-1.6-2.4
		s-1.5-0.8-2.4-0.8c-0.9,0-1.7,0.3-2.4,0.8s-1.2,1.3-1.6,2.4c-0.4,1.1-0.6,2.4-0.6,4C50.6,37.5,50.8,38.7,51.1,39.8z"/>
	<path d="M69.7,42.9V29H66l-0.8,4.6h-1.6l0.4-6h13.9l0.4,6h-1.6L75.8,29h-3.5v13.9l3.1,0.3v1.2h-8.6v-1.2L69.7,42.9z"/>
	<path d="M79.7,42.9l5.4-15.2h2.6l5.4,15.2l1.4,0.3v1.2h-6v-1.2l1.8-0.3l-1-3.2h-6.4l-1,3.2l1.9,0.3v1.2h-5.4l0-1.2L79.7,42.9z
		 M88.8,38.3l-2.3-7.1L86,29.4l-0.5,1.8l-2.2,7.1H88.8z"/>
	<path d="M97.1,42.9V29.2l-1.8-0.3v-1.2h6.5v1.2l-2.1,0.3v13.6h5.5l1.3-3.8l1.5,0.3l-0.7,5.1h-12v-1.2L97.1,42.9z"/>
</g>
</svg>
