<?xml version="1.0" encoding="utf-8"?>
<!-- Generator: Adobe Illustrator 21.1.0, SVG Export Plug-In . SVG Version: 6.00 Build 0)  -->
<svg version="1.1" id="Layer_1" xmlns="http://www.w3.org/2000/svg" xmlns:xlink="http://www.w3.org/1999/xlink" x="0px" y="0px"
	 viewBox="0 0 140 72" style="enable-background:new 0 0 140 72;" xml:space="preserve">
<style type="text/css">
	.st0{fill:#5CB473;}
	.st1{fill:#ECC23C;}
	.st2{fill:#29AAE1;}
	.st3{fill:#333333;}
</style>
<path class="st0" d="M116.2,61.7H23.8c-2.1,0-3.8-1.7-3.8-3.8V14.3c0-2.1,1.7-3.8,3.8-3.8h92.4c2.1,0,3.8,1.7,3.8,3.8v43.7
	C120,60,118.3,61.7,116.2,61.7z"/>
<path class="st1" d="M104.4,60c-0.8-1.8-2-3.5-2.4-5.4c-0.4-2.4-0.3-4.9-0.2-7.4c0.1-3.1,0.2-6.2,1.9-9c0.6-1,1.4-2,1.7-3.2
	c0.7-3.4,1.3-6.9-1.3-9.9c-0.7-0.8-1.4-1.7-2.1-2.6c-1.9-2.2-3.3-2.3-5.7-0.6c-1.4,1-3,1.7-4.6,2.5c-0.9,0.4-1.4,0.1-1.8-0.8
	C88.4,20.4,78.7,10,75.6,8.3c-0.7-0.4-1.4-0.5-2.1-0.5v0l0,0c0,0,0,0,0,0l0,0c-0.7,0-1.4,0.2-2.1,0.5C68.2,10,58.5,20.4,57.1,23.5
	c-0.4,0.9-0.9,1.3-1.8,0.8c-1.6-0.8-3.2-1.5-4.6-2.5c-2.5-1.7-3.8-1.6-5.7,0.6c-0.7,0.8-1.4,1.7-2.1,2.6c-2.6,3-1.9,6.5-1.3,9.9
	c0.2,1.1,1,2.1,1.7,3.2c1.7,2.8,1.8,5.9,1.9,9c0.1,2.5,0.2,5-0.2,7.4c-0.4,1.9-1.6,3.6-2.4,5.4c-0.4,0.9-1,1.7-1.2,2.7
	c-0.5,1.7,0.1,2.6,1.8,3c0.7,0.1,1.4,0.2,2.2,0.2c4.6,0,9.2,0,13.7,0c0.4,0,0.9,0,1.3,0c2-0.1,2.7-0.6,3.3-2.5
	c0.2-0.8,1.8-8.9,2.4-12.2c0.3-1.7,1.2-2.5,3.1-2.9c1.5-0.3,2.9-0.6,4.4-0.8c1.5,0.2,2.9,0.5,4.4,0.8c1.8,0.4,2.7,1.2,3.1,2.9
	c0.6,3.3,2.2,11.4,2.4,12.2c0.6,1.8,1.3,2.4,3.3,2.5c0.4,0,0.9,0,1.3,0c4.6,0,9.2,0,13.7,0c0.7,0,1.5,0,2.2-0.2
	c1.7-0.3,2.3-1.3,1.8-3C105.3,61.7,104.8,60.9,104.4,60z"/>
<g>
	<path class="st2" d="M49.6,69.1H31.7c-3.3,0-6-2.7-6-6V45.2c0-3.3,2.7-6,6-6h17.9c3.3,0,6,2.7,6,6v17.9
		C55.7,66.4,53,69.1,49.6,69.1z"/>
	<g>
		<g>
			<g>
				<path class="st3" d="M54.5,54.5l-3.6,3.6v-1l3-3l-3-3v-1l3.6,3.6V54.5z"/>
			</g>
		</g>
		<g>
			<g>
				<path class="st3" d="M27.5,53.7l3.6-3.6v1l-3,3l3,3v1l-3.6-3.6V53.7z"/>
			</g>
		</g>
	</g>
	<g>
		<g>
			<path class="st3" d="M40.6,67.6L36.9,64h1l3,3l3-3h1l-3.6,3.6H40.6z"/>
		</g>
	</g>
	<g>
		<g>
			<path class="st3" d="M41.4,40.6l3.6,3.6h-1l-3-3l-3,3h-1l3.6-3.6H41.4z"/>
		</g>
	</g>
	<g>
		<g>
			<path class="st3" d="M51.9,65.6l-5.1,0l0.7-0.7l4.3,0l0-4.3l0.7-0.7l0,5.1L51.9,65.6z"/>
		</g>
	</g>
	<g>
		<g>
			<path class="st3" d="M30.1,42.6l5.1,0l-0.7,0.7l-4.3,0l0,4.3l-0.7,0.7l0-5.1L30.1,42.6z"/>
		</g>
	</g>
	<g>
		<g>
			<path class="st3" d="M29.5,65l0-5.1l0.7,0.7l0,4.3l4.3,0l0.7,0.7l-5.1,0L29.5,65z"/>
		</g>
	</g>
	<g>
		<g>
			<path class="st3" d="M52.5,43.2l0,5.1l-0.7-0.7l0-4.3l-4.3,0l-0.7-0.7l5.1,0L52.5,43.2z"/>
		</g>
	</g>
</g>
</svg>
