<?xml version="1.0" encoding="utf-8"?>
<!-- Generator: Adobe Illustrator 21.1.0, SVG Export Plug-In . SVG Version: 6.00 Build 0)  -->
<svg version="1.1" id="Layer_1" xmlns="http://www.w3.org/2000/svg" xmlns:xlink="http://www.w3.org/1999/xlink" x="0px" y="0px"
	 viewBox="0 0 128 128" style="enable-background:new 0 0 128 128;" xml:space="preserve">
<style type="text/css">
	.st0{fill:#CBCBCB;}
	.st1{fill:#DF75AB;}
	.st2{fill:#3BB2BF;}
</style>
<circle class="st0" cx="64.8" cy="67.3" r="54.1"/>
<g>
	<path class="st1" d="M64.6,42.5c0.1-0.1,0.2-0.2,0.3-0.4c1.2-0.7,1.8-1.8,2.4-2.9c3.2-6.3,0.9-14.1-5.6-18.7
		c-3.6-2.6-7.2-5.1-10.8-7.7c-1-0.7-1.8-1.3-2.4-1.8c0,0-0.9-1-2.7-1c-1.8,0-2.7,1-2.7,1c-0.7,0.5-1.5,1-2.4,1.8
		c-3.5,2.6-7.2,5.2-10.8,7.7c-6.5,4.6-8.8,12.3-5.6,18.7c0.6,1.1,1.2,2.2,2.4,2.9c0.1,0.1,0.2,0.3,0.3,0.4c0,0.2,0.2,0.3,0.3,0.3
		c1,2.4-2.3,4.3-1,6.7c0.3,0.2,0.6,0.5,1,0.7c0.5,0.7,0.9,1.3,1.4,2c0.5,8.5,0.8,17.1-0.1,25.6c-1.1,10.2-1.9,20.4-3.9,30.4
		c-0.2,0.1-3.6,3.6-0.5,5.8c0.2,0.2,1.2,1.2,5.3,2.4c1.2,0.3,2.3,0.6,3.5,0.9c0,0,3.7,1,12.7,1s12.1-1,12.1-1
		c1.4-0.3,2.8-0.6,4.1-0.9c2.4-0.6,5.1-2.2,5.3-2.4c3.1-2.1-0.3-5.7-0.5-5.8c-2-10.1-2.8-20.2-3.9-30.4c-0.9-8.5-0.6-17.1-0.1-25.6
		c0.5-0.7,0.9-1.3,1.4-2c0.3-0.2,0.6-0.5,1-0.7c1.3-2.4-1.9-4.3-1-6.7C64.5,42.7,64.6,42.6,64.6,42.5z"/>
	<path class="st2" d="M100.6,38.8c0.1-0.1,0.2-0.3,0.3-0.4c1.4-0.8,2.2-2.1,2.8-3.4c3.7-7.4,1-16.5-6.5-21.8c-4.2-3-8.5-6-12.6-9
		c-1.1-0.8-2.1-1.5-2.9-2.1c0,0-1-1.2-3.1-1.2c-2.1,0-3.1,1.2-3.1,1.2c-0.8,0.5-1.7,1.2-2.9,2.1c-4.1,3.1-8.4,6-12.6,9
		c-7.5,5.3-10.3,14.4-6.5,21.8c0.7,1.3,1.4,2.6,2.8,3.4c0.1,0.2,0.2,0.3,0.3,0.4c0.1,0.2,0.2,0.3,0.4,0.4c1.1,2.8-2.7,5-1.1,7.8
		c0.4,0.3,0.7,0.6,1.1,0.8c0.5,0.8,1.1,1.6,1.6,2.3c0.6,10,0.9,19.9-0.1,29.9c-1.2,11.9-2.2,23.8-4.5,35.5c-0.3,0.1-4.2,4.2-0.6,6.7
		c0.3,0.2,1.4,1.4,6.2,2.8c1.4,0.4,2.7,0.7,4.1,1c0,0,4.3,1.2,14.9,1.2s14.1-1.2,14.1-1.2c1.6-0.3,3.2-0.6,4.8-1
		c2.8-0.7,5.9-2.6,6.2-2.8c3.6-2.5-0.3-6.7-0.6-6.7c-2.4-11.7-3.3-23.6-4.5-35.5c-1-9.9-0.7-19.9-0.1-29.9c0.5-0.8,1.1-1.6,1.6-2.3
		c0.4-0.3,0.7-0.6,1.1-0.8c1.5-2.8-2.3-5-1.1-7.8C100.4,39.1,100.5,39,100.6,38.8z"/>
</g>
</svg>
