<?xml version="1.0" encoding="utf-8"?>
<!-- Generator: Adobe Illustrator 21.1.0, SVG Export Plug-In . SVG Version: 6.00 Build 0)  -->
<svg version="1.1" id="Layer_1" xmlns="http://www.w3.org/2000/svg" xmlns:xlink="http://www.w3.org/1999/xlink" x="0px" y="0px"
	 viewBox="0 0 128 128" style="enable-background:new 0 0 128 128;" xml:space="preserve">
<style type="text/css">
	.st0{fill:#CBCBCB;}
	.st1{fill:#911F1C;}
	.st2{display:none;}
	.st3{display:inline;}
	.st4{fill:#EFBBBB;}
	.st5{fill:#FFFFFF;}
	.st6{fill:#882E51;}
	.st7{display:inline;fill:#7B44AA;}
	.st8{display:inline;fill:#92278E;}
</style>
<circle class="st0" cx="64" cy="63.6" r="54.1"/>
<g>
	<path class="st1" d="M59.1,61.5c2.1,1.7,3.8,3,5.5,4.5c0.4,0.3,0.6,1.3,0.4,1.7c-1.3,3.6-1.9,6.8-3.3,10.4c-1.2,3-2.4,6.5-4.1,9.4
		c0.5-0.5,1.1-0.9,1.4-1.4c3.6-5.4,6.5-11.1,8.5-17.3c0.4-1.2,0.8-1.8,2.1-1.7c1.9,0.2,3.8,0.3,6.1,0.4c-0.7,2.4-1.3,4.5-2,6.5
		c-5.4,18.2-22.3,27.9-29.8,29.3c-2.1,0.4-4.2,0.5-6.6,0.3C49.6,92.1,56,77.8,59.1,61.5z"/>
	<path class="st1" d="M90.5,68.6c-4.8-0.8-9.7-1.7-14.5-2.3c-2.8-0.4-5.6-0.2-8.5-0.5c-0.8-0.1-1.6-0.5-2.2-1
		c-5.5-4.6-11-9.3-16.5-14c1.8,0.2,3.8,0.3,5.8,0.6c3.2,0.5,6.3,1.1,9.5,1.7c0.5,0.1,1,0.6,1.3,1c2.8,3.7,5.4,4.5,9.8,2.9
		c0.5-0.2,1.4-0.2,1.8,0.1c4.6,3.6,9.2,7.3,13.8,10.9C90.6,68.3,90.5,68.5,90.5,68.6z"/>
	<path class="st1" d="M71.8,34.1c2.2,2.9,5.1,3.8,8.8,2.5c-0.2,0.6-0.3,1-0.4,1.2c-2.8,5-4.3,10.5-4.8,16.1c-0.1,1.3-0.5,2-1.9,2.4
		c-2.9,0.9-5.5,0.1-7.1-2.5c-0.2-0.4-0.3-1.1-0.1-1.5c2.8-5.7,4.6-11.6,5.1-17.9C71.4,34.5,71.5,34.4,71.8,34.1z"/>
	<path class="st1" d="M81.5,23.5c0.5,1.9,0.9,3.4,1.4,5c0.8,2.4,0.1,4.8-1.9,6.3c-1.8,1.4-4.7,1.5-6.5,0.2c-2.2-1.6-3.2-3.9-2.2-6.3
		c1-2.5,3.1-3.8,5.6-4.6C79,23.7,80.4,23.7,81.5,23.5z"/>
</g>
<g class="st2">
	<g class="st3">
		<polygon class="st4" points="71.6,109.7 54.6,92.7 54.6,68.6 71.6,51.7 95.7,51.7 112.6,68.6 112.6,92.7 95.7,109.7 		"/>
		<path class="st5" d="M99.3,80.7c0-0.6,0-1.1-0.1-1.6l3.3-0.3c-0.1-1.3-0.4-2.6-0.8-3.9c-0.4-1.3-1-2.5-1.6-3.6l-2.8,1.6
			c-0.6-1-1.2-1.8-1.9-2.6l2.4-2.2c-0.9-1-1.9-1.9-2.9-2.7c-1.1-0.8-2.2-1.4-3.4-2l-1.3,3c-1-0.4-2-0.8-3.1-1l0.7-3.2
			c-1.3-0.3-2.6-0.4-3.9-0.4s-2.7,0.1-3.9,0.4l0.7,3.2c-1.1,0.2-2.1,0.6-3.1,1l-1.3-3c-1.2,0.5-2.4,1.2-3.4,2
			c-1.1,0.8-2.1,1.7-2.9,2.7l2.4,2.2c-0.7,0.8-1.4,1.7-1.9,2.6l-2.8-1.6c-0.7,1.1-1.2,2.3-1.6,3.6c-0.4,1.2-0.7,2.5-0.8,3.9L68,79
			C68,79.6,68,80.1,68,80.7s0,1.1,0.1,1.6l-3.3,0.3c0.1,1.3,0.4,2.6,0.8,3.9c0.4,1.3,1,2.5,1.6,3.6l2.8-1.6c0.6,1,1.2,1.8,1.9,2.6
			l-2.4,2.2c0.9,1,1.9,1.9,2.9,2.7c1.1,0.8,2.2,1.4,3.4,2l1.3-3c1,0.4,2,0.8,3.1,1l-0.7,3.2c1.3,0.3,2.6,0.4,3.9,0.4
			s2.7-0.1,3.9-0.4L86.9,96c1.1-0.2,2.1-0.6,3.1-1l1.3,3c1.2-0.5,2.4-1.2,3.4-2c1.1-0.8,2.1-1.7,2.9-2.7l-2.4-2.2
			c0.7-0.8,1.4-1.7,1.9-2.6l2.8,1.6c0.7-1.1,1.2-2.3,1.6-3.6c0.4-1.2,0.7-2.5,0.8-3.9l-3.3-0.3C99.3,81.8,99.3,81.2,99.3,80.7z"/>
		<path class="st6" d="M83.6,93.9c0-6.6-6.7-13.2-13.2-13.2c6.6,0,13.2-6.7,13.2-13.2c0,6.6,6.7,13.2,13.2,13.2
			C90.3,80.7,83.6,87.3,83.6,93.9z"/>
	</g>
	<path class="st7" d="M66.7,68.9c-1.4-2.3-2.9-4.7-4.4-7c-0.6-1-1.2-2.2-1.8-3.2c-1.6-2.8-0.8-4.6,2.4-5.5c2.3-0.6,4.4-1.5,5.9-3.4
		c1.2-1.5,1.2-3.4-0.2-4.7c-1.1-1-2.3-1.8-3.5-2.5c-1.7-0.9-3.6-1.6-5.3-2.5c-1.7-0.9-3.3-1.8-4.8-2.9c-1.3-0.9-1.5-1.9-0.9-3.4
		c0.3-0.8,0.9-1.5,1.4-2.2c1.2-1.9,1.3-4.4,0-6.1c-0.9-1.1-2-2-2.6-3.4c-0.2-0.5-1.1-0.6-1.6-0.9c-0.5-0.3-1.1-0.4-1.5-0.8
		c-2.2-2-4.6-2.9-7.1-2.8c-2.4-0.1-4.9,0.8-7.1,2.8c-0.4,0.4-1,0.5-1.5,0.8c-0.6,0.3-1.4,0.5-1.6,0.9c-0.6,1.3-1.8,2.3-2.6,3.4
		c-1.3,1.7-1.2,4.3,0,6.1c0.5,0.7,1,1.4,1.4,2.2c0.6,1.5,0.4,2.5-0.9,3.4c-1.5,1.1-3.2,2-4.8,2.9c-1.7,0.9-3.6,1.6-5.3,2.5
		c-1.3,0.7-2.5,1.5-3.5,2.5c-1.4,1.3-1.4,3.2-0.2,4.7c1.6,1.9,3.7,2.8,5.9,3.4c3.2,0.8,4,2.7,2.4,5.5c-0.6,1.1-1.2,2.2-1.8,3.2
		c-1.4,2.3-2.9,4.7-4.4,7c-0.6,1-1.2,2.1-1.8,3.2c-0.4,0.9-0.7,1.8-0.2,2.8c0.3,0.1,0.5,0.2,0.8,0.2c4.9,0.2,9.9,0.3,14.8,0.5
		c1.8,0.1,3.1-0.7,4-2.2c1.5-2.4,3-4.8,4.5-7.2c0.2-0.4,0.4-0.8,0.7-1.1c0.4-0.4,0.8-0.8,1.3-0.8c0.5,0,0.9,0.4,1.3,0.8
		c0.3,0.3,0.5,0.7,0.7,1.1c1.5,2.4,3,4.8,4.5,7.2c0.9,1.4,2.2,2.3,4,2.2c4.9-0.2,9.9-0.3,14.8-0.5c0.3,0,0.5-0.1,0.8-0.2
		c0.5-1,0.3-1.9-0.2-2.8C67.9,71,67.4,69.9,66.7,68.9z"/>
</g>
<g class="st2">
	<path class="st8" d="M33.1,109.6c0.1-0.6,0.4-1.1,0.6-1.7c0.3-0.5,0.7-0.9,1.1-1.3c1.6-1.5,3.5-2,5.1-2.5l4.7-1.3
		c6-1.6,11.9-3.6,16.9-6.9c-1.8-1.6-3.4-3.5-4.7-5.6c-1.8-3-2.8-6.4-3-9.9c-0.1-2,0.2-4,0.8-6c-5.8-3.3-12.4-9.3-13.5-20.1
		c-0.4-3.5,0.1-6.7,1-9.6c-17.6,7-27.1,22.1-27.1,36.8c0,15.8,11.9,29.7,19,33.1c-0.3-0.5-0.5-1-0.8-1.6
		C33,112,32.8,110.8,33.1,109.6z"/>
	<path class="st8" d="M86.2,44.9c1,9.1-2.3,19-13.8,27.8c1,2.4,1.5,5.1,1.4,7.7C73.5,86.5,70.4,92,66,96c5.1,3.3,11,5.3,17,6.9
		l4.7,1.3c1.6,0.5,3.5,1,5.1,2.5c0.4,0.4,0.8,0.8,1.1,1.3c0.2,0.5,0.6,1.1,0.6,1.7c0.3,1.2,0,2.3-0.3,3.3c-0.3,0.7-0.6,1.3-0.9,1.9
		c7-3,19.4-17.2,19.4-33.3C112.9,67,103.5,51.9,86.2,44.9z"/>
	<path class="st8" d="M90.6,109.1c-1.7-1.6-5.3-2.1-8.4-3.1c-6.3-1.9-12.8-4.1-18.3-8.1c0,0-0.1-0.1-0.1-0.1c-5.6,4-12,6.2-18.3,8.1
		c-3.1,1-6.7,1.6-8.4,3.1c-0.8,0.8-0.8,1.5-0.5,2.7c0.4,1,1.2,2.1,2,3c4.9-3.2,25.3-2.7,25.3-2.7s19.9-0.4,25.2,2.6
		c0.8-0.9,1.5-1.9,1.9-2.9C91.4,110.6,91.4,109.9,90.6,109.1z"/>
	<path class="st8" d="M70.7,74.9L70.7,74.9l-0.2-0.6c0-0.1,0-0.1-0.1-0.2c0,0,0,0,0,0l-0.1-0.3c0,0,0,0,0,0c0,0,0-0.1-0.1-0.1
		l-0.1-0.2l0,0c-1.3-3.4-3.7-6.5-6.5-8.8c-3.2,2.6-5.7,6.2-6.8,10.1l0,0l-0.1,0.4c0,0,0,0,0,0.1c0,0,0,0,0,0l-0.1,0.2c0,0,0,0,0,0
		c0,0.1,0,0.1,0,0.2L56.5,76l0,0c-0.3,1.4-0.5,2.9-0.4,4.4c0.2,3.1,1.2,6.1,2.8,8.7c1.3,2,2.9,3.8,4.8,5.3c4.3-3.5,7.3-8.5,7.6-14
		C71.5,78.5,71.3,76.6,70.7,74.9z"/>
	<path class="st8" d="M84.7,44.5C83,30.6,71.9,18.7,64,15.2c-0.1,0-0.2-0.1-0.3-0.1c-4.4-1.8-7.2-2.6-8.8-2.7
		c-3.1,0-1.6,2.8-1.6,2.8c7.5,7.9-5.5,15.8-9.6,29.2c-0.9,3-1.4,6.4-1,10.1c1,10.4,6.8,16.4,12.1,19.8c0.4-1.3,0.9-2.6,1.6-3.8
		c1.7-3,4-5.6,6.8-7.7l0.4-0.3l0.9,0.4c2.8,2,5,4.6,6.8,7.6c0.3,0.6,0.6,1.3,0.9,1.9C82.8,63.6,85.8,53.6,84.7,44.5z M67,52.4
		c-1.4,4.5-2.5,7.1-2.7,7c-0.3-0.1,0.3-2.9,1.2-7.4c0.7-4.5,1.8-10.8,1.1-17.6c-0.2-3.4-1.2-6.6-2.3-9.3c-1.2-2.7-2.7-4.9-4.1-6.6
		c-3-3.4-5.6-4.6-5.5-4.8c0.1-0.3,3.1,0.5,6.6,3.8c1.7,1.7,3.5,4,4.8,6.9c1.2,2.9,2.3,6.3,2.6,9.9C69.5,41.5,68.1,47.9,67,52.4z"/>
	<circle class="st8" cx="62.1" cy="75" r="2.8"/>
</g>
</svg>
