<?xml version="1.0" encoding="utf-8"?>
<!-- Generator: Adobe Illustrator 22.1.0, SVG Export Plug-In . SVG Version: 6.00 Build 0)  -->
<svg version="1.1" id="Layer_1" xmlns="http://www.w3.org/2000/svg" xmlns:xlink="http://www.w3.org/1999/xlink" x="0px" y="0px"
	 viewBox="0 0 120 70" style="enable-background:new 0 0 120 70;" xml:space="preserve">
<style type="text/css">
	.st0{fill:#FFFFFF;}
	.st1{fill:#93612D;}
</style>
<path class="st0" d="M106.2,60.6H13.8c-2.1,0-3.8-1.7-3.8-3.8V13.2c0-2.1,1.7-3.8,3.8-3.8h92.4c2.1,0,3.8,1.7,3.8,3.8v43.7
	C110,58.9,108.3,60.6,106.2,60.6z"/>
<path class="st1" d="M114.8,26.1c0,0-2.6-5.3-13.6-3.8c-11,1.5-20.2,4.1-30.9,4.9c-2,0.2-4.5,0.3-7.2,0.5c-2.1,0-4.2-0.3-4.2-0.3
	s-1.1-5-9.2-6v-0.6c0,0,1.7-0.2,1.8-1.3c0.1-1-2.2-1.5-2.2-1.5v-0.7c0,0,2.2-1.7,2.2-3.7s-3.1-4.6-3.1-6.3c0,1.7-3.1,4.3-3.1,6.3
	s2.2,3.7,2.2,3.7v0.7c0,0-2.3,0.4-2.2,1.5c0.1,1,1.8,1.3,1.8,1.3v0.6c-8.1,1-9.2,6-9.2,6c-2.1,0.9-8.2,0.6-8.2,0.6s-0.7-2.8,1.2-7.1
	c0,0-4.3-10.6-23.7-8.2c0,0-0.9,11.1,5.5,16.2c0,0,12.8,4.4,13.9,12.2c0,0-2.1-0.6-2.1,2s1.2,3.2,3,3.2c1.7,0,3.1-1.8,2.6-4.3
	c0,0,6.3,8.2,19.7,8.2H47c0,0-1.1,3.9-6,5.4s-5.7,2-5.1,3.3c0.6,1.4,6.2,3.7,13.6,3.7s13-2.3,13.6-3.7c0.6-1.4-0.2-1.8-5.1-3.3
	s-6-5.4-6-5.4h-0.9C54.9,50,63.7,49,73.1,43C85.4,35.1,94.8,26.1,114.8,26.1z M25.3,32.5c-6.2-5-8.6-3.9-11.2-6.9
	s-1.6-10.2-1.6-10.2c10.8-1.5,15.9,5,15.9,5C25.4,25.8,25.3,32.5,25.3,32.5z"/>
</svg>
