<?xml version="1.0" encoding="utf-8"?>
<!-- Generator: Adobe Illustrator 22.1.0, SVG Export Plug-In . SVG Version: 6.00 Build 0)  -->
<svg version="1.1" id="Layer_1" xmlns="http://www.w3.org/2000/svg" xmlns:xlink="http://www.w3.org/1999/xlink" x="0px" y="0px"
	 viewBox="0 0 140 70" style="enable-background:new 0 0 140 70;" xml:space="preserve">
<style type="text/css">
	.st0{fill:#FFFFFF;}
	.st1{fill:#C6B198;}
	.st2{fill:#736357;}
</style>
<path class="st0" d="M116.2,60.6H23.8c-2.1,0-3.8-1.7-3.8-3.8V13.2c0-2.1,1.7-3.8,3.8-3.8h92.4c2.1,0,3.8,1.7,3.8,3.8v43.7
	C120,58.9,118.3,60.6,116.2,60.6z"/>
<g>
	<path class="st1" d="M95.3,41.4L76.4,60.3c-3.5,3.5-9.3,3.5-12.8,0L44.7,41.4c-3.5-3.5-3.5-9.3,0-12.8L63.6,9.7
		c3.5-3.5,9.3-3.5,12.8,0l18.9,18.9C98.8,32.1,98.8,37.9,95.3,41.4z"/>
</g>
<g>
	<path class="st2" d="M94.9,21.3c0.1,0.3,0,0.6-0.4,1c-0.5,0.5-1,1-1.6,1.3c-0.7,0.3-1.4,0.3-2.1,0.7c-0.9,0.4-1.1,1.7-1,2.5
		c0.2,1.9,1.5,3.2,1.6,5.1c0.3,4.8-1.4,8.6-3.5,12.8c-0.6,1.2-0.6,2.5,0.4,3.5c0.5,0.5,1,0.9,1.6,1.5c-0.2,0.6-0.4,1.4-0.7,2.2
		c-14.5,0-29,0-43.5,0c-1-1.2-0.7-3.9,0.5-5c0.4-0.4,0.9-0.7,1.3-1c1.6-1.1,1.7-2.6,0.3-4c-0.6-0.6-1.1-1.6-1.2-2.4
		c-0.3-2.3,0.6-4.2,2.6-5.5c0.5-0.3,0.8-1,1.1-1.6c0.8-1.7,1.4-3.5,2.5-5c1.7-2.2,3.7-4.3,6.2-5.8c3.4-2,5.8-2,8.8,0.6
		c1.4,1.2,2.7,2.6,3.7,4.2c0.7,1.2,1.1,4.2,2.5,4.6c1.3,0.3,3.8-0.7,4.5-1.8c1.1-1.8,4.1-4,4-6.3c0-0.7,0-1.5,0-2.2
		c0-1.4,0.6-1.9,1.9-2.3c2.4-0.6,4.6-0.1,6.7,1c0.6,0.3,1.3,0.7,1.9,1C94,20.6,94.7,20.9,94.9,21.3z"/>
</g>
</svg>
