<?xml version="1.0" encoding="utf-8"?>
<!-- Generator: Adobe Illustrator 22.1.0, SVG Export Plug-In . SVG Version: 6.00 Build 0)  -->
<svg version="1.1" id="Layer_1" xmlns="http://www.w3.org/2000/svg" xmlns:xlink="http://www.w3.org/1999/xlink" x="0px" y="0px"
	 viewBox="0 0 120 70" style="enable-background:new 0 0 120 70;" xml:space="preserve">
<style type="text/css">
	.st0{fill:#FFFFFF;}
	.st1{fill:#E2EDC6;stroke:#FBFAF7;stroke-width:3;stroke-miterlimit:10;}
	.st2{fill:#CCE09C;stroke:#FBFAF7;stroke-width:3;stroke-miterlimit:10;}
	.st3{fill:#B6D371;stroke:#FBFAF7;stroke-width:3;stroke-miterlimit:10;}
	.st4{fill:#A9C464;stroke:#FBFAF7;stroke-width:3;stroke-miterlimit:10;}
	.st5{fill:#98B15A;stroke:#FBFAF7;stroke-width:3;stroke-miterlimit:10;}
	.st6{enable-background:new    ;}
</style>
<path class="st0" d="M106.2,60.6H13.8c-2.1,0-3.8-1.7-3.8-3.8V13.2c0-2.1,1.7-3.8,3.8-3.8h92.4c2.1,0,3.8,1.7,3.8,3.8v43.7
	C110,58.9,108.3,60.6,106.2,60.6z"/>
<g>
	<path class="st1" d="M71.6,49.3L84,15.4c0.7-2.1,3-3.1,5.1-2.4l20.2,7.3c2.1,0.8,3.2,3,2.4,5.1L99.2,59.3c-0.7,2.1-3,3.1-5.1,2.4
		l-20.2-7.3C71.8,53.7,70.7,51.4,71.6,49.3z"/>
	<path class="st2" d="M59.6,49.1L64,13.3c0.3-2.2,2.3-3.8,4.5-3.5l21.3,2.6c2.2,0.2,3.8,2.2,3.5,4.4l-4.4,35.8
		c-0.3,2.2-2.3,3.8-4.5,3.5l-21.3-2.6C60.9,53.3,59.3,51.3,59.6,49.1z"/>
	<path class="st3" d="M46.6,48.1v-36c0-2.2,1.8-4,4-4h21.5c2.2,0,4,1.8,4,4v36c0,2.2-1.8,4-4,4H50.6C48.4,52.1,46.6,50.3,46.6,48.1z
		"/>
	<path class="st4" d="M36.5,52.7l-9-34.9c-0.5-2.1,0.8-4.3,2.9-4.8l20.7-5.1c2.2-0.5,4.4,0.8,4.9,2.9l9,34.9
		c0.5,2.1-0.8,4.3-2.9,4.8l-20.8,5.2C39.2,56.2,37,54.9,36.5,52.7z"/>
	<path class="st5" d="M25.5,60.5L10.1,27.8c-1-2-0.1-4.4,1.9-5.3l19.5-9c2-0.9,4.4-0.1,5.3,1.9l15.4,32.7c1,2,0.1,4.4-1.9,5.3
		l-19.5,9C28.8,63.3,26.4,62.5,25.5,60.5z"/>
</g>
<g class="st6">
	<path d="M43.5,26.8c-0.2,0-0.4,0.1-0.5,0.1c-0.3,0-0.5-0.1-0.6-0.2c-0.1-0.1-0.2-0.2-0.3-0.4c-0.6-1.2-1.2-2.1-2-2.7
		c-0.8-0.6-1.8-0.8-3.2-0.8c-0.5,0-1,0.1-1.5,0.2c-0.5,0.1-0.9,0.3-1.2,0.6c-0.3,0.3-0.6,0.6-0.8,1c-0.2,0.4-0.3,0.8-0.3,1.3
		c0,1,0.4,1.8,1.3,2.5c0.9,0.6,2.1,1.3,3.8,2c2.1,0.8,3.6,1.7,4.6,2.7c1,1,1.5,2.2,1.5,3.7c0,0.9-0.1,1.7-0.4,2.5
		c-0.3,0.8-0.7,1.4-1.3,2c-0.6,0.6-1.3,1-2.2,1.3c-0.9,0.3-2,0.5-3.3,0.5c-1.3,0-2.6-0.1-3.7-0.4c-1.1-0.3-2-0.6-2.8-1.1
		c-0.1-0.9-0.2-1.8-0.3-2.6s-0.3-1.7-0.5-2.5c0.2-0.1,0.3-0.1,0.6-0.1c0.3,0,0.5,0.1,0.6,0.2c0.1,0.1,0.3,0.3,0.4,0.6
		c0.5,1.6,1.2,2.7,2.1,3.4c0.9,0.7,2.1,1.1,3.6,1.1c0.7,0,1.3-0.1,1.8-0.3c0.5-0.2,1-0.5,1.3-0.8c0.3-0.3,0.6-0.7,0.8-1.2
		c0.2-0.4,0.3-0.9,0.3-1.4c0-1.1-0.4-2-1.2-2.6c-0.8-0.6-1.9-1.2-3.3-1.7c-0.9-0.3-1.8-0.7-2.5-1.1c-0.8-0.4-1.4-0.8-2-1.3
		s-1-1.1-1.3-1.7c-0.3-0.7-0.4-1.4-0.4-2.3c0-0.8,0.1-1.5,0.4-2.2c0.3-0.7,0.7-1.3,1.3-1.8c0.6-0.5,1.2-0.9,2-1.2
		c0.8-0.3,1.7-0.5,2.6-0.5c1,0,2,0.1,2.9,0.3s2,0.5,3.2,1c0,0.6,0.1,1.3,0.2,2.1S43.4,26.1,43.5,26.8z"/>
	<path d="M59.1,39.7c0.2-0.2,0.3-0.2,0.5-0.2c0.2,0,0.4,0.2,0.6,0.5c-0.3,0.4-0.6,0.8-1,1.1c-0.4,0.4-0.8,0.7-1.3,1
		c-0.5,0.3-1.1,0.5-1.7,0.7c-0.7,0.2-1.4,0.3-2.3,0.3c-0.9,0-1.7-0.1-2.5-0.4c-0.8-0.3-1.5-0.7-2.1-1.3c-0.6-0.6-1.1-1.3-1.4-2.2
		c-0.4-0.9-0.5-1.9-0.5-3c0-1.1,0.2-2.1,0.6-3c0.4-0.9,1-1.7,1.6-2.4c0.7-0.7,1.4-1.2,2.2-1.5c0.8-0.4,1.6-0.5,2.4-0.5
		c2,0,3.5,0.6,4.4,1.7c0.9,1.2,1.4,2.7,1.4,4.6c0,0.1-0.1,0.2-0.2,0.2l-9.4,0.4c0,0.8,0.1,1.6,0.4,2.3c0.2,0.7,0.6,1.3,1,1.8
		c0.4,0.5,1,0.9,1.6,1.2s1.3,0.4,2.1,0.4c0.7,0,1.4-0.2,2-0.5C58.1,40.6,58.6,40.2,59.1,39.7z M53.8,29.8c-1.1,0-1.9,0.4-2.5,1.3
		c-0.6,0.8-0.9,1.9-0.9,3.3l6.1-0.3c0.3,0,0.5-0.1,0.5-0.4c0-0.4-0.1-0.8-0.2-1.3c-0.1-0.5-0.3-0.9-0.6-1.2c-0.3-0.4-0.6-0.7-1-0.9
		C54.8,30,54.3,29.8,53.8,29.8z"/>
	<path d="M70.1,40.8c0.1-0.1,0.2-0.2,0.3-0.2c0.1,0,0.1,0,0.2,0c0.2,0,0.4,0.1,0.5,0.4c-0.6,0.6-1.2,1.1-1.8,1.5s-1.3,0.6-2.1,0.6
		c-0.4,0-0.8,0-1.2-0.1c-0.4-0.1-0.7-0.3-1-0.6c-0.3-0.3-0.5-0.7-0.7-1.1c-0.2-0.5-0.2-1.1-0.2-1.9v-8.9h-2v-0.4
		c0-0.2,0-0.3,0.1-0.4c0.1-0.1,0.2-0.2,0.3-0.2c0.6,0,1.1-0.2,1.4-0.5c0.4-0.3,0.7-0.7,0.9-1.2c0.3-0.5,0.5-1,0.7-1.5
		c0.2-0.5,0.4-0.7,0.7-0.7h0.6v3.4h3.8c0,0.5,0,0.8-0.1,1c-0.1,0.2-0.3,0.3-0.5,0.3h-3.1v8c0,0.7,0,1.2,0.1,1.7
		c0.1,0.4,0.2,0.7,0.3,1c0.1,0.2,0.3,0.4,0.5,0.4c0.2,0.1,0.4,0.1,0.6,0.1c0.4,0,0.7-0.1,1-0.2S69.8,41,70.1,40.8z"/>
	<path d="M80.6,37c1.2-0.6,2.1-1.1,2.9-1.5c0.7-0.4,1.3-0.8,1.7-1.2c0.4-0.4,0.7-0.8,0.9-1.2c0.2-0.4,0.2-0.8,0.2-1.3
		c0-0.6-0.2-1.2-0.5-1.7c-0.4-0.5-1-0.7-1.9-0.7c-0.7,0-1.3,0.1-1.8,0.4c-0.6,0.2-1.2,0.6-1.9,1.1c0,0-0.1,0.1-0.2,0.1
		S79.9,31,79.8,31c-0.3,0-0.5-0.1-0.7-0.4c1-1.1,2-1.9,3-2.5s2-0.8,3.1-0.8c1.3,0,2.3,0.3,3.1,0.8c0.8,0.6,1.1,1.4,1.1,2.6
		c0,0.6-0.1,1.1-0.3,1.5c-0.2,0.4-0.4,0.8-0.8,1.2s-0.7,0.7-1.1,1c-0.4,0.3-0.9,0.6-1.4,1v0.1c1.4,0.3,2.5,0.9,3.3,1.7
		c0.7,0.8,1.1,1.8,1.1,2.9c0,0.9-0.2,1.8-0.7,2.7s-1.2,1.7-2.2,2.5s-2.1,1.5-3.5,2.1c-1.4,0.6-3,1.1-4.8,1.4
		c-0.2-0.2-0.3-0.4-0.3-0.6c0-0.2,0.1-0.3,0.3-0.4c1.6-0.5,2.8-1,3.8-1.6c1-0.5,1.8-1.1,2.4-1.7c0.6-0.6,1-1.2,1.2-1.8
		c0.2-0.6,0.3-1.2,0.3-1.9c0-1-0.3-1.8-0.8-2.4c-0.6-0.6-1.3-0.9-2.3-0.9c-0.4,0-0.9,0-1.3,0.1c-0.5,0.1-1,0.3-1.5,0.5V37z"/>
</g>
</svg>
