<?xml version="1.0" encoding="utf-8"?>
<!-- Generator: Adobe Illustrator 22.1.0, SVG Export Plug-In . SVG Version: 6.00 Build 0)  -->
<svg version="1.1" id="Layer_1" xmlns="http://www.w3.org/2000/svg" xmlns:xlink="http://www.w3.org/1999/xlink" x="0px" y="0px"
	 viewBox="0 0 120 70" style="enable-background:new 0 0 120 70;" xml:space="preserve">
<style type="text/css">
	.st0{fill:#FFFFFF;}
	.st1{fill:#AD9E34;}
</style>
<path class="st0" d="M106.2,60.6H13.8c-2.1,0-3.8-1.7-3.8-3.8V13.2c0-2.1,1.7-3.8,3.8-3.8h92.4c2.1,0,3.8,1.7,3.8,3.8v43.7
	C110,58.9,108.3,60.6,106.2,60.6z"/>
<path class="st1" d="M88.3,51.3C88.2,50,86,40.3,85.4,36.7c-0.4-2.5-0.9-4.8-2.8-6.7c-5.7-5.8-11.6-11.3-19.3-14.4
	c-0.4-0.2-0.9-0.3-1.4-0.3c-0.5,0-1,0.2-1.4,0.3c-7.7,3.1-13.6,8.6-19.3,14.4c-1.8,1.9-2.4,4.2-2.8,6.7c-0.6,3.6-2.8,13.3-2.9,14.6
	c-0.2,1.5,1.2,3,2.9,3.1c2.8,0.1,5.6,0,8.4,0c1.7,0,3.3-0.3,4.5-1.7c0.4-0.5,9.5-10.8,10.6-11.9c1.1,1.1,10.2,11.4,10.6,11.9
	c1.1,1.4,2.8,1.7,4.5,1.7c2.8,0,5.6,0.1,8.4,0C87.1,54.3,88.6,52.8,88.3,51.3z"/>
</svg>
