<?xml version="1.0" encoding="utf-8"?>
<!-- Generator: Adobe Illustrator 22.1.0, SVG Export Plug-In . SVG Version: 6.00 Build 0)  -->
<svg version="1.1" id="Layer_1" xmlns="http://www.w3.org/2000/svg" xmlns:xlink="http://www.w3.org/1999/xlink" x="0px" y="0px"
	 viewBox="0 0 120 70" style="enable-background:new 0 0 120 70;" xml:space="preserve">
<style type="text/css">
	.st0{fill:#FFFFFF;}
	.st1{fill:#989898;}
	.st2{fill:#D8A235;}
</style>
<path class="st0" d="M106.2,60.6H13.8c-2.1,0-3.8-1.7-3.8-3.8V13.2c0-2.1,1.7-3.8,3.8-3.8h92.4c2.1,0,3.8,1.7,3.8,3.8v43.7
	C110,58.9,108.3,60.6,106.2,60.6z"/>
<g>
	<path class="st1" d="M34.8,45.3c-0.7,2.6-6.7-0.9-4.8-2.8c-1.9,1.9-5.4-4.1-2.8-4.8c-2.6,0.7-2.6-6.2,0-5.5
		c-2.6-0.7,0.9-6.7,2.8-4.8c-1.9-1.9,4.1-5.3,4.8-2.8c-0.7-2.6,6.3-2.6,5.6,0c0.7-2.6,6.7,0.9,4.8,2.8c1.9-1.9,5.4,4.1,2.8,4.8
		c2.6-0.7,2.6,6.2,0,5.5c2.6,0.7-0.9,6.7-2.8,4.8c1.9,1.9-4.1,5.3-4.8,2.8C41.1,47.9,34.1,47.9,34.8,45.3z"/>
	<path class="st1" d="M79.6,45.3c-0.7,2.6-6.7-0.9-4.8-2.8c-1.9,1.9-5.4-4.1-2.8-4.8c-2.6,0.7-2.6-6.2,0-5.5
		c-2.6-0.7,0.9-6.7,2.8-4.8c-1.9-1.9,4.1-5.3,4.8-2.8c-0.7-2.6,6.3-2.6,5.6,0c0.7-2.6,6.7,0.9,4.8,2.8c1.9-1.9,5.4,4.1,2.8,4.8
		c2.6-0.7,2.6,6.2,0,5.5c2.6,0.7-0.9,6.7-2.8,4.8c1.9,1.9-4.1,5.3-4.8,2.8C85.9,47.9,78.9,47.9,79.6,45.3z"/>
	<path class="st2" d="M55.3,49.3c-1,3.5-9.3-1.2-6.7-3.8c-2.6,2.6-7.5-5.7-3.9-6.7c-3.6,0.9-3.6-8.6,0-7.7c-3.6-0.9,1.3-9.2,3.9-6.7
		c-2.6-2.6,5.8-7.4,6.7-3.8c-1-3.5,8.7-3.5,7.8,0c1-3.5,9.3,1.2,6.7,3.8c2.6-2.6,7.5,5.7,3.9,6.7c3.6-0.9,3.6,8.6,0,7.7
		c3.6,0.9-1.3,9.2-3.9,6.7c2.6,2.6-5.8,7.4-6.7,3.8C64,52.9,54.4,52.9,55.3,49.3z"/>
</g>
</svg>
