<?xml version="1.0" encoding="utf-8"?>
<!-- Generator: Adobe Illustrator 22.1.0, SVG Export Plug-In . SVG Version: 6.00 Build 0)  -->
<svg version="1.1" id="Layer_1" xmlns="http://www.w3.org/2000/svg" xmlns:xlink="http://www.w3.org/1999/xlink" x="0px" y="0px"
	 viewBox="0 0 120 70" style="enable-background:new 0 0 120 70;" xml:space="preserve">
<style type="text/css">
	.st0{fill:#FFFFFF;}
	.st1{fill:#D73D1C;}
</style>
<path class="st0" d="M106.2,60.6H13.8c-2.1,0-3.8-1.7-3.8-3.8V13.2c0-2.1,1.7-3.8,3.8-3.8h92.4c2.1,0,3.8,1.7,3.8,3.8v43.7
	C110,58.9,108.3,60.6,106.2,60.6z"/>
<g>
	<path class="st1" d="M54,33.4c1.7,0.5,3.1,0.9,4.5,1.4c0.3,0.1,0.7,0.6,0.7,1c0.1,2.5,0.5,4.6,0.6,7.1c0,2.1,0.1,4.5-0.2,6.7
		c0.2-0.4,0.5-0.8,0.5-1.2c0.8-4.2,1.2-8.4,0.9-12.6c-0.1-0.8,0-1.3,0.9-1.6c1.2-0.4,2.4-0.8,3.8-1.3c0.1,1.6,0.3,3,0.4,4.4
		c1.2,12.4-6.7,22.5-11,25.2c-1.2,0.8-2.5,1.4-4,1.9C55.8,54.3,56.2,44,54,33.4z"/>
	<path class="st1" d="M75,29.8c-3.2,0.7-6.3,1.4-9.5,2.3c-1.8,0.5-3.5,1.3-5.3,1.8c-0.5,0.2-1.1,0.1-1.6,0
		c-4.5-1.4-9.1-2.9-13.6-4.3c1.1-0.3,2.4-0.8,3.7-1.1c2.1-0.5,4.1-0.9,6.2-1.3c0.3-0.1,0.7,0.1,1.1,0.3c2.6,1.6,4.4,1.4,6.7-0.7
		c0.3-0.2,0.8-0.5,1.1-0.4c3.7,1,7.4,2.1,11.2,3.2C75,29.6,75,29.7,75,29.8z"/>
	<path class="st1" d="M55,13.6c2.1,1.2,4,1,6-0.7c0,0.4,0.1,0.6,0,0.9c-0.5,3.8,0,7.4,1,11c0.2,0.8,0.2,1.3-0.5,1.9
		c-1.6,1.2-3.3,1.4-5,0.3c-0.2-0.2-0.4-0.6-0.4-0.9c0.3-4.1,0-8.2-1.3-12.1C54.8,13.9,54.9,13.8,55,13.6z"/>
	<path class="st1" d="M58.3,4.7c0.8,1,1.4,1.9,2.1,2.7c1.1,1.2,1.2,2.9,0.4,4.3c-0.8,1.3-2.5,2.1-3.9,1.8c-1.8-0.4-2.9-1.6-2.9-3.3
		c0-1.7,1-3.1,2.3-4.2C56.8,5.5,57.6,5.1,58.3,4.7z"/>
</g>
</svg>
