<?xml version="1.0" encoding="utf-8"?>
<!-- Generator: Adobe Illustrator 22.1.0, SVG Export Plug-In . SVG Version: 6.00 Build 0)  -->
<svg version="1.1" id="Layer_1" xmlns="http://www.w3.org/2000/svg" xmlns:xlink="http://www.w3.org/1999/xlink" x="0px" y="0px"
	 viewBox="0 0 120 70" style="enable-background:new 0 0 120 70;" xml:space="preserve">
<style type="text/css">
	.st0{fill:#FFFFFF;}
	.st1{fill:#D3B07F;}
</style>
<path class="st0" d="M106.2,60.6H13.8c-2.1,0-3.8-1.7-3.8-3.8V13.2c0-2.1,1.7-3.8,3.8-3.8h92.4c2.1,0,3.8,1.7,3.8,3.8v43.7
	C110,58.9,108.3,60.6,106.2,60.6z"/>
<path class="st1" d="M81.5,62c-1.8,0.1-3.6,0.3-5.3,0.4c-4.4,0.2-8.8,0.3-13.2,0.4C58.3,62.9,53.6,63,49,63c-0.9,0-1.8-0.1-2.7-0.3
	c-1-0.2-1.1-0.7-0.4-1.4c2.2-2.1,4.7-3.7,7.5-4.8c0.9-0.3,1.9-0.5,2.8-0.9c0.9-0.5,1.7-1.1,2.5-1.7c0.6-0.5,1.2-1.1,1.8-1.4
	c1.2-0.5,1.8-1.4,2-2.6c0.3-2.1,0.7-4.3,1-6.4c0.4-2.2-0.6-3.2-2.8-3.2c-0.4,0-0.8,0.1-1.1,0.1c-1.6,0.2-3-0.1-4.1-1.2
	c-1.1-1.1-2.5-1.5-4-1.6c-1.2,0-2.3,0.1-3.5,0.1c-2.4,0-3.4-0.6-3.6-2.8c-0.2-1.3-0.4-2.5-0.4-3.8c-0.1-1.7-0.3-2-2-2.2
	c-1.1-0.1-2.3-0.1-3.4-0.3c-1.5-0.2-1.7-0.9-0.8-2.1c2.3-3.1,5-5.6,8.6-7.2c0.2-0.1,0.4-0.2,0.6-0.3c2-0.7,3.1-2,3.2-4.3
	c0.1-1.1,0.7-2.4,1.5-3.3c0.9-1.2,2-2.2,3.2-3.1c1-0.8,1.7-0.5,2.3,0.6c0.6,1,1.3,2,1.9,3c1.2,2,3.1,2.5,5.1,1.2
	c2.2-1.5,4.6-2.4,7.2-2.9c0.3-0.1,0.7-0.1,1-0.1c1.9-0.1,2.1,0.1,1.9,1.9c-0.1,1,0.4,1.6,1.3,1.9c1.8,0.6,3.6,1.3,5.4,2
	c0.3,0.1,0.5,0.3,0.7,0.4c0.6,0.5,0.5,1.3-0.3,1.6c-0.7,0.2-1.3,0.4-2,0.6c-1.6,0.6-1.8,2-0.5,3.1c1.2,1.1,2.5,2.1,3.6,3.3
	c0.8,0.8,1.4,1.9,1.9,2.9c0.6,1.3,0.1,2-1.3,2.1c-1,0.1-2,0.1-2.9,0.3c-1.2,0.2-1.6,0.6-1.5,1.8c0.3,3.5-0.4,3.1-3,3.2
	c-0.8,0-1.7,0.2-2.5,0.3c-0.7,0.1-1.1,0.5-1.2,1.2c0,0.7,0,1.4,0.1,2.1c0.3,3.6,0.6,7.3,0.9,10.9c0.2,1.7,1.1,3.1,2.2,4.5
	c1.5,1.9,3.4,3.5,5.4,5C81.6,60.1,81.7,60.5,81.5,62z"/>
</svg>
