<?xml version="1.0" encoding="utf-8"?>
<!-- Generator: Adobe Illustrator 22.1.0, SVG Export Plug-In . SVG Version: 6.00 Build 0)  -->
<svg version="1.1" id="Layer_1" xmlns="http://www.w3.org/2000/svg" xmlns:xlink="http://www.w3.org/1999/xlink" x="0px" y="0px"
	 viewBox="0 0 140 70" style="enable-background:new 0 0 140 70;" xml:space="preserve">
<style type="text/css">
	.st0{fill:#FFFFFF;stroke:#000000;stroke-miterlimit:10;}
	.st1{fill:#EDCF1C;}
	.st2{fill:#FCD206;}
	.st3{fill:#AA8A04;}
	.st4{fill:#ECC23C;}
	.st5{fill:#FFFFFF;}
</style>
<path class="st0" d="M116.2,60.6H23.8c-2.1,0-3.8-1.7-3.8-3.8V13.2c0-2.1,1.7-3.8,3.8-3.8h92.4c2.1,0,3.8,1.7,3.8,3.8v43.7
	C120,58.9,118.3,60.6,116.2,60.6z"/>
<path class="st1" d="M111.3,49.6c-0.9-1.5-1.9-3.1-2.9-4.6c-0.4-0.7-0.8-1.5-1.2-2.1c-1.1-1.9-0.5-3,1.6-3.6c1.5-0.4,2.9-1,3.9-2.2
	c0.8-1,0.8-2.2-0.1-3.1c-0.7-0.7-1.5-1.2-2.3-1.7c-1.1-0.6-2.4-1.1-3.5-1.7s-2.2-1.2-3.2-1.9c-0.9-0.6-1-1.3-0.6-2.2
	c0.2-0.5,0.6-1,0.9-1.5c0.8-1.3,0.9-2.9,0-4c-0.4-0.5-0.9-0.9-1.3-1.5c0-0.1,0-0.2,0-0.3c0-1.1-0.9-2-2-2c-0.3,0-0.5,0.1-0.7,0.1
	c-0.3-0.9-1.1-1.5-2-1.5c-0.3,0-0.7,0.1-1,0.3c-0.3-0.5-0.9-0.9-1.7-0.9c-0.7,0-1.3,0.4-1.7,0.9c-0.3-0.1-0.7-0.3-1-0.3
	c-0.9,0-1.7,0.6-1.9,1.5c-0.2-0.1-0.5-0.1-0.7-0.1c-1.1,0-2,0.9-2,2c0,0.1,0,0.2,0,0.3c-0.4,0.5-0.8,0.9-1.2,1.4
	c-0.9,1.1-0.8,2.8,0,4c0.3,0.5,0.7,0.9,0.9,1.5c0.4,1,0.3,1.7-0.6,2.2c-1,0.7-2.1,1.3-3.2,1.9c-1.1,0.6-2.4,1.1-3.5,1.7
	c-0.9,0.5-1.7,1-2.3,1.7C77.2,34.7,77.2,36,78,37c1.1,1.3,2.4,1.9,3.9,2.2c2.1,0.5,2.6,1.8,1.6,3.6c-0.4,0.7-0.8,1.5-1.2,2.1
	c-0.9,1.5-1.9,3.1-2.9,4.6c-0.4,0.7-0.8,1.4-1.2,2.1c-0.3,0.6-0.5,1.2-0.1,1.9c0.2,0.1,0.3,0.1,0.5,0.1c3.2,0.1,6.5,0.2,9.8,0.3
	c1.2,0.1,2-0.5,2.6-1.5c1-1.6,2-3.2,3-4.8c0.1-0.3,0.3-0.5,0.5-0.7c0.3-0.3,0.5-0.5,0.9-0.5s0.6,0.3,0.9,0.5
	c0.2,0.2,0.3,0.5,0.5,0.7c1,1.6,2,3.2,3,4.8c0.6,0.9,1.5,1.5,2.6,1.5c3.2-0.1,6.5-0.2,9.8-0.3c0.2,0,0.3-0.1,0.5-0.1
	c0.3-0.7,0.2-1.3-0.1-1.9C112.1,51,111.7,50.3,111.3,49.6z"/>
<g>
	<g>
		<path class="st2" d="M42.4,63.7c-1.2,0-2-1.3-2.5-4.2c-0.3-1.8-1.1-3-1.8-3c-0.7,0-1.6,0.8-2.5,2.1c-1.8,2.7-2.7,3-3.4,3
			c-0.4,0-0.9-0.2-1.1-0.5c-0.4-0.5-0.8-1.4-0.2-4.4c0.4-2.1,0-2.9-0.2-3.2c-0.1-0.1-0.3-0.3-0.8-0.3c-0.7,0-1.6,0.4-2.6,1.1
			c-1.6,1.1-2.8,1.6-3.6,1.6c0,0,0,0,0,0c-0.6,0-1.1-0.3-1.4-0.8c-0.5-0.9,0-2.3,1.4-4.4c0.9-1.4,1.3-2.6,0.9-3.2
			c-0.3-0.6-1.3-0.7-1.8-0.7c-0.5,0-1,0.1-1.6,0.2c-1,0.2-1.9,0.3-2.6,0.3c-1.3,0-2.1-0.4-2.3-1.2c-0.3-1.1,0.6-2.3,2.9-3.8
			c1.7-1.1,2.2-2.1,2.1-2.7c-0.1-0.6-0.9-1.3-2.9-1.7c-2.9-0.6-4.2-1.3-4.2-2.5c0-1.2,1.3-2,4.2-2.5c2-0.4,2.8-1.1,2.9-1.7
			c0.1-0.6-0.4-1.5-2.1-2.7c-2.4-1.6-3.3-2.7-2.9-3.8c0.2-0.8,1-1.2,2.3-1.2c0.7,0,1.5,0.1,2.6,0.3c0.6,0.1,1.1,0.2,1.6,0.2
			c0.5,0,1.5-0.1,1.8-0.7c0.3-0.6,0-1.8-0.9-3.2c-1.5-2.1-1.9-3.5-1.4-4.4c0.3-0.5,0.8-0.8,1.4-0.8c0.8,0,2,0.5,3.6,1.6
			c1,0.7,1.9,1.1,2.6,1.1c0.5,0,0.7-0.2,0.8-0.3c0.2-0.3,0.6-1.1,0.2-3.2c-0.6-3-0.2-3.9,0.2-4.4c0.3-0.4,0.7-0.5,1.1-0.5
			c0.7,0,1.6,0.3,3.4,3c0.9,1.3,1.8,2.1,2.5,2.1h0c0.8,0,1.5-1.1,1.8-3c0.6-2.9,1.3-4.2,2.5-4.2c1.2,0,2,1.3,2.5,4.2
			c0.3,1.8,1.1,3,1.8,3c0.7,0,1.6-0.8,2.5-2.1c1.8-2.7,2.7-3,3.4-3c0.4,0,0.9,0.2,1.1,0.5c0.4,0.5,0.8,1.4,0.2,4.4
			c-0.4,2.1,0,2.9,0.2,3.2c0.1,0.1,0.3,0.3,0.8,0.3c0.7,0,1.6-0.4,2.6-1.1c1.6-1.1,2.8-1.6,3.6-1.6c0.6,0,1.1,0.3,1.4,0.8
			c0.5,0.9,0,2.3-1.4,4.4c-0.9,1.4-1.3,2.6-0.9,3.2c0.3,0.6,1.3,0.7,1.8,0.7c0.5,0,1-0.1,1.6-0.2c1-0.2,1.9-0.3,2.6-0.3
			c1.3,0,2.1,0.4,2.3,1.2c0.3,1.1-0.6,2.3-2.9,3.8c-1.7,1.1-2.2,2.1-2.1,2.7c0.1,0.6,0.9,1.3,2.9,1.7c2.9,0.6,4.2,1.3,4.2,2.5
			c0,1.2-1.3,2-4.2,2.5c-2,0.4-2.8,1.1-2.9,1.7c-0.1,0.6,0.4,1.5,2.1,2.7c2.4,1.6,3.3,2.7,2.9,3.8c-0.2,0.8-1,1.2-2.3,1.2
			c-0.7,0-1.5-0.1-2.6-0.3c-0.6-0.1-1.1-0.2-1.6-0.2c-0.5,0-1.5,0.1-1.8,0.7c-0.3,0.6,0,1.8,0.9,3.2c1.5,2.1,1.9,3.5,1.4,4.4
			c-0.3,0.5-0.8,0.8-1.4,0.8c-0.8,0-2-0.5-3.6-1.6c-1-0.7-1.9-1.1-2.6-1.1c-0.5,0-0.7,0.2-0.8,0.3c-0.2,0.3-0.6,1.1-0.2,3.2
			c0.6,3,0.2,3.9-0.2,4.4c-0.3,0.4-0.7,0.5-1.1,0.5h0c-0.7,0-1.6-0.3-3.4-3c-0.9-1.3-1.8-2.1-2.5-2.1c-0.8,0-1.5,1.1-1.8,3
			C44.4,62.4,43.6,63.7,42.4,63.7z"/>
		<g>
			<path class="st3" d="M42.4,8.1c0.6,0,1.1,1.1,1.6,3.4c0.5,2.5,1.5,3.8,2.8,3.8c1,0,2.2-0.8,3.3-2.5c1.1-1.7,2-2.6,2.6-2.6
				c0.7,0,0.8,1.3,0.3,3.8c-0.6,3,0.2,4.7,2,4.7c0.9,0,1.9-0.4,3.2-1.2c1.4-1,2.5-1.4,3-1.4c1,0,0.8,1.3-0.8,3.6
				c-2.2,3.2-1.4,5.4,1.7,5.4c0.5,0,1.1-0.1,1.8-0.2c1-0.2,1.8-0.3,2.4-0.3c2.1,0,1.8,1.2-1.2,3.2c-3.8,2.5-3.3,5.3,1.2,6.1
				c4.5,0.9,4.5,2.3,0,3.1c-4.5,0.9-5.1,3.6-1.2,6.1c3,2,3.3,3.2,1.2,3.2c-0.6,0-1.4-0.1-2.4-0.3c-0.7-0.1-1.3-0.2-1.8-0.2
				c-3.1,0-3.9,2.2-1.7,5.4c1.6,2.4,1.8,3.6,0.8,3.6c-0.6,0-1.6-0.5-3-1.4c-1.2-0.8-2.3-1.2-3.2-1.2c-1.8,0-2.6,1.7-2,4.7
				c0.5,2.5,0.3,3.8-0.3,3.8c-0.5,0-1.4-0.8-2.6-2.6c-1.1-1.7-2.3-2.5-3.3-2.5c-1.3,0-2.3,1.3-2.8,3.8c-0.4,2.3-1,3.4-1.6,3.4
				s-1.1-1.1-1.6-3.4c-0.5-2.5-1.5-3.8-2.8-3.8c-1,0-2.2,0.8-3.3,2.5c-1.1,1.7-2,2.6-2.6,2.6c-0.7,0-0.8-1.3-0.3-3.8
				c0.6-3-0.2-4.7-2-4.7c-0.9,0-1.9,0.4-3.2,1.2c-1.4,1-2.5,1.4-3,1.4c-1,0-0.8-1.3,0.8-3.6c2.2-3.2,1.4-5.4-1.7-5.4
				c-0.5,0-1.1,0.1-1.8,0.2c-1,0.2-1.8,0.3-2.4,0.3c-2.1,0-1.8-1.2,1.2-3.2c3.8-2.5,3.3-5.3-1.2-6.1c-4.5-0.9-4.5-2.3,0-3.1
				c4.5-0.9,5.1-3.6,1.2-6.1c-3-2-3.3-3.2-1.2-3.2c0.6,0,1.4,0.1,2.4,0.3c0.7,0.1,1.3,0.2,1.8,0.2c3.1,0,3.9-2.2,1.7-5.4
				c-1.6-2.4-1.8-3.6-0.8-3.6c0.6,0,1.6,0.5,3,1.4c1.2,0.8,2.3,1.2,3.2,1.2c1.8,0,2.6-1.7,2-4.7c-0.5-2.5-0.3-3.8,0.3-3.8
				c0.5,0,1.4,0.8,2.6,2.6c1.1,1.7,2.3,2.5,3.3,2.5c1.3,0,2.3-1.3,2.8-3.8C41.3,9.2,41.9,8.1,42.4,8.1 M42.4,6.1
				c-2.6,0-3.2,3.5-3.5,5c-0.3,1.4-0.7,2-0.9,2.1c-0.2,0-0.8-0.4-1.6-1.6c-1.6-2.4-2.9-3.5-4.2-3.5c-0.7,0-1.4,0.3-1.9,0.9
				c-0.8,1-0.9,2.6-0.4,5.2c0.3,1.4,0.1,2.1,0,2.3c0,0,0,0-0.1,0c-0.2,0-0.8-0.1-2.1-0.9c-2.3-1.6-3.5-1.8-4.2-1.8
				c-1,0-1.9,0.5-2.3,1.3c-0.7,1.3-0.2,2.9,1.5,5.4c0.8,1.2,0.9,1.9,0.9,2.1c-0.1,0-0.3,0.2-0.9,0.2c-0.4,0-0.9-0.1-1.4-0.2
				c-1.1-0.2-2-0.3-2.8-0.3c-2.3,0-3.1,1.2-3.3,1.9c-0.6,2,1.4,3.6,3.4,4.9c1.2,0.8,1.6,1.4,1.6,1.6c-0.1,0.2-0.7,0.6-2.1,0.9
				c-1.5,0.3-5,1-5,3.5s3.5,3.2,5,3.5c1.4,0.3,2,0.7,2.1,0.9c-0.1,0.2-0.4,0.8-1.6,1.6c-2,1.3-4,2.9-3.4,4.9
				c0.2,0.7,0.9,1.9,3.3,1.9c0.8,0,1.7-0.1,2.8-0.3c0.5-0.1,1-0.2,1.4-0.2c0.6,0,0.8,0.1,0.9,0.2c0,0.2-0.1,0.9-0.9,2.1
				c-1.7,2.5-2.2,4.2-1.5,5.4c0.4,0.8,1.3,1.3,2.3,1.3c0.7,0,1.8-0.2,4.2-1.8c1.2-0.8,1.9-0.9,2.1-0.9c0,0,0.1,0,0.1,0
				c0.1,0.2,0.3,0.9,0,2.3c-0.6,2.7-0.4,4.2,0.4,5.2c0.5,0.6,1.2,0.9,1.9,0.9c1.4,0,2.6-1,4.2-3.5c0.8-1.2,1.4-1.6,1.6-1.6
				c0.2,0.1,0.6,0.7,0.9,2.1c0.3,1.5,1,5,3.5,5s3.2-3.5,3.5-5c0.3-1.4,0.7-2,0.9-2.1c0.2,0,0.8,0.4,1.6,1.6c1.6,2.4,2.9,3.5,4.2,3.5
				c0.7,0,1.4-0.3,1.9-0.9c0.8-1,0.9-2.6,0.4-5.2c-0.3-1.4-0.1-2.1,0-2.3c0,0,0,0,0.1,0c0.2,0,0.8,0.1,2.1,0.9
				c2.3,1.6,3.5,1.8,4.2,1.8c1,0,1.9-0.5,2.3-1.3c0.7-1.3,0.2-2.9-1.5-5.4c-0.8-1.2-0.9-1.9-0.9-2.1c0.1,0,0.3-0.2,0.9-0.2
				c0.4,0,0.9,0.1,1.4,0.2c1.1,0.2,2,0.3,2.8,0.3c2.3,0,3.1-1.2,3.3-1.9c0.6-2-1.4-3.6-3.4-4.9c-1.2-0.8-1.6-1.4-1.6-1.6
				c0.1-0.2,0.7-0.6,2.1-0.9c1.5-0.3,5-1,5-3.5s-3.5-3.2-5-3.5c-1.4-0.3-2-0.7-2.1-0.9c0.1-0.2,0.4-0.8,1.6-1.6c2-1.3,4-2.9,3.4-4.9
				c-0.2-0.7-0.9-1.9-3.3-1.9c-0.8,0-1.7,0.1-2.8,0.3c-0.5,0.1-1,0.2-1.4,0.2c-0.6,0-0.8-0.1-0.9-0.2c0-0.2,0.1-0.9,0.9-2.1
				c1.7-2.5,2.2-4.2,1.5-5.4c-0.4-0.8-1.3-1.3-2.3-1.3c-0.7,0-1.8,0.2-4.2,1.8c-1.2,0.8-1.9,0.9-2.1,0.9c0,0-0.1,0-0.1,0
				c-0.1-0.2-0.3-0.9,0-2.3c0.6-2.7,0.4-4.2-0.4-5.2c-0.5-0.6-1.2-0.9-1.9-0.9c-1.4,0-2.6,1-4.2,3.5c-0.8,1.2-1.4,1.6-1.6,1.6
				c-0.2-0.1-0.6-0.7-0.9-2.1C45.7,9.6,45,6.1,42.4,6.1L42.4,6.1z"/>
		</g>
	</g>
	<g>
		<path class="st4" d="M42.4,61.3c-0.2-0.4-0.4-1-0.6-2.1C41,55,38.9,54.6,38,54.6c-1,0-2.5,0.5-4.2,3c-0.6,0.9-1.1,1.5-1.4,1.7
			c0-0.4,0.1-1.1,0.3-2.2c0.4-2.1,0.2-3.8-0.6-4.8c-0.6-0.7-1.4-1.1-2.4-1.1c-1.1,0-2.4,0.5-3.7,1.4c-0.9,0.6-1.5,0.9-1.9,1.1
			c0.2-0.4,0.5-1,1.1-1.9c1.8-2.6,1.6-4.3,1.1-5.2c-0.3-0.6-1.3-1.7-3.6-1.7c-0.6,0-1.3,0.1-2,0.2c-0.9,0.2-1.6,0.3-2.2,0.3
			c0,0,0,0,0,0c0.3-0.3,0.8-0.7,1.8-1.4c3-2,3.1-3.8,2.9-4.7s-1-2.6-4.5-3.2c-1.1-0.2-1.7-0.4-2.1-0.6c0.4-0.2,1-0.4,2.1-0.6
			c3.5-0.7,4.3-2.3,4.5-3.2c0.2-0.9,0-2.8-2.9-4.7c-0.9-0.6-1.5-1.1-1.8-1.4c0,0,0,0,0,0c0.5,0,1.3,0.1,2.2,0.3
			c0.7,0.1,1.4,0.2,2,0.2c2.3,0,3.2-1.1,3.6-1.7c0.5-0.9,0.7-2.6-1.1-5.2c-0.6-0.9-0.9-1.5-1.1-1.9c0.4,0.2,1,0.5,1.9,1.1
			c1.4,0.9,2.6,1.4,3.7,1.4c1,0,1.8-0.4,2.4-1.1c0.8-1,1.1-2.7,0.6-4.8c-0.2-1.1-0.3-1.8-0.3-2.2c0.3,0.3,0.7,0.8,1.4,1.8
			c1.6,2.5,3.2,3,4.2,3c0,0,0,0,0,0c0.9,0,3-0.4,3.8-4.6c0.2-1.1,0.4-1.7,0.6-2.1c0.2,0.4,0.4,1,0.6,2.1c0.8,4.1,2.9,4.6,3.8,4.6
			c1,0,2.5-0.5,4.2-3c0.6-0.9,1.1-1.5,1.4-1.7c0,0.4-0.1,1.1-0.3,2.2c-0.4,2.1-0.2,3.8,0.6,4.8c0.6,0.7,1.4,1.1,2.4,1.1
			c1.1,0,2.4-0.5,3.8-1.4c0.9-0.6,1.5-0.9,1.9-1.1c-0.2,0.4-0.5,1-1.1,1.9c-1.8,2.6-1.6,4.3-1.1,5.2c0.3,0.6,1.3,1.7,3.6,1.7
			c0.6,0,1.3-0.1,2-0.2c0.9-0.2,1.6-0.3,2.2-0.3c0,0,0,0,0,0c-0.3,0.3-0.8,0.7-1.7,1.4c-3,2-3.1,3.8-2.9,4.7c0.2,0.9,1,2.6,4.5,3.2
			c1.1,0.2,1.7,0.4,2.1,0.6c-0.4,0.2-1,0.4-2.1,0.6c-3.5,0.7-4.3,2.3-4.5,3.2s0,2.8,2.9,4.7c0.9,0.6,1.5,1.1,1.8,1.4c0,0,0,0,0,0
			c-0.5,0-1.3-0.1-2.2-0.3c-0.7-0.1-1.4-0.2-2-0.2c-2.3,0-3.2,1.1-3.6,1.7c-0.5,0.9-0.7,2.6,1.1,5.2c0.6,0.9,0.9,1.5,1.1,1.9
			c-0.4-0.2-1-0.5-1.9-1.1c-1.4-0.9-2.6-1.4-3.7-1.4c-1,0-1.8,0.4-2.4,1.1c-0.8,1-1.1,2.7-0.6,4.8c0.2,1.1,0.3,1.8,0.3,2.2
			C52,59,51.6,58.5,51,57.6c-1.6-2.5-3.2-3-4.2-3c-0.9,0-3,0.4-3.8,4.6C42.8,60.2,42.6,60.9,42.4,61.3z"/>
		<path class="st5" d="M42.4,13.4c1.2,3.4,3.4,3.9,4.4,3.9c1,0,2.5-0.4,4-2.2c-0.1,2.1,0.5,3.4,1,4.1c0.8,0.9,1.9,1.4,3.2,1.4
			c0.9,0,1.9-0.3,2.9-0.8c-1.1,2.3-0.8,3.9-0.3,4.9c0.4,0.8,1.6,2.3,4.5,2.3c0.2,0,0.4,0,0.6,0c-2.2,2-2.3,3.8-2.1,4.8
			c0.2,1,1,2.7,3.8,3.6c-2.8,0.9-3.6,2.6-3.8,3.6c-0.2,1-0.1,2.8,2.1,4.8c-0.2,0-0.4,0-0.6,0c-2.8,0-4,1.4-4.5,2.3
			c-0.5,1-0.8,2.6,0.3,4.9c-1-0.5-2-0.8-2.9-0.8c-1.3,0-2.4,0.5-3.2,1.4c-0.6,0.7-1.2,2-1,4.1c-1.5-1.8-3-2.2-4-2.2c0,0,0,0,0,0
			c-1,0-3.2,0.4-4.4,3.9C41.3,54,39,53.6,38,53.6c-1,0-2.5,0.4-4,2.2c0.1-2.1-0.5-3.4-1-4.1c-0.8-0.9-1.9-1.4-3.2-1.4
			c-0.9,0-1.9,0.3-2.9,0.8c1.1-2.3,0.8-3.9,0.3-4.9c-0.4-0.8-1.6-2.3-4.5-2.3c-0.2,0-0.4,0-0.6,0c2.2-2,2.3-3.8,2.1-4.8
			c-0.2-1-1-2.7-3.8-3.6c2.8-0.9,3.6-2.6,3.8-3.6c0.2-1,0.1-2.8-2.1-4.8c0.2,0,0.4,0,0.6,0c2.8,0,4-1.4,4.5-2.3
			c0.5-1,0.8-2.6-0.3-4.9c1,0.5,2,0.8,2.9,0.8c1.3,0,2.4-0.5,3.2-1.4c0.6-0.7,1.2-2,1-4.1c1.5,1.8,3,2.2,4,2.2
			C39,17.2,41.3,16.8,42.4,13.4 M42.4,8.1c-0.6,0-1.1,1.1-1.6,3.4c-0.5,2.5-1.5,3.8-2.8,3.8c-1,0-2.2-0.8-3.3-2.5
			c-1.1-1.7-2-2.6-2.6-2.6c-0.7,0-0.8,1.3-0.3,3.8c0.6,3-0.2,4.7-2,4.7c-0.9,0-2-0.4-3.2-1.2c-1.4-1-2.5-1.4-3-1.4
			c-1,0-0.8,1.3,0.8,3.6c2.2,3.2,1.4,5.4-1.7,5.4c-0.5,0-1.1-0.1-1.8-0.2c-1-0.2-1.8-0.3-2.4-0.3c-2.1,0-1.8,1.2,1.2,3.2
			c3.8,2.5,3.3,5.3-1.2,6.1c-4.5,0.9-4.5,2.3,0,3.1c4.5,0.9,5.1,3.6,1.2,6.1c-3,2-3.3,3.2-1.2,3.2c0.6,0,1.4-0.1,2.4-0.3
			c0.7-0.1,1.3-0.2,1.8-0.2c3.1,0,3.9,2.2,1.7,5.4c-1.6,2.4-1.8,3.6-0.8,3.6c0.6,0,1.6-0.5,3-1.4c1.2-0.8,2.3-1.2,3.2-1.2
			c1.8,0,2.6,1.7,2,4.7c-0.5,2.5-0.3,3.8,0.3,3.8c0.5,0,1.4-0.8,2.6-2.6c1.1-1.7,2.3-2.5,3.3-2.5c1.3,0,2.3,1.3,2.8,3.8
			c0.4,2.3,1,3.4,1.6,3.4s1.1-1.1,1.6-3.4c0.5-2.5,1.5-3.8,2.8-3.8c1,0,2.2,0.8,3.3,2.5c1.1,1.7,2,2.6,2.6,2.6
			c0.7,0,0.8-1.3,0.3-3.8c-0.6-3,0.2-4.7,2-4.7c0.9,0,2,0.4,3.2,1.2c1.4,1,2.5,1.4,3,1.4c1,0,0.8-1.3-0.8-3.6
			c-2.2-3.2-1.4-5.4,1.7-5.4c0.5,0,1.1,0.1,1.8,0.2c1,0.2,1.8,0.3,2.4,0.3c2.1,0,1.8-1.2-1.2-3.2c-3.8-2.5-3.3-5.3,1.2-6.1
			c4.5-0.9,4.5-2.3,0-3.1c-4.5-0.9-5.1-3.6-1.2-6.1c3-2,3.3-3.2,1.2-3.2c-0.6,0-1.4,0.1-2.4,0.3c-0.7,0.1-1.3,0.2-1.8,0.2
			c-3.1,0-3.9-2.2-1.7-5.4c1.6-2.4,1.8-3.6,0.8-3.6c-0.6,0-1.6,0.5-3,1.4c-1.2,0.8-2.3,1.2-3.2,1.2c-1.8,0-2.6-1.7-2-4.7
			c0.5-2.5,0.3-3.8-0.3-3.8c-0.5,0-1.4,0.8-2.6,2.6c-1.1,1.7-2.3,2.5-3.3,2.5c-1.3,0-2.3-1.3-2.8-3.8C43.6,9.2,43,8.1,42.4,8.1
			L42.4,8.1z"/>
	</g>
	<g>
		<path d="M46.2,34.4c1.3,0.1,2.5,0.4,3.6,0.8c1.1,0.4,2.1,0.9,2.9,1.5c0.8,0.6,1.4,1.4,1.9,2.2c0.5,0.9,0.7,1.8,0.7,2.9
			c0,1.4-0.3,2.7-0.8,3.7c-0.5,1.1-1.3,2-2.3,2.7c-1,0.7-2.2,1.3-3.6,1.6c-1.4,0.4-3,0.6-4.7,0.6h-8.1c-0.6,0-1.2,0-1.9,0
			c-0.7,0-1.4,0.1-2,0.1c-0.4,0-0.7,0.1-1.1,0.1s-0.7,0-1.1,0l0-0.3c0-0.1,0-0.2,0-0.3c0-0.1,0-0.1,0-0.2c0-0.3,0.1-0.6,0.2-0.7
			c0.1-0.1,0.2-0.2,0.4-0.2c1.1-0.2,1.9-0.4,2.3-0.6c0.5-0.3,0.7-0.7,0.7-1.3V23.8c0-0.6-0.2-1.1-0.6-1.3c-0.4-0.3-1.2-0.5-2.4-0.7
			c-0.2-0.1-0.4-0.2-0.5-0.3c-0.1-0.2-0.1-0.4-0.1-0.6c0-0.1,0-0.1,0-0.2c0-0.1,0-0.1,0-0.2c0-0.1,0-0.2,0-0.3
			c0.9,0.1,2,0.1,3.1,0.2s2.1,0.1,2.9,0.1h6.4c2,0,3.6,0.2,4.9,0.6c1.3,0.4,2.3,0.9,3.1,1.6c0.8,0.7,1.3,1.5,1.7,2.3
			c0.3,0.9,0.5,1.8,0.5,2.7c0,1.8-0.6,3.2-1.8,4.3c-1.2,1.1-2.7,1.8-4.5,2.3V34.4z M39.8,33.5c1.2,0,2.2-0.2,3-0.5
			c0.8-0.3,1.5-0.7,1.9-1.3c0.5-0.5,0.8-1.1,1-1.8c0.2-0.7,0.3-1.4,0.3-2.1c0-0.7-0.1-1.4-0.3-2c-0.2-0.6-0.6-1.2-1.1-1.6
			s-1.2-0.8-2-1.1c-0.8-0.3-1.8-0.4-2.9-0.4h-0.7v10.8H39.8z M39.1,46.5c0,0.7,0.3,1.2,1,1.4c0.7,0.2,1.4,0.3,2.3,0.3
			c2.1,0,3.7-0.5,4.8-1.4c1.1-0.9,1.6-2.4,1.6-4.4c0-1.1-0.2-2.1-0.6-2.9c-0.4-0.8-0.9-1.5-1.6-2.1c-0.7-0.5-1.4-0.9-2.3-1.2
			c-0.9-0.3-1.8-0.4-2.8-0.4h-2.5V46.5z"/>
	</g>
</g>
</svg>
