<?xml version="1.0" encoding="utf-8"?>
<!-- Generator: Adobe Illustrator 22.1.0, SVG Export Plug-In . SVG Version: 6.00 Build 0)  -->
<svg version="1.1" id="Layer_1" xmlns="http://www.w3.org/2000/svg" xmlns:xlink="http://www.w3.org/1999/xlink" x="0px" y="0px"
	 viewBox="0 0 120 70" style="enable-background:new 0 0 120 70;" xml:space="preserve">
<style type="text/css">
	.st0{fill:#FFFFFF;}
	.st1{fill:#B2B2B2;}
</style>
<path class="st0" d="M106.2,60.6H13.8c-2.1,0-3.8-1.7-3.8-3.8V13.2c0-2.1,1.7-3.8,3.8-3.8h92.4c2.1,0,3.8,1.7,3.8,3.8v43.7
	C110,58.9,108.3,60.6,106.2,60.6z"/>
<path class="st1" d="M84.1,57.6c-1.4-2.3-2.9-4.7-4.4-7c-0.6-1-1.2-2.2-1.8-3.2c-1.6-2.8-0.8-4.6,2.4-5.5c2.3-0.6,4.4-1.5,5.9-3.4
	c1.2-1.5,1.2-3.4-0.2-4.7c-1.1-1-2.3-1.8-3.5-2.5c-1.7-0.9-3.6-1.6-5.3-2.5c-1.7-0.9-3.3-1.8-4.8-2.9c-1.3-0.9-1.5-1.9-0.9-3.4
	c0.3-0.8,0.9-1.5,1.4-2.2c1.2-1.9,1.3-4.4,0-6.1c-0.6-0.8-1.3-1.4-1.9-2.2c0-0.1,0-0.3,0-0.4c0-1.7-1.3-3-3-3
	c-0.4,0-0.8,0.1-1.1,0.2c-0.5-1.3-1.6-2.2-3-2.2c-0.5,0-1,0.2-1.5,0.4c-0.5-0.8-1.4-1.4-2.5-1.4s-2,0.6-2.5,1.4
	c-0.5-0.2-1-0.4-1.5-0.4c-1.4,0-2.5,0.9-2.9,2.2c-0.3-0.1-0.7-0.2-1.1-0.2c-1.7,0-3,1.3-3,3c0,0.2,0,0.3,0,0.5
	c-0.6,0.7-1.2,1.4-1.8,2.1c-1.3,1.7-1.2,4.3,0,6.1c0.5,0.7,1,1.4,1.4,2.2c0.6,1.5,0.4,2.5-0.9,3.4c-1.5,1.1-3.2,2-4.8,2.9
	c-1.7,0.9-3.6,1.6-5.3,2.5C36.2,32,35,32.8,34,33.8c-1.4,1.3-1.4,3.2-0.2,4.7c1.6,1.9,3.7,2.8,5.9,3.4c3.2,0.8,4,2.7,2.4,5.5
	c-0.6,1.1-1.2,2.2-1.8,3.2c-1.4,2.3-2.9,4.7-4.4,7c-0.6,1-1.2,2.1-1.8,3.2c-0.4,0.9-0.7,1.8-0.2,2.8c0.3,0.1,0.5,0.2,0.8,0.2
	c4.9,0.2,9.9,0.3,14.8,0.5c1.8,0.1,3.1-0.7,4-2.2c1.5-2.4,3-4.8,4.5-7.2c0.2-0.4,0.4-0.8,0.7-1.1c0.4-0.4,0.8-0.8,1.3-0.8
	s0.9,0.4,1.3,0.8c0.3,0.3,0.5,0.7,0.7,1.1c1.5,2.4,3,4.8,4.5,7.2c0.9,1.4,2.2,2.3,4,2.2c4.9-0.2,9.9-0.3,14.8-0.5
	c0.3,0,0.5-0.1,0.8-0.2c0.5-1,0.3-1.9-0.2-2.8C85.4,59.7,84.8,58.6,84.1,57.6z"/>
</svg>
