<?xml version="1.0" encoding="utf-8"?>
<!-- Generator: Adobe Illustrator 22.1.0, SVG Export Plug-In . SVG Version: 6.00 Build 0)  -->
<svg version="1.1" id="Layer_1" xmlns="http://www.w3.org/2000/svg" xmlns:xlink="http://www.w3.org/1999/xlink" x="0px" y="0px"
	 viewBox="0 0 150 150" style="enable-background:new 0 0 150 150;" xml:space="preserve">
<style type="text/css">
	.st0{fill:none;}
	.st1{opacity:0.5;fill:#DF75AB;}
	.st2{fill:#DF75AB;}
</style>
<g>
	<rect class="st0" width="150" height="150"/>
</g>
<path class="st1" d="M63.7,49.9c7.4-1.1,14.8-1.9,22.2-3.2c10.5-1.8,19.4,1,26,9.4c6.8,8.7,7.1,18.2,2.8,28.1
	c-6.8,15.4-21.3,22.4-38,19c-6-1.2-12.3-1.5-18.5-1.7C42.4,101.1,32,90.1,32.5,73.8C32.9,58.6,43.8,48.4,59.1,49
	c1.5,0.1,3,0.2,4.5,0.2C63.6,49.4,63.7,49.6,63.7,49.9z"/>
<path class="st2" d="M80.7,109.1c-5.7-0.7-11.4-1.1-17-2.2c-8.1-1.6-14-5.7-16.3-14.4c-0.9-3.5-3.8-6.9-6.6-9.5
	c-8.4-7.7-9.5-18.7-2.4-27.9c15.2-19.6,54.5-19.4,65.9,1.3c1.4,2.5,3.7,4.6,5.8,6.7c7,6.8,7.8,10.3,3.9,19c-1.2,2.7-2.8,5.3-3.8,8.1
	C105.4,104.5,95.3,110.1,80.7,109.1z"/>
</svg>
