<?xml version="1.0" encoding="utf-8"?>
<!-- Generator: Adobe Illustrator 22.1.0, SVG Export Plug-In . SVG Version: 6.00 Build 0)  -->
<svg version="1.1" id="Layer_1" xmlns="http://www.w3.org/2000/svg" xmlns:xlink="http://www.w3.org/1999/xlink" x="0px" y="0px"
	 viewBox="0 0 150 150" style="enable-background:new 0 0 150 150;" xml:space="preserve">
<style type="text/css">
	.st0{fill:none;}
	.st1{opacity:0.5;fill:#3BB2BF;}
	.st2{fill:#3BB2BF;}
</style>
<g>
	<rect class="st0" width="150" height="150"/>
</g>
<path class="st1" d="M80.4,111.6c-5.7-0.7-11.4-1.1-17-2.2c-8.1-1.6-14-5.7-16.3-14.4c-0.9-3.5-3.8-6.9-6.6-9.5
	c-8.4-7.7-9.5-18.7-2.4-27.9c15.2-19.6,54.5-19.4,65.9,1.3c1.4,2.5,3.7,4.6,5.8,6.7c7,6.8,7.8,10.3,3.9,19c-1.2,2.7-2.8,5.3-3.8,8.1
	C105.1,107,95,112.6,80.4,111.6z"/>
<path class="st2" d="M113.4,83.9c-0.7,3.9-0.8,7.9-2.1,11.6c-3.1,9.5-11.3,14.4-21,12.2c-7.3-1.7-14.2-1.9-21.1,1.4
	c-1.7,0.8-4,1.3-5.8,0.9C50,107.5,43,97.3,37.7,86.3c-4.1-8.6-0.1-17.1,8.7-24.7c4.4-3.8,8.5-8.4,11.5-13.4c3.7-6,8.3-8.6,14.9-6.8
	c11.9,3.2,22.5,7.5,30,18.9C107.8,67.8,114.4,73.8,113.4,83.9z"/>
</svg>
