<?xml version="1.0" encoding="utf-8"?>
<!-- Generator: Adobe Illustrator 22.1.0, SVG Export Plug-In . SVG Version: 6.00 Build 0)  -->
<svg version="1.1" id="Layer_1" xmlns="http://www.w3.org/2000/svg" xmlns:xlink="http://www.w3.org/1999/xlink" x="0px" y="0px"
	 viewBox="0 0 150 150" style="enable-background:new 0 0 150 150;" xml:space="preserve">
<style type="text/css">
	.st0{fill:none;}
	.st1{opacity:0.5;fill:#4D4D4D;}
	.st2{fill:#4D4D4D;}
</style>
<g>
	<rect class="st0" width="150" height="150"/>
</g>
<path class="st1" d="M71.4,39.2c0.2-0.1,0.3-0.1,0.5-0.1c3.5-0.3,10.5,3.9,13.4,5.5c7.7,4.3,14.8,9.5,22.5,13.7
	c10.4,5.8,12.8,11.8,7.7,22.3c-5.4,11.3-13.7,20.2-24.4,26.6c-7.3,4.3-15,5.2-23.2,1.5c-6.9-3.1-14-5.6-21.2-8
	C36.1,97.3,31.1,91.1,32,80c0.8-8.7,2.4-17.5,4.6-25.9c2.3-9,8.5-13.2,17.8-13.4c3.3-0.1,6.7,0.4,10,0.3c1.7,0,3.5,0,5.1-0.6
	C70.3,40.1,70.8,39.4,71.4,39.2z"/>
<path class="st2" d="M33.9,72.4C34.6,61,42.8,51.7,55,45.2c11.1-5.9,23.1-7.9,35.6-6.5c12.8,1.4,19.1,8.9,20.1,21.9
	c0.3,4,2.6,7.8,3.6,11.9c0.8,3.2,2.6,7.3,1.3,9.8c-7.2,14.2-17.6,25.5-33.9,29.1c-8.3,1.8-15.4-1.3-21.7-7.4
	c-4.5-4.3-10.2-7.5-15.9-10.3C37.4,90.4,33.8,84.9,33.9,72.4z"/>
</svg>
