<?xml version="1.0" encoding="utf-8"?>
<!-- Generator: Adobe Illustrator 22.1.0, SVG Export Plug-In . SVG Version: 6.00 Build 0)  -->
<svg version="1.1" id="Layer_1" xmlns="http://www.w3.org/2000/svg" xmlns:xlink="http://www.w3.org/1999/xlink" x="0px" y="0px"
	 viewBox="0 0 150 150" style="enable-background:new 0 0 150 150;" xml:space="preserve">
<style type="text/css">
	.st0{fill:none;}
	.st1{fill:#FFFFFF;}
	.st2{fill:#EFBBBB;}
	.st3{fill:#F7DEEA;}
	.st4{fill:#882E51;}
	.st5{fill:#7B44AA;}
</style>
<g>
	<rect class="st0" width="150" height="150"/>
</g>
<circle class="st1" cx="75.5" cy="75.3" r="54.1"/>
<g>
	<polygon class="st2" points="83.1,121.8 66.1,104.8 66.1,80.8 83.1,63.8 107.2,63.8 124.1,80.8 124.1,104.8 107.2,121.8 	"/>
	<path class="st3" d="M110.8,92.8c0-0.6,0-1.1-0.1-1.6l3.3-0.3c-0.1-1.3-0.4-2.6-0.8-3.9c-0.4-1.3-1-2.5-1.6-3.6l-2.8,1.6
		c-0.6-1-1.2-1.8-1.9-2.6l2.4-2.2c-0.9-1-1.9-1.9-2.9-2.7c-1.1-0.8-2.2-1.4-3.4-2l-1.3,3c-1-0.4-2-0.8-3.1-1l0.7-3.2
		c-1.3-0.3-2.6-0.4-3.9-0.4c-1.4,0-2.7,0.1-3.9,0.4l0.7,3.2c-1.1,0.2-2.1,0.6-3.1,1l-1.3-3c-1.2,0.5-2.4,1.2-3.4,2
		c-1.1,0.8-2.1,1.7-2.9,2.7l2.4,2.2c-0.7,0.8-1.4,1.7-1.9,2.6l-2.8-1.6c-0.7,1.1-1.2,2.3-1.6,3.6c-0.4,1.2-0.7,2.5-0.8,3.9l3.3,0.3
		c-0.1,0.5-0.1,1.1-0.1,1.6s0,1.1,0.1,1.6l-3.3,0.3c0.1,1.3,0.4,2.6,0.8,3.9c0.4,1.3,1,2.5,1.6,3.6l2.8-1.6c0.6,1,1.2,1.8,1.9,2.6
		l-2.4,2.2c0.9,1,1.9,1.9,2.9,2.7c1.1,0.8,2.2,1.4,3.4,2l1.3-3c1,0.4,2,0.8,3.1,1l-0.7,3.2c1.3,0.3,2.6,0.4,3.9,0.4
		c1.4,0,2.7-0.1,3.9-0.4l-0.7-3.2c1.1-0.2,2.1-0.6,3.1-1l1.3,3c1.2-0.5,2.4-1.2,3.4-2c1.1-0.8,2.1-1.7,2.9-2.7l-2.4-2.2
		c0.7-0.8,1.4-1.7,1.9-2.6l2.8,1.6c0.7-1.1,1.2-2.3,1.6-3.6c0.4-1.2,0.7-2.5,0.8-3.9l-3.3-0.3C110.8,93.9,110.8,93.3,110.8,92.8z"/>
	<circle class="st4" cx="95.1" cy="92.8" r="13.2"/>
</g>
<path class="st5" d="M78.2,81c-1.4-2.3-2.9-4.7-4.4-7c-0.6-1-1.2-2.2-1.8-3.2c-1.6-2.8-0.8-4.6,2.4-5.5c2.3-0.6,4.4-1.5,5.9-3.4
	c1.2-1.5,1.2-3.4-0.2-4.7c-1.1-1-2.3-1.8-3.5-2.5c-1.7-0.9-3.6-1.6-5.3-2.5c-1.7-0.9-3.3-1.8-4.8-2.9c-1.3-0.9-1.5-1.9-0.9-3.4
	c0.3-0.8,0.9-1.5,1.4-2.2c1.2-1.9,1.3-4.4,0-6.1c-0.6-0.8-1.3-1.4-1.9-2.2c0-0.1,0-0.3,0-0.4c0-1.7-1.3-3-3-3
	c-0.4,0-0.8,0.1-1.1,0.2C60.5,30.9,59.4,30,58,30c-0.5,0-1,0.2-1.5,0.4C56,29.6,55.1,29,54,29s-2,0.6-2.5,1.4C51,30.2,50.5,30,50,30
	c-1.4,0-2.5,0.9-2.9,2.2C46.8,32.1,46.4,32,46,32c-1.7,0-3,1.3-3,3c0,0.2,0,0.3,0,0.5c-0.6,0.7-1.2,1.4-1.8,2.1
	c-1.3,1.7-1.2,4.3,0,6.1c0.5,0.7,1,1.4,1.4,2.2c0.6,1.5,0.4,2.5-0.9,3.4c-1.5,1.1-3.2,2-4.8,2.9c-1.7,0.9-3.6,1.6-5.3,2.5
	c-1.3,0.7-2.5,1.5-3.5,2.5c-1.4,1.3-1.4,3.2-0.2,4.7c1.6,1.9,3.7,2.8,5.9,3.4c3.2,0.8,4,2.7,2.4,5.5c-0.6,1.1-1.2,2.2-1.8,3.2
	c-1.4,2.3-2.9,4.7-4.4,7c-0.6,1-1.2,2.1-1.8,3.2c-0.4,0.9-0.7,1.8-0.2,2.8c0.3,0.1,0.5,0.2,0.8,0.2c4.9,0.2,9.9,0.3,14.8,0.5
	c1.8,0.1,3.1-0.7,4-2.2c1.5-2.4,3-4.8,4.5-7.2c0.2-0.4,0.4-0.8,0.7-1.1c0.4-0.4,0.8-0.8,1.3-0.8c0.5,0,0.9,0.4,1.3,0.8
	c0.3,0.3,0.5,0.7,0.7,1.1c1.5,2.4,3,4.8,4.5,7.2c0.9,1.4,2.2,2.3,4,2.2c4.9-0.2,9.9-0.3,14.8-0.5c0.3,0,0.5-0.1,0.8-0.2
	c0.5-1,0.3-1.9-0.2-2.8C79.5,83.1,78.9,82,78.2,81z"/>
</svg>
