<?xml version="1.0" encoding="utf-8"?>
<!-- Generator: Adobe Illustrator 22.1.0, SVG Export Plug-In . SVG Version: 6.00 Build 0)  -->
<svg version="1.1" id="Layer_1" xmlns="http://www.w3.org/2000/svg" xmlns:xlink="http://www.w3.org/1999/xlink" x="0px" y="0px"
	 viewBox="0 0 150 150" style="enable-background:new 0 0 150 150;" xml:space="preserve">
<style type="text/css">
	.st0{fill:none;}
	.st1{fill:#FFFFFF;}
	.st2{fill:#92278E;}
</style>
<g>
	<rect class="st0" width="150" height="150"/>
</g>
<circle class="st1" cx="75.5" cy="75.3" r="54.1"/>
<g>
	<path class="st2" d="M40.9,118.4c0.1-0.7,0.4-1.3,0.7-1.9c0.4-0.5,0.8-1,1.2-1.5c1.8-1.6,3.8-2.2,5.6-2.7l5.2-1.4
		c6.5-1.8,13-4,18.5-7.6c-2-1.8-3.8-3.8-5.1-6.1c-1.9-3.3-3.1-7-3.3-10.9c-0.1-2.2,0.3-4.4,0.9-6.6c-6.4-3.6-13.6-10.2-14.8-22
		c-0.4-3.8,0.1-7.3,1.1-10.6c-19.3,7.6-29.8,24.2-29.8,40.3c0,17.3,13.1,32.6,20.9,36.3c-0.3-0.6-0.6-1.1-0.8-1.8
		C40.9,121,40.6,119.7,40.9,118.4z"/>
	<path class="st2" d="M99.1,47.5c1.1,10-2.5,20.8-15.2,30.5c1.1,2.7,1.6,5.5,1.5,8.4c-0.2,6.6-3.6,12.7-8.4,17
		c5.6,3.7,12.1,5.8,18.7,7.6l5.2,1.4c1.8,0.6,3.8,1.1,5.6,2.7c0.4,0.4,0.8,0.9,1.2,1.4c0.3,0.6,0.6,1.2,0.7,1.8
		c0.3,1.3,0,2.6-0.3,3.6c-0.3,0.7-0.6,1.4-1,2c7.7-3.3,21.3-18.8,21.3-36.5C128.5,71.6,118.2,55.2,99.1,47.5z"/>
	<path class="st2" d="M104,117.8c-1.8-1.7-5.8-2.3-9.2-3.4c-6.9-2.1-14-4.5-20.1-8.9c0,0-0.1-0.1-0.1-0.1c-6.1,4.4-13.1,6.9-20,8.9
		c-3.4,1.1-7.4,1.7-9.2,3.5c-0.8,0.8-0.9,1.7-0.5,3c0.4,1.1,1.3,2.3,2.2,3.3c5.4-3.5,27.8-3,27.8-3s21.9-0.5,27.6,2.9
		c0.9-0.9,1.7-2.1,2.1-3.1C104.9,119.5,104.8,118.7,104,117.8z"/>
	<path class="st2" d="M82.2,80.3L82.2,80.3L82,79.7c0-0.1,0-0.1-0.1-0.2c0,0,0,0,0,0l-0.1-0.3c0,0,0,0,0,0c0,0,0-0.1-0.1-0.1
		l-0.1-0.2l0,0c-1.4-3.8-4-7.1-7.2-9.7C71,72,68.3,76,67,80.3l0,0l-0.1,0.4c0,0,0,0,0,0.1c0,0,0,0,0,0L66.8,81c0,0,0,0,0,0
		c0,0.1,0,0.1,0,0.2l-0.1,0.3l0,0c-0.3,1.6-0.5,3.2-0.4,4.8c0.2,3.4,1.3,6.7,3.1,9.5c1.4,2.2,3.2,4.2,5.2,5.8
		c4.7-3.8,8-9.3,8.4-15.4C83.1,84.3,82.8,82.2,82.2,80.3z"/>
	<path class="st2" d="M97.5,47c-1.9-15.2-14-28.3-22.7-32.1c-0.1,0-0.2-0.1-0.3-0.1c-4.8-2-7.8-2.8-9.7-2.9c-3.4,0-1.7,3.1-1.7,3.1
		c8.3,8.7-6.1,17.3-10.6,32c-1,3.3-1.5,7-1.1,11c1.1,11.4,7.5,18,13.3,21.7c0.4-1.4,1-2.8,1.7-4.1c1.9-3.3,4.3-6.1,7.4-8.4l0.5-0.3
		l1,0.5c3.1,2.2,5.5,5.1,7.4,8.3c0.4,0.7,0.7,1.4,1,2.1C95.5,67.9,98.7,57,97.5,47z M78.1,55.7c-1.5,4.9-2.7,7.8-3,7.7
		c-0.3-0.1,0.3-3.2,1.3-8.1c0.8-4.9,2-11.8,1.2-19.3c-0.3-3.8-1.3-7.2-2.5-10.2c-1.3-3-2.9-5.4-4.5-7.2c-3.3-3.7-6.2-5-6-5.3
		c0.1-0.3,3.4,0.5,7.2,4.1c1.9,1.8,3.8,4.4,5.3,7.5c1.4,3.2,2.6,6.9,2.8,10.8C80.8,43.7,79.3,50.8,78.1,55.7z"/>
	<circle class="st2" cx="72.7" cy="80.4" r="3.1"/>
</g>
</svg>
