<?xml version="1.0" encoding="utf-8"?>
<!-- Generator: Adobe Illustrator 22.1.0, SVG Export Plug-In . SVG Version: 6.00 Build 0)  -->
<svg version="1.1" id="Layer_1" xmlns="http://www.w3.org/2000/svg" xmlns:xlink="http://www.w3.org/1999/xlink" x="0px" y="0px"
	 viewBox="0 0 150 150" style="enable-background:new 0 0 150 150;" xml:space="preserve">
<style type="text/css">
	.st0{fill:none;}
	.st1{fill:#FFFFFF;}
	.st2{fill:#5C3D1C;}
</style>
<g>
	<rect class="st0" width="150" height="150"/>
</g>
<circle class="st1" cx="75.5" cy="75.3" r="54.1"/>
<g>
	<path class="st2" d="M70.1,72.9c2.1,1.7,3.8,3,5.5,4.5c0.4,0.3,0.6,1.3,0.4,1.7c-1.3,3.6-1.9,6.8-3.3,10.4c-1.2,3-2.4,6.5-4.1,9.4
		c0.5-0.5,1.1-0.9,1.4-1.4c3.6-5.4,6.5-11.1,8.5-17.3c0.4-1.2,0.8-1.8,2.1-1.7c1.9,0.2,3.8,0.3,6.1,0.4c-0.7,2.4-1.3,4.5-2,6.5
		c-5.4,18.2-22.3,27.9-29.8,29.3c-2.1,0.4-4.2,0.5-6.6,0.3C60.6,103.5,67,89.2,70.1,72.9z"/>
	<path class="st2" d="M101.5,80c-4.8-0.8-9.7-1.7-14.5-2.3c-2.8-0.4-5.6-0.2-8.5-0.5c-0.8-0.1-1.6-0.5-2.2-1
		c-5.5-4.6-11-9.3-16.5-14c1.8,0.2,3.8,0.3,5.8,0.6c3.2,0.5,6.3,1.1,9.5,1.7c0.5,0.1,1,0.6,1.3,1c2.8,3.7,5.4,4.5,9.8,2.9
		c0.5-0.2,1.4-0.2,1.8,0.1c4.6,3.6,9.2,7.3,13.8,10.9C101.6,79.7,101.5,79.9,101.5,80z"/>
	<path class="st2" d="M82.8,45.5c2.2,2.9,5.1,3.8,8.8,2.5c-0.2,0.6-0.3,1-0.4,1.2c-2.8,5-4.3,10.5-4.8,16.1c-0.1,1.3-0.5,2-1.9,2.4
		c-2.9,0.9-5.5,0.1-7.1-2.5c-0.2-0.4-0.3-1.1-0.1-1.5c2.8-5.7,4.6-11.6,5.1-17.9C82.4,45.9,82.5,45.8,82.8,45.5z"/>
	<path class="st2" d="M92.5,34.9c0.5,1.9,0.9,3.4,1.4,5c0.8,2.4,0.1,4.8-1.9,6.3c-1.8,1.4-4.7,1.5-6.5,0.2c-2.2-1.6-3.2-3.9-2.2-6.3
		c1-2.5,3.1-3.8,5.6-4.6C90,35.1,91.4,35.1,92.5,34.9z"/>
</g>
</svg>
