<?xml version="1.0" encoding="utf-8"?>
<!-- Generator: Adobe Illustrator 22.1.0, SVG Export Plug-In . SVG Version: 6.00 Build 0)  -->
<svg version="1.1" id="Layer_1" xmlns="http://www.w3.org/2000/svg" xmlns:xlink="http://www.w3.org/1999/xlink" x="0px" y="0px"
	 viewBox="0 0 678 512" style="enable-background:new 0 0 678 512;" xml:space="preserve">
<style type="text/css">
	.st0{opacity:0.5;enable-background:new    ;}
</style>
<path class="st0" d="M442.9,496.2c15.1-10.4-1.3-27.6-2.4-27.9c-9.8-48.5-13.6-97.7-18.7-146.7c-4.3-41.1-2.8-82.3-0.4-123.5
	c2.2-3.2,4.4-6.4,6.6-9.6c1.5-1.2,3.1-2.3,4.6-3.5c6.4-11.7-9.4-20.7-4.6-32.2c0.8-0.3,1.4-0.8,1.6-1.6c0.5-0.5,1-1.1,1.3-1.8
	c6-3.3,8.9-8.6,11.7-14.1c15.5-30.6,4.3-68.2-26.9-90.2c-17.4-12.3-34.9-24.6-52-37.3c-4.3-3.2-7.8-5.8-10.9-7.9h-27.5
	c-3.1,2.1-6.6,4.7-10.9,7.9c-17.1,12.7-34.6,25-52,37.3c-31.2,22.1-42.4,59.6-26.9,90.2c2.8,5.5,5.7,10.8,11.7,14.1
	c0.4,0.7,0.8,1.3,1.3,1.8c0.2,0.8,0.8,1.3,1.6,1.6c4.8,11.5-11,20.5-4.6,32.2c1.5,1.2,3.1,2.3,4.6,3.5c2.2,3.2,4.4,6.4,6.6,9.6
	c2.4,41.2,3.9,82.3-0.4,123.5c-5.1,49-9,98.2-18.7,146.7c-1.1,0.3-17.5,17.5-2.4,27.9c1.1,1,5.8,5.7,25.5,11.7
	c5.4,1.6,10.8,3,16.3,4.1h121.2c6.4-1.2,12.8-2.6,19.3-4.1C429.1,505.1,441.8,497.2,442.9,496.2z"/>
</svg>
