<?xml version="1.0" encoding="utf-8"?>
<!-- Generator: Adobe Illustrator 22.1.0, SVG Export Plug-In . SVG Version: 6.00 Build 0)  -->
<svg version="1.1" id="Layer_1" xmlns="http://www.w3.org/2000/svg" xmlns:xlink="http://www.w3.org/1999/xlink" x="0px" y="0px"
	 viewBox="0 0 150 150" style="enable-background:new 0 0 150 150;" xml:space="preserve">
<style type="text/css">
	.st0{fill:none;}
	.st1{fill:#FFFFFF;}
	.st2{fill:#72571C;}
	.st3{fill:#A07D28;}
	.st4{fill:#D4AF37;}
</style>
<g>
	<rect class="st0" width="150" height="150"/>
</g>
<circle class="st1" cx="75.5" cy="75.3" r="54.1"/>
<g>
	<g>
		<path class="st2" d="M126.9,56.5c0.1-0.1,0.2-0.2,0.2-0.3c1.1-0.6,1.6-1.5,2.1-2.5c2.8-5.5,0.8-12.1-4.8-16.1
			c-3.1-2.2-6.2-4.4-9.3-6.6c-0.8-0.6-1.5-1.1-2.1-1.5c0,0-0.7-0.9-2.3-0.9c-1.6,0-2.3,0.9-2.3,0.9c-0.6,0.4-1.3,0.9-2.1,1.5
			c-3,2.3-6.2,4.5-9.3,6.6c-5.6,3.9-7.6,10.6-4.8,16.1c0.5,1,1,1.9,2.1,2.5c0.1,0.1,0.1,0.2,0.2,0.3c0,0.1,0.1,0.2,0.3,0.3
			c0.8,2-2,3.7-0.8,5.7c0.3,0.2,0.6,0.4,0.8,0.6c0.4,0.6,0.8,1.1,1.2,1.7c0.4,7.3,0.7,14.7-0.1,22c-0.9,8.7-1.6,17.5-3.3,26.1
			c-0.2,0.1-3.1,3.1-0.4,5c0.2,0.2,1,1,4.5,2.1c1,0.3,2,0.5,3,0.8c0,0,3.2,0.9,10.9,0.9s10.4-0.9,10.4-0.9c1.2-0.2,2.4-0.5,3.6-0.8
			c2.1-0.5,4.4-1.9,4.5-2.1c2.7-1.8-0.2-4.9-0.4-5c-1.7-8.6-2.4-17.4-3.3-26.1c-0.8-7.3-0.5-14.7-0.1-22c0.4-0.6,0.8-1.1,1.2-1.7
			c0.3-0.2,0.6-0.4,0.8-0.6c1.1-2.1-1.7-3.7-0.8-5.7C126.7,56.7,126.8,56.6,126.9,56.5z"/>
	</g>
	<g>
		<path class="st3" d="M108.7,53.9c0.1-0.1,0.2-0.2,0.3-0.4c1.3-0.7,1.9-1.8,2.5-3c3.3-6.5,0.9-14.5-5.7-19.2
			c-3.7-2.6-7.4-5.2-11-7.9c-1-0.7-1.8-1.3-2.5-1.8c0,0-0.9-1.1-2.7-1.1c-1.9,0-2.7,1.1-2.7,1.1c-0.7,0.5-1.5,1.1-2.5,1.8
			c-3.6,2.7-7.3,5.3-11,7.9c-6.6,4.7-9,12.7-5.7,19.2c0.6,1.2,1.2,2.3,2.5,3c0.1,0.1,0.2,0.3,0.3,0.4c0.1,0.2,0.2,0.3,0.3,0.3
			c1,2.4-2.3,4.4-1,6.8c0.3,0.2,0.7,0.5,1,0.7c0.5,0.7,0.9,1.4,1.4,2c0.5,8.7,0.8,17.5-0.1,26.2c-1.1,10.4-1.9,20.9-4,31.2
			c-0.2,0.1-3.7,3.7-0.5,5.9c0.2,0.2,1.2,1.2,5.4,2.5c1.2,0.4,2.4,0.7,3.6,0.9c0,0,3.8,1.1,13,1.1s12.4-1.1,12.4-1.1
			c1.4-0.3,2.8-0.6,4.3-0.9c2.5-0.6,5.2-2.3,5.4-2.5c3.2-2.2-0.3-5.9-0.5-5.9c-2.1-10.3-2.9-20.8-4-31.2c-0.9-8.7-0.6-17.5-0.1-26.2
			c0.5-0.7,0.9-1.4,1.4-2c0.3-0.2,0.7-0.5,1-0.7c1.4-2.5-2-4.4-1-6.8C108.6,54.2,108.7,54.1,108.7,53.9z"/>
	</g>
	<g>
		<path class="st2" d="M57,56.9c0.1-0.1,0.2-0.2,0.2-0.3c1.1-0.6,1.6-1.6,2.1-2.6c2.8-5.6,0.8-12.5-4.9-16.6
			c-3.2-2.3-6.4-4.5-9.5-6.9C44,30,43.3,29.5,42.7,29c0,0-0.8-0.9-2.4-0.9C38.7,28.1,38,29,38,29c-0.6,0.4-1.3,0.9-2.2,1.6
			c-3.1,2.3-6.3,4.6-9.5,6.9c-5.7,4-7.8,10.9-4.9,16.6c0.5,1,1,2,2.1,2.6c0.1,0.1,0.1,0.2,0.2,0.3c0,0.1,0.1,0.2,0.3,0.3
			c0.9,2.1-2,3.8-0.8,5.9c0.3,0.2,0.6,0.4,0.9,0.6c0.4,0.6,0.8,1.2,1.2,1.8c0.4,7.6,0.7,15.1-0.1,22.7c-0.9,9-1.6,18-3.4,26.9
			c-0.2,0.1-3.2,3.2-0.4,5.1c0.2,0.2,1.1,1.1,4.7,2.1c1,0.3,2.1,0.6,3.1,0.8c0,0,3.3,0.9,11.3,0.9s10.7-0.9,10.7-0.9
			c1.2-0.2,2.4-0.5,3.7-0.8c2.1-0.5,4.5-2,4.7-2.1c2.8-1.9-0.2-5.1-0.4-5.1c-1.8-8.9-2.5-17.9-3.4-26.9c-0.8-7.5-0.5-15.1-0.1-22.7
			c0.4-0.6,0.8-1.2,1.2-1.8c0.3-0.2,0.6-0.4,0.9-0.6c1.2-2.1-1.7-3.8-0.8-5.9C56.8,57.2,56.9,57.1,57,56.9z"/>
	</g>
	<g>
		<path class="st3" d="M75,54.5c0.1-0.1,0.2-0.2,0.3-0.4c1.2-0.7,1.8-1.8,2.4-2.9c3.2-6.3,0.9-14.1-5.6-18.7
			c-3.6-2.6-7.2-5.1-10.8-7.7c-1-0.7-1.8-1.3-2.4-1.8c0,0-0.9-1-2.7-1c-1.8,0-2.7,1-2.7,1c-0.7,0.5-1.5,1-2.4,1.8
			c-3.5,2.6-7.2,5.2-10.8,7.7c-6.5,4.6-8.8,12.3-5.6,18.7c0.6,1.1,1.2,2.2,2.4,2.9c0.1,0.1,0.2,0.3,0.3,0.4c0,0.2,0.2,0.3,0.3,0.3
			c1,2.4-2.3,4.3-1,6.7c0.3,0.2,0.6,0.5,1,0.7c0.5,0.7,0.9,1.3,1.4,2c0.5,8.5,0.8,17.1-0.1,25.6c-1.1,10.2-1.9,20.4-3.9,30.4
			c-0.2,0.1-3.6,3.6-0.5,5.8c0.2,0.2,1.2,1.2,5.3,2.4c1.2,0.3,2.3,0.6,3.5,0.9c0,0,3.7,1,12.7,1s12.1-1,12.1-1
			c1.4-0.3,2.8-0.6,4.1-0.9c2.4-0.6,5.1-2.2,5.3-2.4c3.1-2.1-0.3-5.7-0.5-5.8c-2-10.1-2.8-20.2-3.9-30.4c-0.9-8.5-0.6-17.1-0.1-25.6
			c0.5-0.7,0.9-1.3,1.4-2c0.3-0.2,0.6-0.5,1-0.7c1.3-2.4-1.9-4.3-1-6.7C74.8,54.7,75,54.6,75,54.5z"/>
	</g>
	<g>
		<path class="st4" d="M96,50.8c0.1-0.1,0.2-0.3,0.3-0.4c1.4-0.8,2.2-2.1,2.8-3.4c3.7-7.4,1-16.5-6.5-21.8c-4.2-3-8.5-6-12.6-9
			c-1.1-0.8-2.1-1.5-2.9-2.1c0,0-1-1.2-3.1-1.2c-2.1,0-3.1,1.2-3.1,1.2c-0.8,0.5-1.7,1.2-2.9,2.1c-4.1,3.1-8.4,6-12.6,9
			C48,30.5,45.2,39.6,49,47c0.7,1.3,1.4,2.6,2.8,3.4c0.1,0.2,0.2,0.3,0.3,0.4c0.1,0.2,0.2,0.3,0.4,0.4c1.1,2.8-2.7,5-1.1,7.8
			c0.4,0.3,0.7,0.6,1.1,0.8c0.5,0.8,1.1,1.6,1.6,2.3c0.6,10,0.9,19.9-0.1,29.9c-1.2,11.9-2.2,23.8-4.5,35.5
			c-0.3,0.1-4.2,4.2-0.6,6.7c0.3,0.2,1.4,1.4,6.2,2.8c1.4,0.4,2.7,0.7,4.1,1c0,0,4.3,1.2,14.9,1.2s14.1-1.2,14.1-1.2
			c1.6-0.3,3.2-0.6,4.8-1c2.8-0.7,5.9-2.6,6.2-2.8c3.6-2.5-0.3-6.7-0.6-6.7c-2.4-11.7-3.3-23.6-4.5-35.5c-1-9.9-0.7-19.9-0.1-29.9
			c0.5-0.8,1.1-1.6,1.6-2.3c0.4-0.3,0.7-0.6,1.1-0.8c1.5-2.8-2.3-5-1.1-7.8C95.8,51.1,95.9,51,96,50.8z"/>
	</g>
</g>
</svg>
