<?xml version="1.0" encoding="utf-8"?>
<!-- Generator: Adobe Illustrator 22.1.0, SVG Export Plug-In . SVG Version: 6.00 Build 0)  -->
<svg version="1.1" id="Layer_1" xmlns="http://www.w3.org/2000/svg" xmlns:xlink="http://www.w3.org/1999/xlink" x="0px" y="0px"
	 viewBox="0 0 150 150" style="enable-background:new 0 0 150 150;" xml:space="preserve">
<style type="text/css">
	.st0{fill:none;}
	.st1{fill:#FFFFFF;}
	.st2{fill:#D4AF37;}
</style>
<g>
	<rect class="st0" width="150" height="150"/>
</g>
<circle class="st1" cx="75.5" cy="75.3" r="54.1"/>
<g>
	<path class="st2" d="M96.7,50.8c0.1-0.1,0.2-0.3,0.3-0.4c1.4-0.8,2.2-2.1,2.8-3.4c3.7-7.4,1-16.5-6.5-21.8c-4.2-3-8.5-6-12.6-9
		c-1.1-0.8-2.1-1.5-2.9-2.1c0,0-1-1.2-3.1-1.2c-2.1,0-3.1,1.2-3.1,1.2c-0.8,0.5-1.7,1.2-2.9,2.1c-4.1,3.1-8.4,6-12.6,9
		C48.7,30.5,46,39.6,49.7,47c0.7,1.3,1.4,2.6,2.8,3.4c0.1,0.2,0.2,0.3,0.3,0.4c0.1,0.2,0.2,0.3,0.4,0.4c1.1,2.8-2.7,5-1.1,7.8
		c0.4,0.3,0.7,0.6,1.1,0.8c0.5,0.8,1.1,1.6,1.6,2.3c0.6,10,0.9,19.9-0.1,29.9c-1.2,11.9-2.2,23.8-4.5,35.5c-0.3,0.1-4.2,4.2-0.6,6.7
		c0.3,0.2,1.4,1.4,6.2,2.8c1.4,0.4,2.7,0.7,4.1,1c0,0,4.3,1.2,14.9,1.2s14.1-1.2,14.1-1.2c1.6-0.3,3.2-0.6,4.8-1
		c2.8-0.7,5.9-2.6,6.2-2.8c3.6-2.5-0.3-6.7-0.6-6.7c-2.4-11.7-3.3-23.6-4.5-35.5c-1-9.9-0.7-19.9-0.1-29.9c0.5-0.8,1.1-1.6,1.6-2.3
		c0.4-0.3,0.7-0.6,1.1-0.8c1.5-2.8-2.3-5-1.1-7.8C96.5,51.1,96.7,51,96.7,50.8z"/>
</g>
</svg>
