<?xml version="1.0" encoding="utf-8"?>
<!-- Generator: Adobe Illustrator 21.1.0, SVG Export Plug-In . SVG Version: 6.00 Build 0)  -->
<svg version="1.1" id="Layer_1" xmlns="http://www.w3.org/2000/svg" xmlns:xlink="http://www.w3.org/1999/xlink" x="0px" y="0px"
	 viewBox="0 0 140 70" style="enable-background:new 0 0 140 70;" xml:space="preserve">
<style type="text/css">
	.st0{fill:#D9D9D9;}
	.st1{fill:#93612D;}
</style>
<path class="st0" d="M116.2,60.6H23.8c-2.1,0-3.8-1.7-3.8-3.8V13.2c0-2.1,1.7-3.8,3.8-3.8h92.4c2.1,0,3.8,1.7,3.8,3.8v43.7
	C120,58.9,118.3,60.6,116.2,60.6z"/>
<path class="st1" d="M126.1,25.7c0,0-2.7-5.6-14.2-4S90.8,26,79.7,26.9c-2.1,0.2-4.7,0.3-7.5,0.5c-2.2,0-4.4-0.3-4.4-0.3
	s-1.1-5.2-9.6-6.3v-0.6c0,0,1.8-0.3,1.9-1.4c0.1-1.1-2.3-1.6-2.3-1.6v-0.7c0,0,2.3-1.7,2.3-3.9S56.8,7.8,56.8,6
	c0,1.8-3.2,4.5-3.2,6.7s2.3,3.9,2.3,3.9v0.7c0,0-2.4,0.5-2.3,1.6c0.1,1.1,1.9,1.4,1.9,1.4v0.6c-8.5,1-9.6,6.3-9.6,6.3
	c-2.2,0.9-8.5,0.6-8.5,0.6s-0.8-2.9,1.3-7.4c0,0-4.5-11.1-24.7-8.7c0,0-0.9,11.6,5.7,17.1c0,0,13.3,4.7,14.5,12.8
	c0,0-2.2-0.6-2.2,2.1c0,2.7,1.3,3.4,3.1,3.4s3.2-1.9,2.7-4.5c0,0,6.6,8.7,20.6,8.7h-2.7c0,0-1.2,4.1-6.2,5.7c-5,1.6-5.9,2.1-5.3,3.5
	c0.6,1.4,6.5,3.9,14.2,3.9s13.6-2.5,14.2-3.9s-0.3-1.9-5.3-3.5s-6.2-5.7-6.2-5.7H60c3.7-0.1,12.8-1.2,22.6-7.5
	C95.5,35.2,105.3,25.7,126.1,25.7z M32.9,32.4c-6.5-5.3-8.9-4.1-11.6-7.2s-1.7-10.7-1.7-10.7c11.3-1.6,16.6,5.3,16.6,5.3
	C33,25.3,32.9,32.4,32.9,32.4z"/>
</svg>
