<?xml version="1.0" encoding="utf-8"?>
<!-- Generator: Adobe Illustrator 21.1.0, SVG Export Plug-In . SVG Version: 6.00 Build 0)  -->
<svg version="1.1" id="Layer_1" xmlns="http://www.w3.org/2000/svg" xmlns:xlink="http://www.w3.org/1999/xlink" x="0px" y="0px"
	 viewBox="0 0 247 212" style="enable-background:new 0 0 247 212;" xml:space="preserve">
<style type="text/css">
	.st0{fill:#191919;}
	.st1{fill:#EB945C;}
	.st2{fill:#89664A;}
	.st3{fill:#DF75AB;}
	.st4{fill:#3BB2BF;}
</style>
<g>
	<path class="st0" d="M241.1,74.8c0.2-0.2,0.3-0.3,0.4-0.5c1.8-1,2.7-2.6,3.5-4.2c4.6-9.1,1.3-20.4-8-26.9
		c-5.2-3.7-10.4-7.4-15.5-11.1c-1.4-1-2.5-1.9-3.5-2.5c0,0-1.2-1.5-3.8-1.5c-2.6,0-3.8,1.5-3.8,1.5c-1,0.7-2.1,1.5-3.5,2.5
		c-5.1,3.8-10.3,7.5-15.5,11.1c-9.3,6.6-12.7,17.8-8,26.9c0.8,1.6,1.7,3.2,3.5,4.2c0.1,0.2,0.2,0.4,0.4,0.5c0.1,0.2,0.2,0.4,0.5,0.5
		c1.4,3.4-3.3,6.1-1.4,9.6c0.5,0.3,0.9,0.7,1.4,1c0.7,1,1.3,1.9,2,2.9c0.7,12.3,1.2,24.6-0.1,36.9c-1.5,14.6-2.7,29.3-5.6,43.8
		c-0.3,0.1-5.2,5.2-0.7,8.3c0.3,0.3,1.7,1.7,7.6,3.5c1.7,0.5,3.4,0.9,5.1,1.3c0,0,5.3,1.5,18.3,1.5c13,0,17.4-1.5,17.4-1.5
		c2-0.4,4-0.8,6-1.3c3.5-0.8,7.3-3.2,7.6-3.5c4.5-3.1-0.4-8.2-0.7-8.3c-2.9-14.5-4.1-29.2-5.6-43.8c-1.3-12.3-0.8-24.6-0.1-36.9
		c0.7-1,1.3-1.9,2-2.9c0.5-0.3,0.9-0.7,1.4-1c1.9-3.5-2.8-6.2-1.4-9.6C240.8,75.2,241,75,241.1,74.8z"/>
	<path class="st1" d="M202.2,68.8c0.2-0.2,0.4-0.4,0.5-0.6c2.1-1.2,3.2-3.1,4.2-5c5.5-10.9,1.5-24.3-9.6-32.1
		c-6.2-4.4-12.4-8.8-18.5-13.3c-1.7-1.2-3-2.2-4.2-3c0,0-1.5-1.8-4.6-1.8c-3.1,0-4.6,1.8-4.6,1.8c-1.2,0.8-2.5,1.8-4.2,3
		c-6.1,4.5-12.3,8.9-18.5,13.3c-11.1,7.9-15.1,21.2-9.6,32.1c1,2,2,3.8,4.2,5c0.1,0.2,0.3,0.5,0.5,0.6c0.1,0.3,0.3,0.5,0.6,0.6
		c1.7,4.1-3.9,7.3-1.6,11.5c0.6,0.4,1.1,0.8,1.7,1.2c0.8,1.1,1.6,2.3,2.3,3.4c0.8,14.7,1.4,29.3-0.1,43.9c-1.8,17.5-3.2,35-6.7,52.2
		c-0.4,0.1-6.2,6.2-0.9,9.9c0.4,0.4,2.1,2,9.1,4.1c2,0.6,4,1.1,6,1.5c0,0,6.3,1.8,21.9,1.8s20.8-1.8,20.8-1.8c2.4-0.4,4.7-1,7.1-1.5
		c4.2-1,8.7-3.8,9.1-4.1c5.4-3.7-0.5-9.8-0.9-9.9c-3.5-17.3-4.8-34.8-6.7-52.2c-1.5-14.6-1-29.3-0.1-43.9c0.8-1.1,1.6-2.3,2.3-3.4
		c0.5-0.4,1.1-0.8,1.7-1.2c2.3-4.2-3.3-7.4-1.6-11.5C202,69.3,202.2,69.1,202.2,68.8z"/>
	<path class="st2" d="M61.9,73.9c0.2-0.2,0.3-0.4,0.4-0.6c1.8-1,2.7-2.6,3.6-4.3c4.8-9.4,1.3-21-8.3-27.8c-5.4-3.8-10.7-7.6-16-11.5
		c-1.4-1.1-2.6-1.9-3.6-2.6c0,0-1.3-1.5-3.9-1.5c-2.7,0-3.9,1.5-3.9,1.5c-1,0.7-2.2,1.6-3.6,2.6c-5.3,3.9-10.6,7.7-16,11.5
		C0.8,48-2.6,59.5,2.1,69c0.9,1.7,1.8,3.3,3.6,4.3c0.1,0.2,0.2,0.4,0.4,0.6c0.1,0.2,0.2,0.4,0.5,0.5c1.5,3.5-3.4,6.3-1.4,9.9
		c0.5,0.4,1,0.7,1.4,1.1c0.7,1,1.3,2,2,3c0.7,12.7,1.2,25.3-0.1,38c-1.6,15.1-2.8,30.2-5.8,45.1c-0.3,0.1-5.4,5.4-0.7,8.6
		c0.3,0.3,1.8,1.8,7.9,3.6c1.7,0.5,3.5,0.9,5.2,1.3c0,0,5.5,1.5,18.9,1.5s18-1.5,18-1.5c2-0.4,4.1-0.8,6.2-1.3
		c3.6-0.9,7.5-3.3,7.9-3.6c4.6-3.2-0.4-8.5-0.7-8.6c-3-14.9-4.2-30.1-5.8-45.1c-1.3-12.6-0.9-25.3-0.1-38c0.7-1,1.3-2,2-3
		c0.5-0.4,1-0.7,1.4-1.1c2-3.6-2.9-6.4-1.4-9.9C61.6,74.3,61.8,74.1,61.9,73.9z"/>
	<path class="st3" d="M100.5,69.7c0.2-0.2,0.3-0.4,0.5-0.6c2.1-1.1,3.1-3,4.1-4.9c5.4-10.6,1.5-23.7-9.4-31.3
		c-6.1-4.3-12.1-8.6-18.1-13c-1.6-1.2-3-2.2-4.1-3c0,0-1.4-1.7-4.5-1.7c-3,0-4.5,1.7-4.5,1.7c-1.1,0.8-2.5,1.8-4.1,3
		c-5.9,4.4-12,8.7-18.1,13C31.5,40.5,27.6,53.6,33,64.2c1,1.9,2,3.7,4.1,4.9c0.1,0.2,0.3,0.4,0.5,0.6c0.1,0.3,0.3,0.5,0.6,0.5
		c1.7,4-3.8,7.1-1.6,11.2c0.5,0.4,1.1,0.8,1.6,1.2c0.8,1.1,1.5,2.2,2.3,3.3c0.8,14.3,1.3,28.6-0.1,42.9c-1.8,17-3.1,34.1-6.5,51
		c-0.4,0.1-6.1,6.1-0.8,9.7c0.4,0.4,2,2,8.9,4c2,0.6,3.9,1.1,5.9,1.5c0,0,6.2,1.7,21.3,1.7s20.3-1.7,20.3-1.7c2.3-0.4,4.6-0.9,7-1.5
		c4.1-1,8.5-3.7,8.9-4c5.2-3.6-0.4-9.6-0.8-9.7c-3.4-16.9-4.7-33.9-6.5-51c-1.5-14.3-1-28.6-0.1-42.9c0.8-1.1,1.5-2.2,2.3-3.3
		c0.5-0.4,1.1-0.8,1.6-1.2c2.2-4.1-3.3-7.2-1.6-11.2C100.2,70.2,100.4,70,100.5,69.7z"/>
	<path class="st4" d="M160.7,63.6c0.2-0.2,0.4-0.5,0.5-0.7c2.4-1.3,3.6-3.5,4.7-5.7c6.3-12.4,1.7-27.6-10.9-36.6
		c-7.1-5-14.2-10-21.1-15.1c-1.9-1.4-3.5-2.6-4.8-3.5c0,0-1.7-2-5.2-2c-3.5,0-5.2,2-5.2,2c-1.3,0.9-2.9,2-4.8,3.5
		c-6.9,5.2-14,10.1-21.1,15.1C80.3,29.6,75.7,44.8,82,57.2c1.1,2.2,2.3,4.4,4.7,5.7c0.1,0.3,0.3,0.5,0.5,0.7
		c0.1,0.3,0.3,0.5,0.6,0.6c1.9,4.7-4.5,8.3-1.9,13.1c0.6,0.5,1.3,0.9,1.9,1.4c0.9,1.3,1.8,2.6,2.7,3.9c1,16.7,1.6,33.4-0.2,50.1
		c-2.1,19.9-3.6,39.8-7.6,59.5c-0.5,0.1-7.1,7.1-1,11.3c0.4,0.4,2.4,2.3,10.4,4.7c2.3,0.7,4.6,1.2,6.9,1.7c0,0,7.2,2,24.9,2
		s23.7-2,23.7-2c2.7-0.5,5.4-1.1,8.1-1.7c4.7-1.1,9.9-4.3,10.4-4.7c6.1-4.2-0.5-11.2-1-11.3c-4-19.7-5.5-39.6-7.6-59.5
		c-1.7-16.7-1.1-33.4-0.2-50.1c0.9-1.3,1.8-2.6,2.7-3.9c0.6-0.5,1.3-0.9,1.9-1.4c2.6-4.7-3.8-8.4-1.9-13.1
		C160.4,64.2,160.6,63.9,160.7,63.6z"/>
</g>
</svg>
