<?xml version="1.0" encoding="utf-8"?>
<!-- Generator: Adobe Illustrator 21.1.0, SVG Export Plug-In . SVG Version: 6.00 Build 0)  -->
<svg version="1.1" id="Layer_1" xmlns="http://www.w3.org/2000/svg" xmlns:xlink="http://www.w3.org/1999/xlink" x="0px" y="0px"
	 viewBox="0 0 247 212" style="enable-background:new 0 0 247 212;" xml:space="preserve">
<style type="text/css">
	.st0{fill:#D4BF7B;}
</style>
<g>
	<g>
		<path class="st0" d="M160.7,63.6c0.2-0.2,0.4-0.5,0.5-0.7c2.4-1.3,3.6-3.5,4.7-5.7c6.3-12.4,1.7-27.6-10.9-36.6
			c-7.1-5-14.2-10-21.1-15.1c-1.9-1.4-3.5-2.6-4.8-3.5c0,0-1.7-2-5.2-2c-3.5,0-5.2,2-5.2,2c-1.3,0.9-2.9,2-4.8,3.5
			c-6.9,5.2-14,10.1-21.1,15.1C80.3,29.6,75.7,44.8,82,57.2c1.1,2.2,2.3,4.4,4.7,5.7c0.1,0.3,0.3,0.5,0.5,0.7
			c0.1,0.3,0.3,0.5,0.6,0.6c1.9,4.7-4.5,8.3-1.9,13.1c0.6,0.5,1.3,0.9,1.9,1.4c0.9,1.3,1.8,2.6,2.7,3.9c1,16.7,1.6,33.4-0.2,50.1
			c-2.1,19.9-3.6,39.8-7.6,59.5c-0.5,0.1-7.1,7.1-1,11.3c0.4,0.4,2.4,2.3,10.4,4.7c2.3,0.7,4.6,1.2,6.9,1.7c0,0,7.2,2,24.9,2
			s23.7-2,23.7-2c2.7-0.5,5.4-1.1,8.1-1.7c4.7-1.1,9.9-4.3,10.4-4.7c6.1-4.2-0.5-11.2-1-11.3c-4-19.7-5.5-39.6-7.6-59.5
			c-1.7-16.7-1.1-33.4-0.2-50.1c0.9-1.3,1.8-2.6,2.7-3.9c0.6-0.5,1.3-0.9,1.9-1.4c2.6-4.7-3.8-8.4-1.9-13.1
			C160.4,64.2,160.6,63.9,160.7,63.6z"/>
	</g>
	<g>
		<path d="M136.5,82.1c-1.4,0-2.8,0-4.2,0c-0.3,0-0.8,0.2-1,0.4c-0.7,0.8-1.6,1.1-2.6,1.1c-3.4,0-6.7,0-10.1,0
			c-0.9,0-1.8-0.2-2.5-0.9c-0.8-0.8-1.9-0.9-2.9-1.1c-1.2-0.4-2.5-0.6-3.7-1c-1.7-0.5-3.2-1.4-4.4-2.7c-5.6-5.6-11.1-11.2-16.7-16.7
			c-0.5-0.5-0.7-1.1-0.7-1.7c-0.1-3.9,0.6-7.6,2-11.2c0.5-1.5,0.8-3,0.9-4.5c0.2-2.6,0.4-5.2,0.7-7.8c0.2-2.1,0.5-4.2,0.7-6.4
			c0.3-3.4,1.9-6.2,3.9-8.9c1.8-2.5,4.3-4.2,6.8-5.8c1.9-1.2,3.9-2,5.9-2.9c1.4-0.6,2.7-1.4,3.9-2.2c1.2-0.8,2.4-1.2,3.8-1.3
			c4.6-0.3,9,0.8,13,2.9c0.5,0.3,0.9,0.7,1.2,1.2c0.6,1.2,1.2,2.4,1.8,3.6c0.2,0.3,0.4,0.7,0.7,0.9c1.2,1.2,2,2.6,2.8,4
			c0.6,1.1,1.4,2.2,2.4,3.1c0.9,0.7,1.8,1.1,3,1c1.8-0.2,3.5,0.2,5.3,0.7c4.3,1.3,7.6,3.8,10.4,7.3c3.4,4.3,5.6,9.1,6.8,14.4
			c0.4,1.7,0.3,3.3-0.1,5c-0.4,1.8-0.8,3.6-1.5,5.2c-0.8,1.9-1.8,3.6-3,5.3c-2,3.1-4.2,6-6.3,9c-0.7,1.1-1.2,2.3-1.8,3.4
			c-0.3,0.6-0.5,1.3-0.9,1.8c-0.3,0.4-0.8,0.8-1.2,1c-1,0.5-2,1-2.9,1.8c-1,0.9-2.1,1.5-3.3,1.9c-0.6,0.2-1.4,0.2-2,0.3
			C139.1,82.1,137.8,82.1,136.5,82.1C136.5,82.1,136.5,82.1,136.5,82.1z M124.3,83.1C124.3,83.1,124.3,83,124.3,83.1
			c1.3,0,2.5,0,3.8-0.1c1.1,0,2.1-0.2,2.8-1.1c0.2-0.2,0.6-0.4,0.9-0.4c3.1-0.1,6.1-0.1,9.2-0.1c0.3,0,0.5,0,0.8-0.1
			c1.4-0.3,2.5-1.1,3.7-1.9c0.9-0.6,1.8-1.2,2.8-1.7c0.6-0.3,1.1-0.7,1.5-1.3c0.2-0.5,0.5-0.9,0.6-1.4c0.5-1.4,1.2-2.6,2.1-3.8
			c2.3-3.2,4.6-6.5,6.8-9.8c0.9-1.4,1.7-2.8,2.3-4.3c0.7-1.7,1.1-3.5,1.5-5.2c0.2-1,0.4-2,0.3-2.9c-0.2-1.6-0.7-3.2-1.2-4.8
			c-1.6-4.8-4-9.1-7.6-12.7c-3.9-3.8-8.4-6.1-14.1-5.7c-0.8,0-1.4-0.2-2-0.6c-1.4-0.9-2.3-2.3-3.1-3.7c-0.7-1.2-1.4-2.4-2.3-3.4
			c-0.7-0.8-1.3-1.6-1.8-2.6c-0.4-0.7-0.7-1.4-1-2.2c-0.3-0.8-0.9-1.3-1.6-1.7c-3.8-1.8-7.8-3-12.1-2.6c-1.2,0.1-2.3,0.3-3.2,1
			c-1.7,1.2-3.5,2.2-5.4,2.9c-1.4,0.5-2.8,1.1-4,2c-0.8,0.5-1.6,1.1-2.4,1.6c-3.6,2.2-6,5.5-7.8,9.3c-1,2.1-1,4.5-1.4,6.8
			c-0.2,1.5-0.3,3-0.4,4.5c-0.2,2.1-0.3,4.3-0.5,6.4c-0.2,1.6-0.3,3.2-0.8,4.7c-1.1,3.3-2,6.6-2.1,10.1c0,1,0,2,0.9,2.8
			c5.5,5.4,10.9,10.9,16.3,16.3c1.2,1.2,2.8,2.2,4.5,2.7c1.1,0.3,2.1,0.6,3.2,0.9c1.4,0.4,2.8,0.6,3.9,1.6c0.2,0.2,0.6,0.3,1,0.4
			C120.1,83,122.2,83,124.3,83.1z"/>
		<path d="M142,28.9c-1.2,0.1-2.4,0.2-3.5,0.2c-1,0.1-2,0.1-3,0.1c-1.4,0.1-2.8,0.3-4.1,0.4c-1.5,0.1-3,0.3-4.6,0.4
			c-0.7,0.1-1.5,0.1-2.2,0c-0.5-0.1-0.9-0.3-1.4-0.5c-0.2,0.3-0.3,0.5-0.5,0.8c-0.3,0.4-0.7,0.7-1.3,0.4c-0.1,0-0.2,0-0.3,0
			c-0.2,0-0.7,0-0.7-0.1c0-0.4-0.1-0.8,0.1-1.1c0.1-0.3,0.5-0.3,0.7,0c0.2,0.2,0.3,0.4,0.6,0.7c0.2-0.4,0.6-0.8,0.5-1.1
			c-0.1-0.3-0.5-0.6-0.8-0.8c-0.3-0.2-0.6-0.6-0.5-1.3c0.3,0.1,0.6,0.1,0.9,0.3c0.4,0.3,0.7,0.7,1.1,1c0.5,0.3,1,0.8,1.6,0.9
			c0.9,0.2,1.9,0.2,2.8,0.1c1.7-0.2,3.4-0.5,5.2-0.7c1.3-0.1,2.7-0.2,4.1-0.2c1.8-0.1,3.7-0.2,5.5-0.3c0.5,0,1-0.2,1.5-0.1
			c0.3,0,0.7,0.2,1,0.5c0.9,0.9,1.6,1.9,2,3.1c0.3,0.9,0,1.7-0.3,2.5c-0.2,0.7-0.4,1.4-0.7,2.1c-0.1,0.2-0.2,0.4-0.4,0.6
			c-0.2-0.7-0.3-1.3,0.2-1.9c0.3-0.4,0.4-1.1,0.5-1.6c0.1-0.4,0.1-0.9,0-1.3c-0.1-0.5-0.2-1-0.5-1.4c-0.5-0.7-1-1.4-1.5-2
			c-1.6,0.6-2.7,1.7-3.3,3.4c-0.4,1.2-1.1,2.3-1.6,3.5c-0.5,1.1-1.5,1.6-2.6,1.9c-1.1,0.4-2.2,0.6-3.3,0.9c-0.4,0.1-0.7,0.1-1.2,0.1
			c0.2,0.3,0.4,0.6,0.5,0.8c0.1,0.3,0.2,0.6,0.3,0.9c0,0.1-0.1,0.3-0.2,0.3c-0.1,0-0.3-0.1-0.4-0.2c-0.2-0.5-0.4-1-0.6-1.5
			c-0.1-0.3-0.3-0.4-0.6-0.3c-0.5,0.1-1,0.3-1.6,0.4c0.3,0.3,0.6,0.4,0.7,0.6c0.2,0.3,0.4,0.6,0.6,1c0.1,0.1-0.1,0.3-0.1,0.5
			c-0.2-0.1-0.4-0.1-0.4-0.2c-0.4-0.5-0.8-1.1-1.2-1.7c-0.3,0.1-0.7,0.2-1,0.3c0.4,0.5,0.9,1,1.4,1.4c-0.1,0.1-0.1,0.1-0.2,0.2
			c-0.3-0.2-0.5-0.4-0.8-0.6c-0.5-0.3-1-0.6-1.5-0.8c-0.2-0.1-0.5,0.1-0.7,0.2c-0.6,0.3-1.2,0.8-2,0.6c-0.6-0.1-1.1-0.3-1.7-0.5
			c-0.2-0.1-0.4-0.2-0.6-0.3c-0.9,0.6-0.7,1.6-1,2.4c-0.4-0.9-0.3-1.8,0.4-2.6c-0.5-0.3-0.8-0.3-1.1,0.2c-0.2,0.3-0.3,0.6-0.5,0.9
			c-0.1,0.1-0.2,0.3-0.4,0.3c-0.2-0.9,0.5-1.2,1-1.8c-0.5-0.2-0.8-0.3-1.3,0.1c-0.8,0.7-1.7,0.5-2.6,0.5c-1.5-0.1-3-0.2-4.4-0.4
			c-0.8-0.1-1.6-0.2-2.1-0.8c-0.1-0.1-0.1-0.1-0.2-0.2c-0.6-0.4-0.9-0.7-1.1-1.4c-0.1,0.3-0.1,0.4-0.1,0.6c-0.1,0.1-0.2,0.3-0.3,0.3
			c-0.1,0-0.4-0.1-0.4-0.1c0-0.2,0-0.4,0.1-0.5c0.1-0.2,0.3-0.4,0.5-0.5c0.1-0.1,0.3-0.1,0.5-0.2c0-0.7,0.7-1.1,1.3-1.4
			c1.4-0.8,2.8-1.5,4.2-2.1c1.6-0.7,2.4-2,2.7-3.7c0.1-0.3,0.2-0.6,0.3-0.8c0.1-0.2,0.1-0.6,0.4-0.5c0.1,0,0.3,0.4,0.2,0.6
			c-0.2,0.8-0.4,1.5-0.6,2.3c-0.1,0.3-0.2,0.6-0.3,0.9c0.7,0.2,0.9,0,0.9-0.6c0-0.7,0.2-0.9,0.7-0.9c0.3,0,0.4,0.1,0.4,0.4
			c0.1,0.9-1.1,2.3-2.3,1.8c-0.1-0.1-0.3,0-0.5,0.1c-1.2,0.7-2.5,1.4-3.7,2.1c-1.1,0.6-2.3,1.1-3.3,2.1c0.7-0.1,1.4-0.2,2-0.2
			c0.3,0,0.7,0,0.9,0.3c0.2,0.3,0.5,0.4,0.8-0.1c0.2-0.3,0.6-0.4,0.9-0.6c0,0.1,0.1,0.1,0.1,0.2c-0.2,0.2-0.4,0.5-0.6,0.7
			c0.4,0.2,0.8,0.5,1.1,0.4c0.4-0.1,0.8-0.4,1.2-0.7c0.2-0.2,0.3-0.3,0.6-0.1c0.7,0.5,1.1,0.4,1.7-0.2c0.1-0.1,0.2-0.2,0.3-0.3
			c0.1,0.4,0.1,0.7,0.3,1c0.1,0.1,0.3,0.2,0.5,0.2c0.1,0,0.3-0.2,0.4-0.3c0.1-0.3,0.2-0.6,0.3-0.8c0.1,0,0.1,0,0.2,0
			c0,0.2,0,0.5,0.1,0.7c0.1,0.2,0.2,0.5,0.4,0.6c0.4,0.1,0.4-0.2,0.5-0.5c0-0.1,0.1-0.1,0.1-0.3c0.2,0.2,0.3,0.3,0.4,0.4
			c0.3,0.4,0.7,0.5,1.2,0.3c1.3-0.6,2.6-1.2,4.1-1c0.2,0,0.4-0.1,0.7-0.1c-0.4-0.2-0.7-0.3-0.8-0.5c-0.2-0.2-0.3-0.5-0.4-0.7
			c0.7-0.3,1.1-0.2,1.6,0.3c0.3,0.3,0.6,0.5,1.1,0.3c-0.1-0.1-0.2-0.3-0.3-0.3c-0.1-0.1-0.4-0.1-0.5-0.2c-0.2-0.2-0.4-0.4-0.5-0.6
			c0-0.1,0.1-0.3,0.2-0.3c0.2,0,0.5,0,0.7,0.1c0.1,0,0.2,0.2,0.3,0.3c0.6,0.5,0.6,0.5,1.5,0c-0.2,0-0.4,0-0.6-0.1
			c-0.2-0.1-0.4-0.3-0.4-0.5c0.1-0.2,0.3-0.4,0.5-0.4c0.2,0,0.5,0.1,0.7,0.2c0.2,0.1,0.4,0.2,0.7,0.3c0-0.2,0-0.2,0-0.3
			c0-0.2-0.1-0.3-0.1-0.5c0.2,0,0.4,0,0.5,0.2c0.5,0.5,1.3,0.5,2-0.1c-0.5-0.3-0.9-0.5-1.3-0.8c-0.5-0.3-0.6-0.6-0.2-1
			c0.3-0.2,0.8-0.5,1.2-0.4c0.6,0.1,1.2,0.4,1.3,1.2c-0.4-0.1-0.7-0.2-1.1-0.3c0.4,0.7,0.8,0.8,1.4,0.4c0.4-0.3,0.8-0.5,1.3-0.9
			c-0.4-0.1-0.7-0.1-0.9-0.1c-0.1,0-0.2-0.1-0.4-0.2c0.1-0.1,0.2-0.3,0.4-0.3c0.4,0,0.9,0.1,1.3,0.2c0.2,0,0.4-0.1,0.6-0.1
			c-0.1-0.1-0.2-0.3-0.4-0.4c-0.2-0.1-0.4-0.2-0.6-0.3c0.3-0.2,1.2-0.2,1.5,0.1c0.3,0.3,0.5,0.2,0.8,0c0.9-0.5,1.8-0.9,2.7-1.4
			C141.6,29.2,141.7,29.1,142,28.9z M120.6,38.5c0,0,0,0.1,0,0.1c0.8,0.3,1.7,0.7,2.5,1c0.5,0.2,1,0.1,1.3-0.4
			c0.1-0.2,0.1-0.5,0.1-0.8c0.1,0.1,0.2,0.2,0.2,0.3c0.2,0.4,0.5,0.6,0.9,0.4c0.3-0.1,0.4-0.4,0.3-0.7c-0.1-0.1-0.3-0.2-0.5-0.2
			c-0.8,0-1.5,0.1-2.3,0.2C122.3,38.4,121.4,38.4,120.6,38.5z M134.3,34.8c0.1,0.4,0.2,0.7,0.4,1c0.2,0.3,0.3,0.7,0.6,0.8
			c0.5,0.2,1.2-0.6,1-1.2c-0.2-0.5-0.4-1-0.6-1.6C135.3,34.1,134.8,34.5,134.3,34.8z M137.4,32.7c-0.4,0.2-0.7,0.5-1.1,0.7
			c-0.4,0.3-0.2,0.7,0,0.9c0.2,0.3,0.2,0.9,0.8,0.9c0.8,0,1.2-0.9,0.9-1.6C137.8,33.4,137.6,33.1,137.4,32.7z M140.8,30.6
			c-1,0.6-1.8,1.2-2.7,1.7c-0.1,0.1-0.3,0.3-0.3,0.4c0.1,0.2,0.3,0.4,0.5,0.5c0.5,0.1,1.5-0.4,1.7-0.9
			C140.3,31.8,140.5,31.2,140.8,30.6z M132.5,36c0.3,0.7,0.7,1.3,1.6,1.2c0.6-0.1,0.7-0.1,0.5-0.7c-0.2-0.5-0.4-0.9-0.7-1.5
			C133.4,35.4,133,35.7,132.5,36z M126.2,38c0.1,0.6,0.4,0.7,1.9,0.6c0.7,0,1.1-0.4,1.1-1C128.2,37.8,127.2,37.9,126.2,38z
			 M131.1,37.3c-0.1,0-0.1-0.1-0.2-0.1c-0.4,0.1-0.7,0.2-1.1,0.3c-0.1,0-0.1,0.3-0.1,0.5c0.4,0,0.7,0.1,1.1,0
			C130.9,37.9,131,37.5,131.1,37.3z M131.4,36.9c0,0.1,0,0.1,0,0.2c0.2,0,0.5,0,0.6-0.1c0.1-0.1,0.1-0.4,0.2-0.6c0,0-0.1,0-0.1-0.1
			C131.8,36.5,131.6,36.7,131.4,36.9z"/>
		<path d="M110,31c0.2-0.3,0.2-0.4,0.4-0.6c-0.2-0.1-0.4-0.1-0.5-0.1c-1.2,0.2-2.2-0.3-3.1-1.1c-0.8-0.6-0.8-1.4-0.7-2.2
			c0.1-0.6,0.2-1.1,0.4-1.7c0.1-0.2,0.2-0.4,0.4-0.5c0.6-0.3,1.3-0.7,1.9-0.9c0.4-0.1,0.9,0,1.3,0.1c0.7,0.3,1.3,0.8,2.1,1.2
			c0-0.4,0-0.7-0.1-1.1c-0.1-0.9-0.5-1-1.4-1.2c-1.2-0.2-2.3-0.4-3.4,0c0.4-0.7,1.2-0.6,1.8-0.7c0.6,0,1.3,0.2,2,0.2
			c-0.2-0.2-0.5-0.4-0.7-0.6c0-0.1,0.1-0.1,0.1-0.2c0.1,0,0.3,0,0.4,0.1c0.3,0.2,0.5,0.3,0.7,0.5c1.1,0.8,0.9,2,0.9,3.1
			c0,0.3,0,0.7,0.1,1c0.1,0.9,0.2,1.9,0.3,2.8c0,0.2-0.1,0.4-0.2,0.6c-0.1,0.1-0.2,0.3-0.2,0.5c0.5-0.4,0.9-0.8,1.2-1.4
			c0.1-0.3,0.2-0.6,0.4-0.9c0.1-0.1,0.2-0.2,0.3-0.2c0.1,0,0.1,0.2,0.2,0.3c0.3,0.6-0.1,1-0.5,1.4c-0.3,0.4-0.7,0.8-1,1.2
			c-0.7,1-1.5,1.9-2.4,2.7c-0.6,0.5-1.2,1.2-1.7,1.7c-0.1,0.1-0.2,0.1-0.3,0.2c0-0.3,0-0.5,0-0.5c0.4-0.4,0.7-0.6,1-0.9
			c0,0-0.1-0.1-0.1-0.1c-0.2,0-0.3,0-0.5,0c0,0-0.1-0.1-0.1-0.1c0.1-0.1,0.3-0.4,0.4-0.4c1.1,0.2,1.5-0.8,2.1-1.4c0-0.1,0-0.1,0-0.2
			c-0.2,0-0.4,0.1-0.6,0.1c-0.3,0.1-0.6,0.3-0.9,0.4c-0.1,0-0.3-0.1-0.5-0.2c1.8-0.4,2.3-1.8,2.7-3.3C111.6,29.7,111.4,30.9,110,31z
			 M107.4,26.1c0.3,0.2,0.5,0.5,0.7,0.6c0.6,0,0.7,0.4,0.7,0.9c0,0.3,0.1,0.6,0.1,0.8c0,0.4,0.2,0.5,0.5,0.3
			c0.6-0.4,1.1-0.7,1.6-1.1c0.5-0.4,0.3-1.3-0.2-1.6c-0.6-0.3-1.2-0.5-1.6-0.7C108.6,25.6,108.1,25.8,107.4,26.1z"/>
		<path d="M127.6,25.9c-0.4,0.2-0.8,0.3-1.2,0.5c-0.6,0.4-1,0.3-1.2-0.3c-0.3-0.8-0.6-1.6-0.8-2.5c-0.2-1.5,0.6-2.8,2.2-3.1
			c0.6-0.1,1.2,0.1,1.8,0.2c0.2,0,0.4,0.3,0.5,0.5c0.3,1.2,0.5,2.3,0.2,3.5C128.9,25.6,128.3,26.1,127.6,25.9z M128.4,23.3
			c0-0.7-0.6-1.3-1.2-1.1c-0.3,0.1-0.7,0.2-1,0.3c-0.4,0.1-0.5,0.4-0.4,0.7c0.1,0.4,0.3,0.8,0.4,1.2c0.1,0.4,0.4,0.5,0.7,0.5
			C127.7,24.9,128.4,24.1,128.4,23.3z"/>
		<path d="M143.1,59.7c0.2-0.7,0.4-1.3,0.6-2c0.3-0.8,0.5-1.5,0.8-2.3c0.3-0.8,0.7-1.5,1-2.2c0.3-0.6,0.5-1.3,0.6-1.9
			c0.2-1.5,1.2-2.6,2-3.8c0.4-0.6,0.9-1.3,1.3-1.9c0.6-1.1,1.2-2.2,1.7-3.4c0.1-0.3,0-0.7,0-1c0-0.3,0.1-0.6,0.5-0.7
			c0.2,0,0.5,0.2,0.5,0.2c0,0.7,0.4,1.4,0,2c-0.4,0.6-0.8,1.3-1.2,1.9c-0.4,0.6-0.9,1.2-1.3,1.9c-0.9,1.4-2,2.7-2.6,4.4
			c-0.1,0.4-0.2,0.8-0.3,1.2c0,0.1-0.1,0.3-0.1,0.4c-0.7,1.5-1.5,2.9-2.1,4.4c-0.3,0.7-0.8,1.5-0.6,2.4c0.1,0.4-0.1,0.8-0.1,1.1
			c0,0.1-0.2,0.2-0.3,0.4c-0.1-0.1-0.2-0.3-0.2-0.4c0-0.2,0-0.4,0-0.6C143.1,59.7,143.1,59.7,143.1,59.7z"/>
		<path d="M115.1,41.7c0.2,0,0.5,0,0.7,0.1c0.8,0.3,1.6,0.6,2.4,0.8c1.4,0.4,2.9,0.8,4.3,1.2c0.6,0.2,1.1,0.4,1.6,0.6
			c0.2,0.1,0.5,0.1,0.7,0.1c-0.1-0.3-0.2-0.5-0.3-0.8c0,0,0.1,0,0.1-0.1c0.2,0.2,0.5,0.4,0.7,0.6c0.6,0.5,1.4,0.6,2.1,0.3
			c1.1-0.4,2.2-1,3.2-1.5c0,0,0.1,0,0.1-0.1c0.3-0.7,1-0.5,1.6-0.6c0.9-0.2,1.6-0.5,2.3-1.1c0.3-0.3,0.7-0.5,1-0.8
			c0.8-0.6,1.5-1.2,2.2-1.7c1.3-1,2.2-2.3,3.1-3.6c0.5-0.6,0.8-1.4,1.2-2.1c0,0.3-0.1,0.6-0.1,0.8c-0.3,1.1-0.9,2.1-1.7,2.9
			c-0.6,0.6-1.1,1.2-1.6,1.8c-0.8,1-1.9,1.6-2.9,2.3c-0.4,0.2-0.8,0.5-1,0.8c-0.7,0.7-1.5,1-2.4,1.3c-0.6,0.2-1.1,0.5-1.6,0.7
			c-1.2,0.6-2.5,1.2-3.8,1.7c-0.3,0.1-0.8,0.1-1.2,0c-0.3,0-0.7-0.1-1-0.1c-0.6,0-1-0.2-1.5-0.4c-0.6-0.3-1.4-0.5-2.1-0.7
			c-1.5-0.5-3.1-0.9-4.6-1.4c-0.5-0.2-1-0.4-1.5-0.6c-0.1,0-0.2-0.2-0.3-0.3C115.1,41.8,115.1,41.7,115.1,41.7z"/>
		<path d="M122,15.9c-0.5,0.6-1,1.2-1.5,1.9c-0.2,0.3-0.5,0.6-0.7,0.9c-0.6,0.7-1.4,1.2-2.3,1.5c-1,0.3-2,0.7-3.1,0.6
			c-0.4,0-0.8-0.1-1.1-0.2c-1.3-0.8-2.7-1.2-4.2-1.2c-0.2,0-0.4-0.1-0.6-0.1c0-0.1,0-0.1,0-0.2c0.2-0.1,0.4-0.1,0.6-0.2
			c1.1-0.2,2.1,0,3.2,0.3c1.3,0.3,2.5,0,3.7-0.6c0.7-0.4,1.4-0.8,2.2-1.1c0.2-0.1,0.4-0.1,0.7-0.1c0,0.1,0,0.1,0.1,0.2
			c-0.2,0.1-0.3,0.3-0.5,0.4c-1.1,0.5-2.2,1.1-3.3,1.6c-0.2,0.1-0.4,0.3-0.6,0.4c0,0.1,0,0.2,0.1,0.2c0.3,0,0.6,0,0.8-0.1
			c1.2-0.5,2.4-1,3.5-1.7c0.4-0.2,0.6-0.6,1-0.9c0.6-0.6,1.3-1.2,1.9-1.8c0,0,0.1,0,0.1,0C121.9,15.8,122,15.8,122,15.9z"/>
		<path d="M118.5,66.4c-0.3-0.4-0.5-0.8-0.8-1.1c-1.1-1.1-2.2-2.1-3.3-3.1c0,0-0.1-0.1-0.1-0.1c-0.5-1.1-1.1-2.2-1.6-3.4
			c-0.5-1.1-1-2.2-2-2.9c-0.6-0.5-1.1-1-1.6-1.6c-0.2-0.2-0.4-0.5-0.5-0.8c0-0.2,0.1-0.5,0.2-0.7c0.2,0.1,0.4,0.1,0.5,0.2
			c0.4,0.5,0.8,1.1,1.2,1.6c0.5,0.6,1.1,1.2,1.6,1.8c0.4,0.5,0.8,1,1,1.5c0.4,1.4,1.2,2.5,2.1,3.6c0.6,0.7,1.2,1.3,1.7,2
			c0.5,0.7,1,1.4,1.4,2.1C118.5,65.8,118.8,66.2,118.5,66.4z"/>
		<path d="M100.4,60.7c0,0.3,0.1,0.5,0.1,0.8c-0.1,1.3-0.1,2.7-0.3,4c-0.1,1.3,0.5,2.5,1.7,3.1c0.2,0.1,0.3,0.3,0.5,0.5
			c0.5,0.4,0.9,0.8,1.4,1.2c0.1,0.1,0.2,0.1,0.2,0.2c0.1,0.2,0.4,0.6,0.3,0.7c-0.3,0.3-0.5,0-0.8-0.2c-0.8-0.4-1.4-1.1-2-1.8
			c-0.3-0.4-0.8-0.5-1.1-0.8c-0.4-0.3-0.7-0.7-1-1.1c-0.4-0.6-0.4-1.2-0.3-1.9c0.1-0.9,0.1-1.8,0.2-2.6c0.1-0.6,0.3-1.3,0.5-1.9
			c0.1-0.2,0.3-0.3,0.4-0.4C100.3,60.6,100.4,60.7,100.4,60.7z"/>
		<path d="M141.3,79.3c-0.9,0.2-1.7,0.5-2.6,0.7c-1.3,0.3-2.6,0.5-3.9,0c-0.2-0.1-0.5-0.3-0.6-0.5c-0.1-0.1,0-0.4,0-0.6
			c0.2,0,0.4,0,0.6,0.1c0.8,0.7,1.6,0.8,2.6,0.3c0.6-0.3,1.2-0.8,1.9-0.7c0.5,0,1.1,0.1,1.6,0.1c0.6-0.1,1.1-0.3,1.6-0.6
			c0.3-0.2,0.4-0.6,0.6-0.9c0.2-0.3,0.4-0.7,0.7-1c0.2-0.1,0.5-0.1,0.8-0.1c0,0.3,0.1,0.6,0.1,0.8c-0.2,0.4-0.5,0.7-0.7,1
			c-0.3,0.3-0.6,0.6-0.9,0.9C142.6,79.3,141.9,79.4,141.3,79.3z"/>
		<path d="M132.7,66.2c0.3,0.3,0.6,0.6,0.7,0.9c0.3,0.9,0.7,1.9,0.8,2.8c0.2,1.9-0.4,3.6-1.2,5.2c-0.4,0.8-0.6,1.7-0.8,2.5
			c-0.2,0.7-0.7,1.3-1.4,1.3c0.1-0.1,0.1-0.2,0.2-0.3c0.4-0.3,0.7-0.6,0.6-1.2c-0.1-0.5,0.2-1.1,0.4-1.6c0.4-1.1,1-2.1,1.4-3.2
			c0.2-0.4,0.1-1,0.1-1.5c0-0.6-0.1-1.3-0.2-1.9c-0.1-0.6-0.2-1.2-0.8-1.6C132.1,67.5,132.2,66.7,132.7,66.2z"/>
		<path d="M124.9,81.2c-1.4-0.2-2.7-0.5-4.1-0.6c-1-0.1-1.4-0.8-1.8-1.5c-0.2-0.3-0.1-0.6,0.1-0.7c0.2-0.1,0.6,0.1,0.7,0.2
			c0.8,1.5,2.1,1.8,3.6,1.8c1.5,0,2.9-0.1,4.2-0.7c0.3-0.1,0.5-0.2,0.8-0.2c0.2,0,0.4,0,0.5,0.1c0.1,0.1,0,0.4-0.1,0.5
			c-0.4,0.3-0.8,0.7-1.3,0.8c-0.9,0.2-1.7,0.1-2.6,0.2C124.9,81.1,124.9,81.1,124.9,81.2z"/>
		<path d="M102.2,59c0,0.9,0,1.7,0,2.6c0,0.7-0.2,1.4-0.4,2c0,0.2-0.3,0.3-0.5,0.5c-0.2-0.2-0.4-0.4-0.4-0.6c0-0.7,0.1-1.5,0.1-2.2
			c0-0.6,0.1-1.2,0.1-1.8c0-0.2-0.1-0.4,0-0.5c0.4-0.6,0-0.9-0.5-1.1c-0.5-0.3-0.6-0.7-0.4-1.1c0.2-0.3,0.5-0.4,0.7-0.1
			c0.5,0.7,1.2,1.3,1,2.3C102.1,59,102.1,59,102.2,59z"/>
		<path d="M102.2,65.1c0.2,0.2,0.3,0.3,0.4,0.4c0,0.1,0.1,0.2,0.1,0.3c0,1.5,0.8,2.5,1.9,3.3c1.2,0.9,2.4,1.7,3.6,2.5
			c0.2,0.1,0.4,0.3,0.6,0.5c0.2,0.3,0.2,0.5,0,0.8c-0.3,0.3-0.5,0.1-0.7-0.1c-1-0.8-2.1-1.7-3.1-2.6c-0.2-0.2-0.4-0.3-0.6-0.4
			c-0.7-0.2-1-0.8-1.3-1.3c-0.3-0.5-0.7-0.9-0.9-1.4c-0.2-0.4-0.2-0.9-0.3-1.4C101.9,65.5,102,65.3,102.2,65.1z"/>
		<path d="M105,36.8c0.4,0.3,0.5,0.6,0.3,0.9c-0.3,0.7-0.6,1.5-0.9,2.2c-0.4,0.8-0.2,1.5,0.3,2.1c0.1,0.2,0.4,0.2,0.6,0.4
			c0.5,0.3,1,0.7,1.4,1.1c0.2,0.2,0.2,0.5,0.3,0.9c-0.4-0.1-0.6-0.1-0.7-0.2c-0.8-0.6-1.5-1.2-2.3-1.8c-0.8-0.6-0.8-1.5-0.5-2.4
			c0.2-0.6,0.3-1.2,0.6-1.7C104.3,37.9,104.7,37.4,105,36.8z"/>
		<path d="M110.1,17.1c1.3,0,2.5,0,3.8,0c0.3,0,0.7-0.2,1-0.3c0.3-0.2,0.6-0.4,1-0.1c0.2,0.2,0,0.7-0.4,0.9
			c-0.2,0.1-0.5,0.2-0.8,0.2c-1.3-0.1-2.5-0.2-3.8-0.2c-1,0-1.9,0.3-2.7,1c-0.2,0.2-0.4,0.4-0.7,0.5c-0.1,0.1-0.4,0-0.5,0
			c0-0.2,0-0.3,0.1-0.5c0.3-0.6,0.8-1,1.5-1.2c0.5-0.1,1-0.2,1.5-0.3C110.1,16.9,110.1,17,110.1,17.1z"/>
		<path d="M133.7,43.2c0.6-0.2,1.2-0.4,1.8-0.5c0.6-0.1,1.2-0.3,1.8-0.4c1.1-0.2,2-0.8,2.6-1.8c0.8-1.2,1.5-2.3,2.3-3.5
			c0.1-0.1,0.1-0.2,0.3-0.2c-0.1,0.2-0.1,0.4-0.2,0.5c-0.7,1.3-1.4,2.6-2.3,3.8c-0.4,0.6-1,1.1-1.9,1.2c-0.8,0.1-1.6,0.5-2.4,0.7
			c-0.5,0.1-1,0.2-1.6,0.3c-0.2,0-0.4,0-0.5,0C133.7,43.4,133.7,43.3,133.7,43.2z"/>
		<path d="M142.4,27.9C142.3,27.9,142.3,27.9,142.4,27.9c-1.4-0.8-2.9-0.5-4.4-0.6c-1.4,0-2.9-0.1-4.3-0.1c-0.1,0-0.2-0.1-0.3-0.1
			c0-0.1,0-0.1,0-0.2c0.2-0.1,0.4-0.2,0.6-0.2c2.3,0,4.7,0,7,0C141.6,26.8,142.2,27.2,142.4,27.9z"/>
		<path d="M113.7,45.6c0.4,0.2,0.9,0.5,1.3,0.7c0.8,0.5,1.7,0.9,2.5,1.4c0.6,0.3,1.2,0.5,1.8-0.1c0.2-0.2,0.6,0,0.9,0
			c-0.9,1-2.1,1.1-3.2,0.5c-0.9-0.5-1.8-1.1-2.6-1.6c-0.3-0.2-0.5-0.5-0.8-0.8C113.6,45.7,113.6,45.7,113.7,45.6z"/>
		<path d="M125.8,61.5c0.5,0.1,1,0,1.4,0.2c0.4,0.1,0.8,0.4,1.1,0.6c0.1,0.1,0.2,0.4,0.1,0.5c-0.2,0.2-0.4,0.5-0.7,0.3
			c-0.3-0.1-0.5-0.4-0.7-0.5c-0.5-0.1-0.9-0.1-1.4-0.2c-0.4,0-0.8,0-1.2-0.1c-0.1,0-0.4-0.2-0.4-0.3c0-0.1,0.1-0.3,0.3-0.4
			c0.1-0.1,0.3-0.1,0.4-0.1C125.1,61.5,125.5,61.5,125.8,61.5C125.8,61.5,125.8,61.5,125.8,61.5z"/>
		<path d="M101,25.5c0.1-0.3,0.1-0.7,0.3-1c0.1-0.2,0.1-0.4,0-0.7c-0.4-0.8-0.6-1.7-1-2.6c0.9-0.2,1.7,0.9,2,1.6
			c0.3,0.8-0.3,2.2-1.1,2.7C101.1,25.5,101.1,25.5,101,25.5z"/>
		<path d="M121.7,24.3c0-0.2-0.1-0.4-0.1-0.5c0.1-0.9,0.3-1.9,0.4-2.8c0.1-0.8,0.6-1.4,1.3-1.8c0.9-0.5,1.8-1.1,2.9-1.2
			c0.3,0,0.7,0.1,1,0.1c0,0.1,0,0.1,0,0.2c-0.2,0-0.5,0-0.7,0c-1.3,0-2.4,0.7-3.4,1.6c-0.4,0.3-0.5,0.9-0.7,1.4
			c-0.2,0.8-0.3,1.7-0.4,2.5c0,0.2-0.1,0.4-0.2,0.5C121.8,24.3,121.8,24.3,121.7,24.3z"/>
		<path d="M124.4,27.2c0.5-0.5,0.9-0.3,1.2-0.2c1.1,0.6,2.2,0.7,3.4,0.5c0.3-0.1,0.6-0.1,0.7-0.5c0.1-0.1,0.2-0.3,0.4-0.3
			c0.3,0,0.5,0.1,0.8,0.2c-0.1,0.2-0.1,0.6-0.3,0.6c-0.4,0.2-0.9,0.4-1.3,0.3c-1.3,0-2.5-0.1-3.8-0.2
			C125.2,27.7,124.9,27.4,124.4,27.2z"/>
		<path d="M95.5,34.6c-0.2-0.2-0.5-0.2-0.5-0.4c-0.1-0.1,0-0.4,0.1-0.5c0.7-0.9,1.6-1.5,2.7-2c0.2-0.1,0.4-0.1,0.6-0.1
			c0.1,0,0.2,0.3,0.1,0.3c-0.2,0.2-0.4,0.5-0.6,0.5c-1.1,0.1-1.5,0.9-2,1.6C95.8,34.3,95.6,34.5,95.5,34.6z"/>
		<path d="M107.7,38.3c0.4,0.4,0.9,0.8,1.3,1.2c0.7,0.6,1.4,1.3,2.1,1.9c0.4,0.3,0.9,0.3,1.4,0.5c0.3,0.1,0.6,0.2,0.9,0.3
			c-1.4,0.1-2.6-0.3-3.6-1.2c-0.9-0.7-1.6-1.7-2.3-2.6C107.6,38.5,107.7,38.4,107.7,38.3z"/>
		<path d="M120.8,14.2c-0.2,0.2-0.5,0.5-0.7,0.7c-0.6,0.5-1.2,1.1-1.8,1.6c-0.2,0.2-0.4,0.4-0.6,0.5c-0.1,0.1-0.4,0.1-0.5,0
			c-0.1-0.1-0.1-0.4,0-0.5c0.3-0.3,0.6-0.6,0.9-0.9c0.7-0.5,1.3-0.9,2-1.3c0.2-0.1,0.4-0.2,0.6-0.3C120.7,14,120.7,14.1,120.8,14.2z
			"/>
		<path d="M91.3,52.4c0.1-0.8,0.2-1.6,0.4-2.4c0.1-0.3,0.3-0.5,0.6-0.7c0.4-0.3,0.8-0.5,1.2-0.7c0.2-0.1,0.5-0.2,0.9-0.3
			c-0.1,0.3-0.1,0.4-0.2,0.5c-0.6,0.5-1.2,0.9-1.7,1.4c-0.1,0.1-0.3,0.2-0.3,0.4c-0.3,0.6-0.5,1.3-0.7,1.9
			C91.4,52.5,91.4,52.5,91.3,52.4z"/>
		<path d="M108.6,33.6c0,0.2,0.1,0.4,0.1,0.7c-0.8,0-1.5,0.1-2.2,0c-0.4,0-0.7-0.3-1-0.5c-0.2-0.1-0.4-0.3-0.5-0.4
			c-0.1-0.2-0.2-0.4-0.3-0.6c0-0.1,0.2-0.3,0.3-0.2c0.2,0,0.6,0.1,0.7,0.2c0.4,1.2,1.3,1.1,2.3,0.9
			C108.2,33.6,108.4,33.6,108.6,33.6z"/>
		<path d="M133.4,65.6c-0.9-0.9-0.9-1.1-0.1-2c0.3-0.3,0.6-0.5,0.9-0.8c0.1-0.1,0.4-0.1,0.6-0.1c0.1,0.1,0.3,0.4,0.2,0.5
			c0,0.2-0.2,0.4-0.4,0.4c-0.8,0.2-0.9,0.3-0.9,1.1C133.6,65,133.5,65.3,133.4,65.6z"/>
		<path d="M109.1,32.3c-0.2,0.4-0.6,0.3-0.9,0.2c-0.4-0.1-0.8-0.3-1.1-0.6c-0.4-0.3-0.7-0.7-1.1-1.2c-0.1-0.2-0.1-0.4-0.2-0.7
			c0.2,0,0.5,0,0.7,0.1c0.2,0.1,0.4,0.4,0.5,0.6c0.4,0.7,0.7,1.5,1.8,1.4C108.9,32.1,108.9,32.1,109.1,32.3
			C109,32.2,109.1,32.2,109.1,32.3z"/>
		<path d="M104.4,27.1c0.1,0,0.3,0,0.4,0.1c0.2,0.1,0.4,0.2,0.4,0.3c0,0.2-0.1,0.3-0.2,0.5c0,0.1-0.2,0.1-0.2,0.1
			c-0.6,0-1.1,0.2-1.5,0.7c-0.2,0.2-0.4,0.1-0.4-0.2C102.9,27.8,103.5,27.1,104.4,27.1z"/>
		<path d="M145,49c0,0.4-0.5,0.7-0.9,0.7c-0.5,0-0.8-0.2-0.8-0.7c0-0.6,0.4-0.9,1-0.9C144.8,48.2,145,48.4,145,49z"/>
		<path d="M120.1,25.9c-0.9,0.2-2.4-0.5-2.7-1.2c-0.1-0.3,0-0.4,0.6-0.7c-0.5-0.4-0.9-0.8-1.3-1.2c0,0,0.1-0.1,0.1-0.1
			c0.5,0.4,1.1,0.8,1.6,1.3c0.1,0,0,0.3-0.1,0.4c-0.1,0.1-0.3,0.1-0.4,0.2C118.3,25.3,119.2,25.4,120.1,25.9z"/>
		<path d="M123.5,24.5c-0.3-0.7-0.1-1.5,0.1-2.2c0.2-0.8,0.8-1.3,1.5-1.8c0.1,0,0.1,0.1,0.2,0.1c-0.2,0.3-0.3,0.6-0.5,0.8
			c-0.6,0.6-0.8,1.3-0.8,2.2c0,0.3-0.1,0.6-0.1,0.9C123.6,24.5,123.5,24.5,123.5,24.5z"/>
		<path d="M109.7,43.6c0-0.2,0-0.3,0-0.4c0,0,0,0.1-0.1,0.1c0.5,0.7,1,1.4,1.5,2.1c0,0-0.1,0.1-0.1,0.1c-0.2-0.2-0.4-0.5-0.7-0.7
			c-0.7-0.5-1.3-1.1-2-1.6c-0.3-0.3-0.7-0.5-0.7-1.2C108.5,42.6,109.1,43.1,109.7,43.6z"/>
		<path d="M141.2,56.2c-0.3,0.1-0.6,0.1-0.9,0.2c0,0,0,0,0,0c-0.3-0.3-0.6-0.6-0.8-0.9c-0.1-0.3,0.4-0.8,0.7-0.7
			c0.3,0.2,0.6,0.5,0.8,0.8C141.1,55.9,141.2,56.1,141.2,56.2z"/>
		<path d="M94.1,54.5c-0.4,0.1-0.8,0.2-1.2,0.4c-0.2,0.1-0.4,0.2-0.5,0.3c-0.3,0.4-0.7,0.6-1.1,0.6c-0.2,0-0.4-0.2-0.4-0.4
			c0-0.1,0.2-0.3,0.3-0.4c0.4-0.2,0.9-0.4,1.3-0.5c0.5-0.1,1-0.1,1.5-0.1C94.1,54.5,94.1,54.5,94.1,54.5z"/>
		<path d="M123.2,36.4c-0.9-0.3-1.9-2.6-1.8-3.8c0.1,0.2,0.3,0.2,0.3,0.4c0.5,1,0.9,2.1,1.4,3.1C123.2,36.1,123.2,36.2,123.2,36.4z"
			/>
		<path d="M160.1,47.7c0.1-0.2,0.2-0.5,0.4-0.6c0.4-0.1,0.7,0.1,0.8,0.5c0.1,0.3,0.1,0.6,0.1,0.9c0,0.4-0.2,0.5-0.5,0.3
			c-0.4-0.3-0.9-0.5-0.7-1.1C160.2,47.8,160.1,47.8,160.1,47.7z"/>
		<path d="M119.5,54.7c0-0.7,0.1-0.8,0.7-0.5c0.2,0.1,0.4,0.2,0.5,0.3c0.1,0.2,0.2,0.6,0.1,0.7c-0.2,0.2-0.5,0.3-0.8,0.3
			c-0.3,0-0.6-0.2-0.6-0.6C119.5,54.7,119.5,54.7,119.5,54.7z"/>
		<path d="M131.2,17.8c-0.8,0.1-2-0.6-1.9-1.4c0-0.1,0.1-0.3,0.2-0.4c0.1,0.1,0.3,0.1,0.4,0.2c0.4,0.4,0.8,0.8,1.2,1.3
			C131.1,17.6,131.2,17.7,131.2,17.8z"/>
		<path d="M134.8,51.8c0,0.6-0.7,1.1-1.1,1c-0.1,0-0.2-0.1-0.2-0.2c0-0.2-0.1-0.6,0-0.7c0.3-0.3,0.5-0.9,1-0.7
			C134.7,51.3,134.8,51.7,134.8,51.8z"/>
		<path d="M106.3,22.1c-0.4,0.4-0.7,0.8-1.1,1.2c-0.1,0.1-0.3,0.1-0.4,0c-0.1-0.2-0.3-0.4-0.3-0.6C104.7,22.1,105.8,21.7,106.3,22.1
			z"/>
		<path d="M126.3,50.9c-0.2,0.3-0.5,0.7-0.7,1c-0.1,0.1-0.3,0.1-0.5,0c-0.1,0-0.2-0.3-0.1-0.4c0-0.5,0.4-1,0.8-1.1
			C126,50.4,126.2,50.5,126.3,50.9z"/>
		<path d="M144.5,45.3c0-0.1-0.2-0.2-0.2-0.3c0-0.5,0.4-1,0.8-0.9c0.2,0,0.5,0.3,0.5,0.5C145.7,45,145.1,45.3,144.5,45.3z"/>
		<path d="M109.7,31.1c-0.3,0.3-0.8,0.4-1.2,0.3c-0.4-0.1-0.8-0.4-1.1-0.7c0,0,0-0.3,0.1-0.3c0.1,0,0.3,0,0.4,0
			c0.4,0.2,0.8,0.4,1.2,0.5c0.2,0.1,0.4,0,0.6,0C109.6,31,109.7,31,109.7,31.1z"/>
		<path d="M130.1,23c0.3-0.2,0.6-0.3,0.9-0.5c0,0.1,0.1,0.1,0.1,0.2c-0.3,0.2-0.6,0.4-0.9,0.6c-0.1,0-0.5-0.1-0.5-0.3
			c-0.2-0.5,0.3-1.3,1-1.4c-0.3,0.5-0.5,0.9-0.7,1.3C130,22.9,130.1,22.9,130.1,23z"/>
		<path d="M117.2,50.8c-0.3,0.3-0.4,0.7-0.6,0.7c-0.5,0-0.5-0.4-0.5-0.8c0-0.4,0.2-0.7,0.5-0.6C116.8,50.2,116.9,50.5,117.2,50.8z"
			/>
		<path d="M128.7,26.5c0,0.1,0.2,0.2,0.4,0.5c-0.7,0-1.2,0-1.8,0c-0.1,0-0.2-0.2-0.3-0.3c0.2-0.1,0.3-0.2,0.5-0.2
			C127.8,26.5,128.2,26.5,128.7,26.5z"/>
		<path d="M128.9,26.1c0.8-0.8,1.2-0.9,1.8-0.6c-0.4,0.3-0.8,0.7-1.2,0.9C129.4,26.5,129.1,26.3,128.9,26.1z"/>
		<path d="M118.6,32.9c-0.2-0.5,0.1-0.9,0.4-1c0.2-0.1,0.6,0.1,1,0.3C119.3,32,119,32.5,118.6,32.9z"/>
		<path d="M122.3,31.8c-0.2,0-0.3,0-0.4,0c-0.1-0.1-0.2-0.2-0.3-0.3c0.1-0.1,0.2-0.1,0.3-0.2c0.4,0,0.8,0,1.1,0
			c0.1,0,0.2,0.1,0.3,0.2c-0.1,0.1-0.2,0.2-0.3,0.2C122.9,31.8,122.6,31.8,122.3,31.8z"/>
		<path d="M119,29.3c0.2-0.2,0.4-0.4,0.6-0.6c0,0,0.2,0.1,0.3,0.1c0,0,0,0.2-0.1,0.3c-0.2,0.1-0.4,0.2-0.7,0.4
			C119.1,29.4,119,29.3,119,29.3z"/>
		<path d="M108.5,35.5c0,0.5-0.4,0.7-0.6,1c-0.1,0-0.1-0.1-0.2-0.1c0.2-0.3,0.4-0.7,0.6-1C108.4,35.5,108.5,35.5,108.5,35.5z"/>
		<path d="M110.5,26.5c0.1,0.1,0.4,0.3,0.4,0.5c0.1,0.4-0.5,0.9-0.9,0.9c-0.3,0-0.5-0.1-0.5-0.5C109.5,26.9,109.8,26.5,110.5,26.5z"
			/>
		<path d="M127,22.6c0.8,0,1.2,0.4,1.2,0.9c0,0.1,0,0.1,0,0.2c-0.2,0.3-0.5,0.3-0.8,0.1c-0.7-0.4-0.9-0.7-0.6-1
			C126.7,22.7,126.9,22.6,127,22.6z"/>
	</g>
</g>
</svg>
