<?xml version="1.0" encoding="utf-8"?>
<!-- Generator: Adobe Illustrator 22.1.0, SVG Export Plug-In . SVG Version: 6.00 Build 0)  -->
<svg version="1.1" id="Layer_1" xmlns="http://www.w3.org/2000/svg" xmlns:xlink="http://www.w3.org/1999/xlink" x="0px" y="0px"
	 viewBox="0 0 140 72" style="enable-background:new 0 0 140 72;" xml:space="preserve">
<style type="text/css">
	.st0{fill:#FFFFFF;}
	.st1{opacity:0.5;fill:#D3B07F;enable-background:new    ;}
	.st2{fill:#D3B07F;}
</style>
<path class="st0" d="M116.2,61.6H23.8c-2.1,0-3.8-1.7-3.8-3.8V14.2c0-2.1,1.7-3.8,3.8-3.8h92.4c2.1,0,3.8,1.7,3.8,3.8v43.7
	C120,59.9,118.3,61.6,116.2,61.6z"/>
<path class="st1" d="M67.1,53.7c-1.2,0.1-2.3,0.2-3.5,0.3c-2.9,0.1-5.8,0.2-8.6,0.3c-3,0.1-6.1,0.1-9.1,0.1c-0.6,0-1.2-0.1-1.8-0.2
	c-0.7-0.1-0.7-0.5-0.3-0.9c1.4-1.4,3-2.4,4.9-3.2c0.6-0.2,1.3-0.3,1.8-0.6c0.6-0.3,1.1-0.8,1.6-1.2c0.4-0.3,0.8-0.7,1.2-0.9
	c0.8-0.3,1.2-0.9,1.3-1.7c0.2-1.4,0.5-2.8,0.7-4.2s-0.4-2.1-1.8-2.1c-0.3,0-0.5,0-0.8,0.1c-1,0.2-2-0.1-2.7-0.8s-1.6-1-2.6-1
	c-0.8,0-1.5,0-2.3,0c-1.5,0-2.2-0.4-2.4-1.8c-0.1-0.8-0.2-1.7-0.3-2.5c-0.1-1.1-0.2-1.3-1.3-1.4c-0.7-0.1-1.5-0.1-2.2-0.2
	c-1-0.2-1.1-0.6-0.5-1.4c1.5-2,3.3-3.7,5.7-4.7c0.1-0.1,0.2-0.1,0.4-0.2c1.3-0.5,2-1.3,2.1-2.8c0-0.8,0.5-1.6,1-2.2
	c0.6-0.8,1.3-1.5,2.1-2.1c0.6-0.5,1.1-0.3,1.5,0.4c0.4,0.6,0.8,1.3,1.2,2c0.8,1.3,2,1.7,3.3,0.8c1.4-1,3-1.6,4.7-1.9
	c0.2,0,0.5-0.1,0.7-0.1c1.2-0.1,1.4,0,1.3,1.3c-0.1,0.7,0.3,1,0.9,1.3c1.2,0.4,2.4,0.9,3.5,1.3c0.2,0.1,0.3,0.2,0.5,0.3
	c0.4,0.4,0.3,0.9-0.2,1c-0.4,0.1-0.9,0.2-1.3,0.4c-1,0.4-1.2,1.3-0.3,2.1c0.8,0.7,1.7,1.4,2.4,2.2c0.5,0.6,0.9,1.2,1.2,1.9
	c0.4,0.8,0.1,1.3-0.8,1.4c-0.6,0.1-1.3,0.1-1.9,0.2c-0.8,0.1-1,0.4-1,1.2c0.2,2.3-0.3,2-2,2.1c-0.5,0-1.1,0.2-1.6,0.2
	c-0.5,0.1-0.7,0.3-0.8,0.8c0,0.5,0,0.9,0,1.4c0.2,2.4,0.4,4.8,0.6,7.2c0.1,1.1,0.7,2.1,1.4,3c1,1.3,2.2,2.3,3.5,3.3
	C67.2,52.5,67.3,52.7,67.1,53.7z"/>
<path class="st1" d="M88.3,59c-1.5,0.1-3,0.3-4.5,0.3c-3.7,0.1-7.5,0.3-11.2,0.4c-4,0.1-7.9,0.1-11.9,0.2c-0.8,0-1.5-0.1-2.3-0.3
	s-0.9-0.6-0.3-1.2c1.8-1.8,4-3.2,6.4-4.1c0.8-0.3,1.6-0.4,2.4-0.8c0.8-0.4,1.4-1,2.1-1.5c0.5-0.4,1-1,1.6-1.2c1-0.4,1.5-1.2,1.7-2.2
	c0.3-1.8,0.6-3.7,0.9-5.5c0.3-1.9-0.5-2.8-2.4-2.7c-0.3,0-0.7,0-1,0.1c-1.3,0.2-2.5-0.1-3.5-1.1c-1.1-1-2.3-1.4-3.5-1.4
	c-1,0-2,0.1-2.9,0c-2,0-2.9-0.5-3.1-2.4c-0.1-1.1-0.3-2.2-0.4-3.3c-0.1-1.5-0.2-1.7-1.7-1.9c-1-0.1-2-0.1-2.9-0.3
	c-1.3-0.2-1.5-0.7-0.7-1.8c2-2.6,4.3-4.8,7.3-6.1c0.2-0.1,0.3-0.2,0.5-0.2c1.7-0.6,2.7-1.7,2.8-3.7c0.1-1,0.6-2,1.2-2.9
	c0.7-1,1.7-1.9,2.7-2.7c0.8-0.6,1.4-0.4,2,0.5c0.6,0.8,1.1,1.7,1.6,2.6c1,1.7,2.7,2.2,4.3,1c1.9-1.3,3.9-2.1,6.1-2.5
	c0.3-0.1,0.6-0.1,0.9-0.1c1.6-0.1,1.8,0.1,1.6,1.6c-0.1,0.9,0.3,1.4,1.1,1.6c1.5,0.5,3.1,1.1,4.6,1.7c0.2,0.1,0.4,0.2,0.6,0.4
	c0.5,0.5,0.4,1.1-0.3,1.4c-0.6,0.2-1.1,0.3-1.7,0.5c-1.4,0.5-1.5,1.7-0.4,2.7c1,0.9,2.2,1.8,3.1,2.8c0.7,0.7,1.2,1.6,1.6,2.5
	c0.5,1.1,0.1,1.7-1.1,1.8c-0.8,0.1-1.7,0.1-2.5,0.2c-1,0.2-1.4,0.5-1.3,1.6c0.2,3-0.3,2.6-2.6,2.8c-0.7,0-1.4,0.2-2.1,0.3
	c-0.6,0.1-1,0.4-1,1.1c0,0.6,0,1.2,0.1,1.8c0.2,3.1,0.5,6.3,0.8,9.4c0.1,1.5,0.9,2.7,1.9,3.9c1.3,1.7,2.9,3,4.6,4.3
	C88.4,57.4,88.5,57.7,88.3,59z"/>
<path class="st2" d="M108.2,64.1c-1.9,0.1-3.7,0.3-5.6,0.4c-4.6,0.2-9.2,0.3-13.8,0.4c-4.8,0.1-9.7,0.2-14.5,0.2
	c-0.9,0-1.9-0.1-2.8-0.3c-1-0.2-1.2-0.7-0.4-1.5c2.2-2.2,4.9-3.9,7.8-5c1-0.4,2-0.5,2.9-1s1.8-1.2,2.6-1.8c0.7-0.5,1.2-1.2,1.9-1.5
	c1.3-0.5,1.8-1.4,2-2.7c0.3-2.3,0.7-4.5,1.1-6.8s-0.6-3.4-2.9-3.3c-0.4,0-0.8,0.1-1.2,0.1c-1.6,0.2-3.1-0.1-4.3-1.3
	c-1.2-1.1-2.6-1.6-4.2-1.6c-1.2,0-2.4,0.1-3.6,0.1c-2.5,0-3.5-0.6-3.8-2.9c-0.2-1.3-0.4-2.7-0.4-4c-0.1-1.8-0.3-2.1-2-2.3
	c-1.2-0.1-2.4-0.2-3.6-0.3c-1.6-0.3-1.8-0.9-0.9-2.2c2.4-3.2,5.2-5.9,9-7.5c0.2-0.1,0.4-0.2,0.6-0.3c2.1-0.8,3.3-2.1,3.4-4.5
	c0.1-1.2,0.8-2.5,1.5-3.5c0.9-1.2,2.1-2.3,3.3-3.3c1-0.8,1.7-0.5,2.4,0.6c0.7,1,1.3,2.1,2,3.1c1.3,2,3.3,2.6,5.3,1.2
	c2.3-1.6,4.8-2.6,7.5-3.1c0.4-0.1,0.7-0.1,1.1-0.1c2-0.1,2.2,0.1,2,2c-0.1,1.1,0.4,1.7,1.4,2c1.9,0.7,3.7,1.4,5.6,2.1
	c0.3,0.1,0.5,0.3,0.7,0.5c0.7,0.6,0.5,1.4-0.3,1.7c-0.7,0.2-1.4,0.4-2.1,0.7c-1.7,0.6-1.9,2.1-0.5,3.3c1.3,1.1,2.6,2.2,3.8,3.4
	c0.8,0.9,1.5,2,2,3.1c0.6,1.3,0.1,2.1-1.3,2.3c-1,0.1-2,0.1-3,0.3c-1.2,0.2-1.7,0.7-1.6,1.9c0.3,3.7-0.4,3.2-3.1,3.4
	c-0.9,0.1-1.7,0.2-2.6,0.4c-0.8,0.1-1.2,0.6-1.2,1.3s0,1.4,0.1,2.2c0.3,3.8,0.6,7.7,0.9,11.5c0.2,1.8,1.2,3.3,2.3,4.7
	c1.6,2,3.5,3.7,5.6,5.3C108.3,62.1,108.4,62.5,108.2,64.1z"/>
</svg>
