<?xml version="1.0" encoding="utf-8"?>
<!-- Generator: Adobe Illustrator 22.1.0, SVG Export Plug-In . SVG Version: 6.00 Build 0)  -->
<svg version="1.1" id="Layer_1" xmlns="http://www.w3.org/2000/svg" xmlns:xlink="http://www.w3.org/1999/xlink" x="0px" y="0px"
	 viewBox="0 0 120 70" style="enable-background:new 0 0 120 70;" xml:space="preserve">
<style type="text/css">
	.st0{fill:#FFFFFF;}
	.st1{fill:#ECC23C;}
</style>
<path class="st0" d="M106.2,60.6H13.8c-2.1,0-3.8-1.7-3.8-3.8V13.2c0-2.1,1.7-3.8,3.8-3.8h92.4c2.1,0,3.8,1.7,3.8,3.8v43.7
	C110,58.9,108.3,60.6,106.2,60.6z"/>
<path class="st1" d="M89.7,57c-0.8-1.7-2-3.4-2.3-5.2c-0.4-2.3-0.3-4.7-0.2-7.1c0.1-3,0.2-5.9,1.8-8.6c0.6-1,1.4-1.9,1.6-3
	c0.6-3.2,1.2-6.5-1.2-9.4c-0.7-0.8-1.3-1.6-2-2.4c-1.9-2.1-3.2-2.2-5.5-0.6c-1.4,0.9-2.9,1.6-4.4,2.3c-0.8,0.4-1.3,0.1-1.7-0.8
	C74.4,19.4,65.1,9.5,62.1,7.9c-0.7-0.4-1.4-0.5-2.1-0.5v0c0,0,0,0,0,0c0,0,0,0,0,0v0c-0.7,0-1.4,0.2-2.1,0.5
	c-3,1.6-12.3,11.5-13.6,14.4c-0.4,0.9-0.9,1.2-1.7,0.8c-1.5-0.7-3-1.4-4.4-2.3c-2.4-1.6-3.6-1.5-5.5,0.6c-0.7,0.8-1.4,1.6-2,2.4
	c-2.5,2.9-1.9,6.2-1.2,9.4c0.2,1.1,1,2,1.6,3c1.6,2.7,1.8,5.6,1.8,8.6c0.1,2.4,0.2,4.8-0.2,7.1c-0.3,1.8-1.5,3.5-2.3,5.2
	c-0.4,0.8-0.9,1.6-1.2,2.5c-0.5,1.6,0.1,2.5,1.7,2.8c0.7,0.1,1.4,0.2,2.1,0.2c4.4,0,8.8,0,13.2,0c0.4,0,0.8,0,1.2,0
	c1.9-0.1,2.6-0.6,3.1-2.3c0.2-0.7,1.7-8.5,2.4-11.6c0.3-1.6,1.2-2.4,2.9-2.7c1.4-0.3,2.8-0.6,4.2-0.7c1.4,0.2,2.8,0.5,4.2,0.7
	c1.7,0.3,2.6,1.1,2.9,2.7c0.6,3.1,2.1,10.8,2.4,11.6c0.6,1.8,1.3,2.2,3.1,2.3c0.4,0,0.8,0,1.2,0c4.4,0,8.8,0,13.2,0
	c0.7,0,1.4,0,2.1-0.2c1.6-0.3,2.2-1.2,1.7-2.8C90.6,58.7,90.1,57.9,89.7,57z"/>
</svg>
