<?xml version="1.0" encoding="utf-8"?>
<!-- Generator: Adobe Illustrator 22.1.0, SVG Export Plug-In . SVG Version: 6.00 Build 0)  -->
<svg version="1.1" id="Layer_1" xmlns="http://www.w3.org/2000/svg" xmlns:xlink="http://www.w3.org/1999/xlink" x="0px" y="0px"
	 viewBox="0 0 120 70" style="enable-background:new 0 0 120 70;" xml:space="preserve">
<style type="text/css">
	.st0{fill:#FFFFFF;}
	.st1{fill:#EFBBBB;}
	.st2{fill:#882E51;}
</style>
<path class="st0" d="M106.2,60.6H13.8c-2.1,0-3.8-1.7-3.8-3.8V13.2c0-2.1,1.7-3.8,3.8-3.8h92.4c2.1,0,3.8,1.7,3.8,3.8v43.7
	C110,58.9,108.3,60.6,106.2,60.6z"/>
<g>
	<polygon class="st1" points="49,64 32,47 32,23 49,6 73,6 90,23 90,47 73,64 	"/>
	<path class="st0" d="M76.7,35c0-0.6,0-1.1-0.1-1.6l3.3-0.3c-0.1-1.3-0.4-2.6-0.8-3.9s-1-2.5-1.6-3.6l-2.8,1.6
		c-0.6-1-1.2-1.8-1.9-2.6l2.4-2.2c-0.9-1-1.9-1.9-2.9-2.7c-1.1-0.8-2.2-1.4-3.4-2l-1.3,3c-1-0.4-2-0.8-3.1-1l0.7-3.2
		C63.7,16.2,62.4,16,61,16s-2.7,0.1-3.9,0.4l0.7,3.2c-1.1,0.2-2.1,0.6-3.1,1l-1.3-3c-1.2,0.5-2.4,1.2-3.4,2
		c-1.1,0.8-2.1,1.7-2.9,2.7l2.4,2.2c-0.7,0.8-1.4,1.7-1.9,2.6l-2.8-1.6c-0.7,1.1-1.2,2.3-1.6,3.6c-0.4,1.2-0.7,2.5-0.8,3.9l3.3,0.3
		c-0.1,0.5-0.1,1.1-0.1,1.6s0,1.1,0.1,1.6L42.2,37c0.1,1.3,0.4,2.6,0.8,3.9c0.4,1.3,1,2.5,1.6,3.6l2.8-1.6c0.6,1,1.2,1.8,1.9,2.6
		l-2.4,2.2c0.9,1,1.9,1.9,2.9,2.7c1.1,0.8,2.2,1.4,3.4,2l1.3-3c1,0.4,2,0.8,3.1,1l-0.7,3.2c1.3,0.3,2.6,0.4,3.9,0.4s2.7-0.1,3.9-0.4
		L64,50.4c1.1-0.2,2.1-0.6,3.1-1l1.3,3c1.2-0.5,2.4-1.2,3.4-2c1.1-0.8,2.1-1.7,2.9-2.7l-2.4-2.2c0.7-0.8,1.4-1.7,1.9-2.6l2.8,1.6
		c0.7-1.1,1.2-2.3,1.6-3.6c0.4-1.2,0.7-2.5,0.8-3.9l-3.3-0.3C76.6,36.1,76.7,35.6,76.7,35z"/>
	<path class="st2" d="M61,48.2C61,41.7,54.3,35,47.8,35C54.3,35,61,28.3,61,21.8C61,28.3,67.7,35,74.2,35C67.7,35,61,41.7,61,48.2z"
		/>
</g>
</svg>
