<?xml version="1.0" encoding="utf-8"?>
<!-- Generator: Adobe Illustrator 22.1.0, SVG Export Plug-In . SVG Version: 6.00 Build 0)  -->
<svg version="1.1" id="Layer_1" xmlns="http://www.w3.org/2000/svg" xmlns:xlink="http://www.w3.org/1999/xlink" x="0px" y="0px"
	 viewBox="0 0 120 70" style="enable-background:new 0 0 120 70;" xml:space="preserve">
<style type="text/css">
	.st0{fill:#FFFFFF;}
	.st1{fill:#D73D1C;}
</style>
<path class="st0" d="M106.2,60.6H13.8c-2.1,0-3.8-1.7-3.8-3.8V13.2c0-2.1,1.7-3.8,3.8-3.8h92.4c2.1,0,3.8,1.7,3.8,3.8v43.7
	C110,58.9,108.3,60.6,106.2,60.6z"/>
<g>
	<path class="st1" d="M56.6,31.5c0.8,1.6,1.6,2.8,2.2,4.2c0.1,0.3,0.1,0.9-0.2,1.2c-1.7,1.8-2.9,3.6-4.6,5.4
		c-1.5,1.5-3.1,3.3-4.9,4.6c0.4-0.1,0.9-0.2,1.2-0.5c3.5-2.4,6.8-5.1,9.5-8.3c0.5-0.6,0.9-0.9,1.8-0.5c1.1,0.6,2.3,1.1,3.6,1.8
		c-1.1,1.2-1.9,2.3-2.8,3.4c-7.9,9.6-20.6,11.2-25.6,10c-1.4-0.3-2.8-0.8-4.2-1.5C43.1,47.5,50.6,40.5,56.6,31.5z"/>
	<path class="st1" d="M74,43.8c-2.8-1.8-5.4-3.5-8.3-5.1c-1.6-0.9-3.4-1.6-5-2.5c-0.5-0.2-0.8-0.7-1.1-1.1
		c-2.2-4.2-4.4-8.5-6.6-12.7c1,0.6,2.3,1.1,3.4,1.8c1.8,1.1,3.5,2.3,5.3,3.5c0.3,0.1,0.4,0.6,0.6,1c0.7,3,2.1,4.1,5.2,4.2
		c0.4,0.1,0.9,0.2,1.1,0.5c1.9,3.3,3.7,6.7,5.7,10.2C74.1,43.7,74,43.7,74,43.8z"/>
	<path class="st1" d="M71.3,18.2c0.6,2.3,2.1,3.5,4.7,3.7c-0.3,0.3-0.4,0.5-0.6,0.6c-3,2.3-5.2,5.2-7.1,8.5c-0.4,0.7-0.8,1.1-1.7,1
		c-2-0.3-3.3-1.3-3.7-3.3c0-0.3,0.1-0.7,0.4-0.9c3.1-2.7,5.8-5.8,7.6-9.5C70.9,18.3,71.1,18.3,71.3,18.2z"/>
	<path class="st1" d="M79.9,14.2c-0.1,1.3-0.4,2.3-0.4,3.4c-0.1,1.6-1.2,2.9-2.8,3.3c-1.5,0.4-3.3-0.3-4-1.5c-1-1.6-0.9-3.2,0.3-4.4
		s2.9-1.5,4.6-1.3C78.3,13.7,79.1,14,79.9,14.2z"/>
</g>
</svg>
