<?xml version="1.0" encoding="utf-8"?>
<!-- Generator: Adobe Illustrator 22.1.0, SVG Export Plug-In . SVG Version: 6.00 Build 0)  -->
<svg version="1.1" id="Layer_1" xmlns="http://www.w3.org/2000/svg" xmlns:xlink="http://www.w3.org/1999/xlink" x="0px" y="0px"
	 viewBox="0 0 140 72" style="enable-background:new 0 0 140 72;" xml:space="preserve">
<style type="text/css">
	.st0{fill:#D4F2FF;}
	.st1{fill:#29AAE1;}
	.st2{fill:#333333;}
	.st3{fill:#D3B07F;}
</style>
<path class="st0" d="M116.2,62.1H23.8c-2.1,0-3.8-1.7-3.8-3.8V14.7c0-2.1,1.7-3.8,3.8-3.8h92.4c2.1,0,3.8,1.7,3.8,3.8v43.7
	C120,60.4,118.3,62.1,116.2,62.1z"/>
<g>
	<path class="st1" d="M88.3,66.6H51.7c-6.7,0-12.3-5.5-12.3-12.3V17.6c0-6.7,5.5-12.3,12.3-12.3h36.5c6.7,0,12.3,5.5,12.3,12.3v36.5
		C100.7,61.1,95.2,66.6,88.3,66.6z"/>
	<g>
		<g>
			<g>
				<path class="st2" d="M98.3,36.8l-7.4,7.4v-2l6.1-6.1l-6.1-6.1v-2l7.4,7.4V36.8z"/>
			</g>
		</g>
		<g>
			<g>
				<path class="st2" d="M43.1,35l7.4-7.4v2l-6.1,6.1l6.1,6.1v2l-7.4-7.4V35z"/>
			</g>
		</g>
	</g>
	<g>
		<g>
			<path class="st2" d="M69.9,63.6L62.3,56h2l6.1,6.1l6.1-6.1h2l-7.4,7.4h-1.4V63.6z"/>
		</g>
	</g>
	<g>
		<g>
			<path class="st2" d="M71.5,8.4l7.4,7.4h-2l-6.1-6.1l-6.1,6.1h-2l7.4-7.4H71.5z"/>
		</g>
	</g>
	<g>
		<g>
			<path class="st2" d="M93,59.5H82.6l1.4-1.4h8.8v-8.8l1.4-1.4v10.4L93,59.5z"/>
		</g>
	</g>
	<g>
		<g>
			<path class="st2" d="M48.5,12.5h10.4l-1.4,1.4h-8.8v8.8l-1.4,1.4V13.7L48.5,12.5z"/>
		</g>
	</g>
	<g>
		<g>
			<path class="st2" d="M47.2,58.3V47.8l1.4,1.4v8.8h8.8l1.4,1.4H48.5L47.2,58.3z"/>
		</g>
	</g>
	<g>
		<g>
			<path class="st2" d="M94.2,13.7v10.4l-1.4-1.4v-8.8H84l-1.4-1.4H93L94.2,13.7z"/>
		</g>
	</g>
</g>
<path class="st3" d="M91.8,63.9c-1.9,0.1-3.7,0.3-5.6,0.4c-4.6,0.2-9.2,0.3-13.8,0.4c-4.8,0.1-9.7,0.2-14.5,0.2
	c-0.9,0-1.9-0.1-2.8-0.3c-1-0.2-1.2-0.7-0.4-1.5c2.2-2.2,4.9-3.9,7.8-5c1-0.4,2-0.5,2.9-1s1.8-1.2,2.6-1.8c0.7-0.5,1.2-1.2,1.9-1.5
	c1.3-0.5,1.8-1.4,2-2.7c0.3-2.3,0.7-4.5,1.1-6.8s-0.6-3.4-2.9-3.3c-0.4,0-0.8,0.1-1.2,0.1c-1.6,0.2-3.1-0.1-4.3-1.3
	c-1.2-1.1-2.6-1.6-4.2-1.6c-1.2,0-2.4,0.1-3.6,0.1c-2.5,0-3.5-0.6-3.8-2.9c-0.2-1.3-0.4-2.7-0.4-4c-0.1-1.8-0.3-2.1-2-2.3
	c-1.2-0.1-2.4-0.2-3.6-0.3c-1.6-0.3-1.8-0.9-0.9-2.2c2.4-3.2,5.2-5.9,9-7.5c0.2-0.1,0.4-0.2,0.6-0.3c2.1-0.8,3.3-2.1,3.4-4.5
	c0.1-1.2,0.8-2.5,1.5-3.5c0.9-1.2,2.1-2.3,3.3-3.3c1-0.8,1.7-0.5,2.4,0.6c0.7,1,1.3,2.1,2,3.1c1.3,2.1,3.3,2.7,5.3,1.2
	c2.3-1.6,4.8-2.6,7.5-3.1c0.4-0.1,0.7-0.1,1.1-0.1c2-0.1,2.2,0.1,2,2c-0.1,1.1,0.4,1.7,1.4,2c1.9,0.7,3.7,1.4,5.6,2.1
	c0.3,0.1,0.5,0.3,0.7,0.5c0.7,0.6,0.5,1.4-0.3,1.7c-0.7,0.2-1.4,0.4-2.1,0.7c-1.7,0.6-1.9,2.1-0.5,3.3c1.3,1.1,2.6,2.2,3.8,3.4
	c0.8,0.9,1.5,2,2,3.1c0.6,1.3,0.1,2.1-1.3,2.3c-1,0.1-2,0.1-3,0.3c-1.2,0.2-1.7,0.7-1.6,1.9c0.3,3.7-0.4,3.2-3.1,3.4
	c-0.9,0.1-1.7,0.2-2.6,0.4c-0.8,0.1-1.2,0.6-1.2,1.3s0,1.4,0.1,2.2c0.3,3.8,0.6,7.7,0.9,11.5c0.2,1.8,1.2,3.3,2.3,4.7
	c1.6,2,3.5,3.7,5.6,5.3C91.9,61.9,92,62.3,91.8,63.9z"/>
</svg>
