<?xml version="1.0" encoding="utf-8"?>
<!-- Generator: Adobe Illustrator 22.1.0, SVG Export Plug-In . SVG Version: 6.00 Build 0)  -->
<svg version="1.1" id="Layer_1" xmlns="http://www.w3.org/2000/svg" xmlns:xlink="http://www.w3.org/1999/xlink" x="0px" y="0px"
	 viewBox="0 0 140 70" style="enable-background:new 0 0 140 70;" xml:space="preserve">
<style type="text/css">
	.st0{fill:#FFFFFF;}
	.st1{fill:#C6B198;}
	.st2{fill:#0071BB;}
</style>
<g>
	<path class="st0" d="M116.2,60.6H23.8c-2.1,0-3.8-1.7-3.8-3.8V13.2c0-2.1,1.7-3.8,3.8-3.8h92.4c2.1,0,3.8,1.7,3.8,3.8v43.7
		C120,58.9,118.3,60.6,116.2,60.6z"/>
	<g>
		<path class="st1" d="M95.3,41.4L76.4,60.3c-3.5,3.5-9.3,3.5-12.8,0L44.7,41.4c-3.5-3.5-3.5-9.3,0-12.8L63.6,9.7
			c3.5-3.5,9.3-3.5,12.8,0l18.9,18.9C98.8,32.1,98.8,37.9,95.3,41.4z"/>
	</g>
	<circle class="st2" cx="70" cy="35" r="21.5"/>
	<g>
		<path class="st0" d="M76.2,48.2H71v5.2h-2.2v-5.2h-5.2V46h5.2v-5.2H71V46h5.2V48.2z"/>
	</g>
	<g>
		<path class="st0" d="M75.7,16.5L75.6,19H67l-0.3,5.8h1c1.4,0,2.6,0.2,3.7,0.5s2,0.7,2.8,1.3c0.8,0.6,1.3,1.2,1.7,2
			c0.4,0.8,0.6,1.6,0.6,2.6c0,1.1-0.2,2-0.6,2.9c-0.4,0.8-1,1.6-1.7,2.2c-0.7,0.6-1.5,1.1-2.4,1.4S70,38,68.9,38
			c-0.6,0-1.2,0-1.7-0.1c-0.6-0.1-1.1-0.2-1.6-0.3s-1-0.2-1.4-0.4c-0.4-0.1-0.7-0.3-0.9-0.4l-0.7-0.4l0.9-2.4
			c1.6,0.9,3.4,1.4,5.3,1.4c0.6,0,1.2-0.1,1.7-0.3s1-0.5,1.4-0.8c0.4-0.4,0.7-0.8,0.9-1.3c0.2-0.5,0.3-1.1,0.3-1.8
			c0-1.3-0.5-2.3-1.6-3s-2.6-1-4.6-1h-3.2l0.4-10.8L75.7,16.5L75.7,16.5z"/>
	</g>
</g>
</svg>
