<?xml version="1.0" encoding="utf-8"?>
<!-- Generator: Adobe Illustrator 22.1.0, SVG Export Plug-In . SVG Version: 6.00 Build 0)  -->
<svg version="1.1" id="Layer_1" xmlns="http://www.w3.org/2000/svg" xmlns:xlink="http://www.w3.org/1999/xlink" x="0px" y="0px"
	 viewBox="0 0 120 70" style="enable-background:new 0 0 120 70;" xml:space="preserve">
<style type="text/css">
	.st0{fill:#FFFFFF;}
	.st1{fill:#B6D371;stroke:#FBFAF7;stroke-width:3;stroke-miterlimit:10;}
</style>
<path class="st0" d="M106.2,60.6H13.8c-2.1,0-3.8-1.7-3.8-3.8V13.2c0-2.1,1.7-3.8,3.8-3.8h92.4c2.1,0,3.8,1.7,3.8,3.8v43.7
	C110,58.9,108.3,60.6,106.2,60.6z"/>
<g>
	<path class="st1" d="M47.8,54.4l-20.2,7.3c-2.1,0.7-4.4-0.3-5.1-2.4L10,25.4c-0.8-2.1,0.3-4.3,2.4-5.1l20.2-7.3
		c2.1-0.7,4.4,0.3,5.1,2.4l12.4,33.9C51,51.4,49.9,53.7,47.8,54.4z"/>
	<path class="st1" d="M58.6,53.5l-21.3,2.6c-2.2,0.3-4.2-1.3-4.5-3.5l-4.4-35.8c-0.3-2.2,1.3-4.2,3.5-4.4l21.3-2.6
		c2.2-0.3,4.2,1.3,4.5,3.5l4.4,35.8C62.4,51.3,60.8,53.3,58.6,53.5z"/>
	<path class="st1" d="M71.1,52.1H49.6c-2.2,0-4-1.8-4-4v-36c0-2.2,1.8-4,4-4h21.5c2.2,0,4,1.8,4,4v36C75.1,50.3,73.3,52.1,71.1,52.1
		z"/>
	<path class="st1" d="M80.4,55.7l-20.8-5.2c-2.1-0.5-3.4-2.7-2.9-4.8l9-34.9c0.5-2.1,2.7-3.4,4.9-2.9L91.3,13
		c2.1,0.5,3.4,2.7,2.9,4.8l-9,34.9C84.7,54.9,82.5,56.2,80.4,55.7z"/>
	<path class="st1" d="M90.9,62.4l-19.5-9c-2-0.9-2.9-3.3-1.9-5.3l15.4-32.7c0.9-2,3.3-2.8,5.3-1.9l19.5,9c2,0.9,2.9,3.3,1.9,5.3
		L96.2,60.5C95.3,62.5,92.9,63.3,90.9,62.4z"/>
</g>
</svg>
