<?xml version="1.0" encoding="utf-8"?>
<!-- Generator: Adobe Illustrator 22.1.0, SVG Export Plug-In . SVG Version: 6.00 Build 0)  -->
<svg version="1.1" id="Layer_1" xmlns="http://www.w3.org/2000/svg" xmlns:xlink="http://www.w3.org/1999/xlink" x="0px" y="0px"
	 viewBox="0 0 120 70" style="enable-background:new 0 0 120 70;" xml:space="preserve">
<style type="text/css">
	.st0{opacity:0.1;fill:#FFFFFF;}
	.st1{fill:#FFFFFF;}
</style>
<path class="st0" d="M106.2,60.6H13.8c-2.1,0-3.8-1.7-3.8-3.8V13.2c0-2.1,1.7-3.8,3.8-3.8h92.4c2.1,0,3.8,1.7,3.8,3.8v43.7
	C110,58.9,108.3,60.6,106.2,60.6z"/>
<g>
	<path class="st1" d="M37.8,26.4v17.3c0,0.5,0.2,0.8,0.6,1.1s1.1,0.4,2.1,0.5c0.2,0,0.4,0.2,0.4,0.5c0,0.2,0,0.3-0.1,0.5
		c-0.7,0-1.4-0.1-2.2-0.1s-1.5,0-2.3,0s-1.5,0-2.3,0s-1.5,0.1-2.2,0.1c0-0.2-0.1-0.4-0.1-0.5c0-0.3,0.1-0.5,0.3-0.5
		c1-0.1,1.7-0.3,2.1-0.5s0.7-0.5,0.7-1V26.4h-3.4c-0.7,0-1.2,0.1-1.6,0.2s-0.8,0.3-1.2,0.6c-0.3,0.3-0.6,0.6-0.8,1s-0.5,0.9-0.8,1.4
		c0,0.1-0.1,0.2-0.2,0.2s-0.2,0.1-0.3,0.1c-0.2,0-0.4-0.1-0.6-0.2c0.2-0.8,0.4-1.5,0.5-2.1s0.2-1.1,0.3-1.5c0.1-0.4,0.2-0.7,0.3-0.9
		c0.1-0.2,0.3-0.3,0.5-0.3s0.4,0,0.7,0c0.3,0,0.6,0,0.9,0.1c0.3,0,0.6,0,1,0.1s0.6,0,0.9,0h10.9c0.3,0,0.6,0,0.9,0s0.7,0,1-0.1
		s0.6,0,0.9-0.1c0.3,0,0.5,0,0.7,0s0.4,0.1,0.5,0.3c0.1,0.2,0.2,0.5,0.3,1c0.1,0.4,0.2,0.9,0.3,1.5s0.3,1.3,0.5,2
		c-0.1,0-0.2,0.1-0.3,0.1s-0.2,0.1-0.3,0.1s-0.2,0-0.3-0.1c-0.1,0-0.2-0.1-0.2-0.2c-0.2-0.5-0.5-1-0.7-1.4s-0.5-0.7-0.8-1
		s-0.7-0.5-1.1-0.6c-0.4-0.1-1-0.2-1.6-0.2H37.8z"/>
	<path class="st1" d="M44.7,39.3c0-1,0.2-1.9,0.6-2.8c0.4-0.9,0.9-1.6,1.5-2.3s1.4-1.2,2.3-1.5s1.8-0.6,2.9-0.6c1.1,0,2,0.2,2.9,0.5
		c0.9,0.4,1.7,0.8,2.3,1.5c0.6,0.6,1.1,1.4,1.5,2.3c0.4,0.9,0.5,1.9,0.5,2.9s-0.2,2-0.6,2.8c-0.4,0.9-0.9,1.6-1.5,2.3
		s-1.4,1.2-2.3,1.5S53,46.5,52,46.5c-1.1,0-2-0.2-2.9-0.5s-1.7-0.8-2.3-1.5s-1.1-1.4-1.5-2.3C44.9,41.4,44.7,40.4,44.7,39.3z
		 M47.8,38.2c0,0.8,0.1,1.6,0.3,2.5c0.2,0.8,0.4,1.6,0.8,2.3s0.8,1.2,1.4,1.7c0.6,0.4,1.2,0.7,2.1,0.7c1.2,0,2.2-0.4,2.9-1.3
		c0.7-0.9,1-2,1-3.3c0-0.8-0.1-1.6-0.2-2.5s-0.4-1.7-0.8-2.4c-0.4-0.7-0.8-1.3-1.4-1.8c-0.6-0.5-1.3-0.7-2.1-0.7
		c-1.2,0-2.1,0.4-2.8,1.2C48.1,35.3,47.8,36.5,47.8,38.2z"/>
	<path class="st1" d="M69.2,44.2c0.1-0.1,0.2-0.2,0.3-0.2s0.1,0,0.2,0c0.2,0,0.4,0.1,0.5,0.4c-0.6,0.6-1.2,1.1-1.8,1.5
		s-1.3,0.6-2.1,0.6c-0.4,0-0.8,0-1.2-0.1c-0.4-0.1-0.7-0.3-1-0.6c-0.3-0.3-0.5-0.7-0.7-1.1c-0.2-0.5-0.2-1.1-0.2-1.9v-8.9h-2v-0.4
		c0-0.2,0-0.3,0.1-0.4c0.1-0.1,0.2-0.2,0.3-0.2c0.6,0,1.1-0.2,1.4-0.5s0.7-0.7,0.9-1.2c0.3-0.5,0.5-1,0.7-1.5
		c0.2-0.5,0.4-0.7,0.7-0.7h0.6v3.4h3.8c0,0.5,0,0.8-0.1,1s-0.3,0.3-0.5,0.3H66v8c0,0.7,0,1.2,0.1,1.7c0.1,0.4,0.2,0.7,0.3,1
		c0.1,0.2,0.3,0.4,0.5,0.4C66.8,45,67,45,67.3,45c0.4,0,0.7-0.1,1-0.2C68.6,44.6,68.9,44.4,69.2,44.2z"/>
	<path class="st1" d="M85.2,45.2c0.2,0,0.4,0.2,0.4,0.7c-0.6,0.4-1.3,0.6-2.2,0.6c-0.5,0-0.9-0.1-1.2-0.2s-0.7-0.3-0.9-0.6
		c-0.2-0.2-0.4-0.5-0.6-0.8c-0.1-0.3-0.2-0.6-0.3-0.9c-0.5,1-1.2,1.6-1.9,2c-0.8,0.4-1.6,0.5-2.6,0.5c-0.4,0-0.9,0-1.4-0.1
		s-1-0.2-1.4-0.5s-0.8-0.6-1.1-1c-0.3-0.4-0.4-1-0.4-1.7c0-0.8,0.2-1.5,0.6-2s0.9-1,1.5-1.4s1.2-0.6,2-0.9c0.7-0.2,1.4-0.4,2-0.6
		c0.4-0.1,0.7-0.1,1-0.2c0.3-0.1,0.6-0.2,0.8-0.2c0.3-0.1,0.5-0.2,0.6-0.4s0.1-0.4,0.1-0.9c0-1-0.2-1.8-0.6-2.5s-1.1-1-2.1-1
		c-0.4,0-0.7,0-0.9,0.1c-0.3,0.1-0.5,0.2-0.7,0.4s-0.3,0.4-0.5,0.7S75.1,35,75,35.4c-0.1,0.2-0.2,0.4-0.4,0.5s-0.6,0.2-1.2,0.4
		c-0.1,0-0.3,0.1-0.5,0.1s-0.4,0.1-0.5,0.1c-0.2,0-0.3-0.2-0.3-0.7s0.2-0.9,0.6-1.4s0.8-0.9,1.4-1.3c0.6-0.4,1.2-0.7,1.9-0.9
		c0.7-0.2,1.3-0.3,1.9-0.3c0.8,0,1.4,0.1,2.1,0.2c0.6,0.1,1.1,0.4,1.6,0.7c0.4,0.3,0.8,0.8,1,1.4c0.2,0.6,0.3,1.3,0.3,2.3v5.6
		c0,0.8,0,1.3,0.1,1.6s0.1,0.6,0.2,0.8c0.2,0.3,0.3,0.5,0.5,0.6s0.4,0.1,0.6,0.1s0.4,0,0.5-0.1C85,45.3,85.1,45.2,85.2,45.2z
		 M80.2,38.9l-1,0.2c-0.6,0.1-1.1,0.2-1.7,0.4c-0.5,0.2-1,0.4-1.4,0.6c-0.4,0.3-0.8,0.6-1,1c-0.3,0.4-0.4,0.9-0.4,1.5
		c0,0.8,0.2,1.4,0.6,1.9c0.4,0.4,1,0.6,1.6,0.6c0.4,0,0.8-0.1,1.2-0.3c0.4-0.2,0.8-0.4,1.1-0.8s0.5-0.7,0.7-1.2s0.3-0.9,0.3-1.5
		C80.2,41.3,80.2,38.9,80.2,38.9z"/>
	<path class="st1" d="M94.1,46.3c-0.6,0-1.1-0.1-1.7-0.1s-1.2,0-1.8,0s-1.2,0-1.8,0c-0.6,0-1.2,0.1-1.7,0.1c0-0.2-0.1-0.4-0.1-0.5
		c0-0.2,0.1-0.3,0.3-0.4c0.5-0.1,0.9-0.2,1.3-0.4s0.6-0.4,0.6-0.8V26.9c0-0.7-0.1-1.2-0.4-1.4C88.5,25.2,88,25,87.3,25
		c-0.3,0-0.4-0.2-0.4-0.5c0-0.1,0-0.3,0.1-0.5c0.3,0,0.7,0,1.2,0s1-0.1,1.4-0.1c0.5-0.1,1-0.2,1.4-0.3c0.4-0.1,0.7-0.2,0.9-0.2
		c0.2,0,0.3,0,0.4,0.1s0.1,0.2,0.1,0.4c0,0.4,0,0.8-0.1,1.3C92,25.7,92,26.3,92,27v17.3c0,0.3,0.2,0.6,0.6,0.8s0.9,0.3,1.4,0.4
		c0.2,0,0.3,0.2,0.3,0.4C94.2,45.9,94.1,46.1,94.1,46.3z"/>
</g>
</svg>
