<?xml version="1.0" encoding="utf-8"?>
<!-- Generator: Adobe Illustrator 22.1.0, SVG Export Plug-In . SVG Version: 6.00 Build 0)  -->
<svg version="1.1" id="Layer_1" xmlns="http://www.w3.org/2000/svg" xmlns:xlink="http://www.w3.org/1999/xlink" x="0px" y="0px"
	 viewBox="0 0 120 70" style="enable-background:new 0 0 120 70;" xml:space="preserve">
<style type="text/css">
	.st0{fill:#FFFFFF;}
	.st1{fill:#D6CB60;}
	.st2{fill:#827727;}
</style>
<path class="st0" d="M106.2,60.6H13.8c-2.1,0-3.8-1.7-3.8-3.8V13.2c0-2.1,1.7-3.8,3.8-3.8h92.4c2.1,0,3.8,1.7,3.8,3.8v43.7
	C110,58.9,108.3,60.6,106.2,60.6z"/>
<g>
	<path class="st1" d="M101,12.6c0.1,0.4-0.1,0.9-0.7,1.7c-0.8,0.8-1.7,1.6-2.7,2.1c-1.1,0.5-2.3,0.6-3.4,1.1
		c-1.5,0.7-1.8,2.7-1.6,4.2c0.4,3.1,2.5,5.2,2.7,8.3c0.5,7.9-2.4,14-5.8,20.9c-1,2-0.9,4.1,0.7,5.8c0.8,0.8,1.6,1.5,2.6,2.5
		c-0.3,1-0.7,2.3-1.1,3.6c-23.9,0-47.8,0-71.7,0c-1.7-1.9-1.2-6.4,0.9-8.1c0.7-0.6,1.4-1.1,2.2-1.7c2.7-1.9,2.8-4.2,0.6-6.6
		c-1-1-1.8-2.5-2-3.9c-0.4-3.8,1-6.8,4.3-9c0.8-0.5,1.4-1.7,1.9-2.6c1.4-2.7,2.3-5.8,4.1-8.1c2.9-3.7,6.2-7,10.3-9.5
		c5.6-3.3,9.5-3.3,14.5,1c2.2,1.9,4.5,4.2,6,6.8c1.1,1.9,1.7,6.9,4.2,7.5c2.1,0.6,6.3-1.1,7.5-3c1.8-2.9,6.7-6.5,6.6-10.2
		c0-1.2,0-2.4,0-3.6c0.1-2.3,0.9-3.1,3.2-3.7c4-1,7.6-0.2,11.1,1.6c1.1,0.5,2.1,1.1,3.2,1.6C99.6,11.6,100.8,11.9,101,12.6z"/>
</g>
<path class="st2" d="M69.2,45.1c0,0.9-0.9,1.6-2,1.6h-3.6c-1.1,0-2,0.9-2,2v3.6c0,1.1-0.7,2-1.6,2s-1.6-0.9-1.6-2v-3.6
	c0-1.1-0.9-2-2-2h-3.6c-1.1,0-2-0.7-2-1.6c0-0.9,0.9-1.6,2-1.6h3.6c1.1,0,2-0.9,2-2v-3.6c0-1.1,0.7-2,1.6-2s1.6,0.9,1.6,2v3.6
	c0,1.1,0.9,2,2,2h3.6C68.3,43.5,69.2,44.2,69.2,45.1z"/>
</svg>
