<?xml version="1.0" encoding="utf-8"?>
<!-- Generator: Adobe Illustrator 22.1.0, SVG Export Plug-In . SVG Version: 6.00 Build 0)  -->
<svg version="1.1" id="Layer_1" xmlns="http://www.w3.org/2000/svg" xmlns:xlink="http://www.w3.org/1999/xlink" x="0px" y="0px"
	 viewBox="0 0 150 150" style="enable-background:new 0 0 150 150;" xml:space="preserve">
<style type="text/css">
	.st0{fill:none;}
	.st1{opacity:0.5;fill:#89664A;}
	.st2{fill:#89664A;}
</style>
<g>
	<rect class="st0" width="150" height="150"/>
</g>
<path class="st1" d="M113.6,83.4c-0.7,3.9-0.8,7.9-2.1,11.6c-3.1,9.5-11.3,14.4-21,12.2c-7.3-1.7-14.2-1.9-21.1,1.4
	c-1.7,0.8-4,1.3-5.8,0.9C50.2,107,43.2,96.8,37.9,85.8c-4.1-8.6-0.1-17.1,8.7-24.7c4.4-3.8,8.5-8.4,11.5-13.4
	c3.7-6,8.3-8.6,14.9-6.8c11.9,3.2,22.5,7.5,30,18.9C108.1,67.3,114.6,73.3,113.6,83.4z"/>
<path class="st2" d="M64.3,42.7c0.1-0.1,0.3-0.2,0.5-0.2c3.2-1,10.4,1.4,13.5,2.3c7.9,2.4,15.6,5.7,23.5,8
	c10.7,3.2,14.2,8.2,11.7,19c-2.7,11.5-8.5,21.4-17.1,29.5c-5.8,5.5-12.8,7.9-21,6.1c-7-1.5-14.1-2.3-21.1-3
	c-10.5-1-16.5-5.6-17.8-16.1c-1.1-8.2-1.4-16.6-1.1-24.9c0.3-8.8,5.1-13.9,13.6-16c3.1-0.8,6.2-1,9.3-1.8c1.5-0.4,3.2-0.8,4.6-1.6
	C63.5,43.7,63.8,43.1,64.3,42.7z"/>
</svg>
