<?xml version="1.0" encoding="utf-8"?>
<!-- Generator: Adobe Illustrator 22.1.0, SVG Export Plug-In . SVG Version: 6.00 Build 0)  -->
<svg version="1.1" id="Layer_1" xmlns="http://www.w3.org/2000/svg" xmlns:xlink="http://www.w3.org/1999/xlink" x="0px" y="0px"
	 viewBox="0 0 150 150" style="enable-background:new 0 0 150 150;" xml:space="preserve">
<style type="text/css">
	.st0{fill:none;}
	.st1{opacity:0.5;fill:#EB945C;}
	.st2{fill:#EB945C;}
</style>
<g>
	<rect class="st0" width="150" height="150"/>
</g>
<path class="st1" d="M33.9,72.4C34.6,61,42.8,51.7,55,45.2c11.1-5.9,23.1-7.9,35.6-6.5c12.8,1.4,19.1,8.9,20.1,21.9
	c0.3,4,2.6,7.8,3.6,11.9c0.8,3.2,2.6,7.3,1.3,9.8c-7.2,14.2-17.6,25.5-33.9,29.1c-8.3,1.8-15.4-1.3-21.7-7.4
	c-4.5-4.3-10.2-7.5-15.9-10.3C37.4,90.4,33.8,84.9,33.9,72.4z"/>
<path class="st2" d="M63.8,49.6c0.5,0.1,0.9,0.2,1.4,0.2c3-0.1,6.2-0.9,9.2-1.3c3.8-0.5,7.7-1.1,11.5-1.8c10.5-1.8,19.4,1,26,9.4
	c6.8,8.7,7.1,18.2,2.8,28.1c-6.8,15.4-21.3,22.4-38,19c-6-1.2-12.3-1.5-18.5-1.7C42.4,101.1,32,90.1,32.5,73.8
	C32.9,58.6,43.8,48.4,59.1,49c1,0,1.8-0.1,2.8,0.1C62.6,49.2,63.2,49.4,63.8,49.6z"/>
</svg>
